<svg width="55" height="32" viewBox="0 0 55 32" fill="none" xmlns="http://www.w3.org/2000/svg">
<rect x="0.5" y="0.5" width="54" height="31" fill="white"/>
<path d="M0 0H55V32H0V0Z" fill="#012169"/>
<path d="M11.0391 0L27.4328 12.0667L43.7594 0H49H54.5L32.875 16.0667L54 32H49H43.625L27.5 20.0667L11.4422 32H6.00001H1.50008L22.0578 16.1333L1.00008 0H6.00001H11.0391Z" fill="white"/>
<path d="M34.4875 18.7333L52.5 32H49L30.7922 18.7333H34.4875ZM22.125 20.0667L22.5281 22.4L9.62813 32H6L22.125 20.0667ZM49 0V0.2L32.2703 12.7333L32.4047 9.8L45.6406 0H49ZM6 0L22.0578 11.7333H18.0266L2.5 0H6Z" fill="#C8102E"/>
<path d="M22.1922 0V32H32.9422V0H22.1922ZM0 10.6667V21.3333H55V10.6667H0Z" fill="white"/>
<path d="M0 12.8667V19.2667H55V12.8667H0ZM24.3422 0V32H30.7922V0H24.3422Z" fill="#C8102E"/>
<rect width="55" height="32" fill="white" fill-opacity="0.2"/>
<rect x="0.5" y="0.5" width="54" height="31" stroke="#DBDBDB"/>
</svg>
