<svg width="55" height="32" viewBox="0 0 55 32" fill="none" xmlns="http://www.w3.org/2000/svg">
<rect x="0.5" y="0.5" width="54" height="31" fill="white"/>
<path fill-rule="evenodd" clip-rule="evenodd" d="M0 0H48V32H0V0Z" fill="white"/>
<path fill-rule="evenodd" clip-rule="evenodd" d="M0 0H55V16H0V0Z" fill="#DF0000"/>
<path fill-rule="evenodd" clip-rule="evenodd" d="M11.0667 2.68C9.80387 2.95138 8.67288 3.64896 7.8636 4.65561C7.05432 5.66227 6.61601 6.91671 6.62226 8.20832C6.62852 9.49993 7.07895 10.7501 7.89795 11.7488C8.71695 12.7476 9.85463 13.4342 11.12 13.6933C10.3951 13.9031 9.63594 13.9677 8.88603 13.8834C8.13613 13.7991 7.41024 13.5676 6.74999 13.2022C6.08975 12.8368 5.50814 12.3446 5.03852 11.7539C4.5689 11.1632 4.22051 10.4856 4.01333 9.76C3.60184 8.30139 3.78461 6.7392 4.52168 5.41497C5.25876 4.09074 6.49016 3.11221 7.94666 2.69333C9.01333 2.38667 10 2.38 11.0733 2.68H11.0667Z" fill="white"/>
<path fill-rule="evenodd" clip-rule="evenodd" d="M10.2 7.33333L10.5267 8.33333L9.66003 7.72L8.80669 8.34666L9.12003 7.33333L8.26669 6.71333L9.32669 6.7L9.66003 5.7L9.99336 6.7H11.0467L10.2 7.33333ZM11.3667 10.8L11.7 11.8067L10.8334 11.1933L9.97336 11.8133L10.2934 10.8067L9.44003 10.18L10.5 10.1733L10.8267 9.16666L11.16 10.1667H12.2267L11.3667 10.8ZM15.2667 10.7733L15.5934 11.7867L14.7267 11.1667L13.8734 11.7867L14.1867 10.78L13.3334 10.16L14.3934 10.1467L14.7267 9.14666L15.06 10.1467H16.1134L15.2667 10.7733ZM16.4267 7.33333L16.7534 8.34L15.8867 7.72666L15.0334 8.34666L15.3534 7.34L14.4934 6.71333L15.56 6.70666L15.88 5.7L16.2134 6.7H17.28L16.4267 7.33333ZM13.34 5.04666L13.6734 6.06L12.8067 5.44L11.9467 6.06666L12.2667 5.05333L11.4134 4.42666L12.4667 4.42L12.8 3.41333L13.1334 4.41333H14.2L13.34 5.04666Z" fill="white"/>
<rect width="55" height="32" fill="white" fill-opacity="0.2"/>
<rect x="0.5" y="0.5" width="54" height="31" stroke="#DBDBDB"/>
</svg>
