<svg width="55" height="32" viewBox="0 0 55 32" fill="none" xmlns="http://www.w3.org/2000/svg">
<g clip-path="url(#clip0_1181_19449)">
<rect width="55" height="32" fill="white"/>
<path fill-rule="evenodd" clip-rule="evenodd" d="M-6 0H55V2.4625H-6V0ZM-6 4.925H55V7.3875H-6V4.925ZM-6 9.84375H55V12.3125H-6V9.84375ZM-6 14.7688H55V17.2313H-6V14.7688ZM-6 19.6938H55V22.1563H-6V19.6938ZM-6 24.6125H55V27.075H-6V24.6125ZM-6 29.5375H55V32H-6V29.5375Z" fill="#BD3D44"/>
<path fill-rule="evenodd" clip-rule="evenodd" d="M0 0H23V17H0V0Z" fill="#192F5D"/>
<path fill-rule="evenodd" clip-rule="evenodd" d="M1.88908 1L2.10246 1.65636H2.77815L2.23285 2.05982L2.4403 2.7222L1.88908 2.31273L1.34378 2.71618L1.55123 2.05982L1 1.65636H1.68755L1.88908 1ZM5.73582 1L5.94327 1.65636H6.62489L6.07367 2.05982L6.28112 2.7222L5.73582 2.31273L5.18459 2.71618L5.39204 2.05982L4.84674 1.65636H5.52244L5.73582 1ZM9.57663 1L9.79001 1.65636H10.4598L9.91448 2.05982L10.1219 2.7222L9.5707 2.31273L9.0254 2.71618L9.23285 2.05982L8.68163 1.65636H9.36325L9.57663 1ZM13.4234 1L13.6308 1.65636H14.3124L13.7612 2.05982L13.9746 2.7222L13.4234 2.31273L12.8721 2.71618L13.0855 2.05982L12.5343 1.65636H13.21L13.4234 1ZM17.2642 1L17.4776 1.65636H18.1533L17.608 2.05982L17.8154 2.7222L17.2642 2.31273L16.7189 2.71618L16.9263 2.05982L16.381 1.65636H17.0567L17.2642 1ZM21.1109 1L21.3184 1.65636H22L21.4488 2.05982L21.6621 2.7222L21.1109 2.31273L20.5597 2.71618L20.7731 2.05982L20.2218 1.65636H20.9035L21.1109 1ZM3.81541 2.66198L4.02286 3.31835H4.70449L4.15326 3.7218L4.35478 4.37816L3.82134 3.97471L3.27011 4.37816L3.46571 3.7218L2.93226 3.31835H3.60796L3.81541 2.66198ZM7.65622 2.66198L7.8696 3.31835H8.5453L7.99407 3.7218L8.20745 4.37816L7.65622 3.97471L7.105 4.37816L7.31837 3.7218L6.76715 3.31835H7.44877L7.65622 2.66198ZM11.503 2.66198L11.7104 3.31835H12.392L11.8408 3.7218L12.0483 4.37816L11.503 3.97471L10.9517 4.37816L11.1592 3.7218L10.6139 3.31835H11.2896L11.503 2.66198ZM15.3438 2.66198L15.5572 3.31835H16.2329L15.6816 3.7218L15.895 4.37816L15.3438 3.97471L14.7985 4.37816L15.0059 3.7218L14.4547 3.31835H15.1423L15.3438 2.66198ZM19.1905 2.66198L19.398 3.31835H20.0796L19.5284 3.7218L19.7358 4.37816L19.1905 3.97471L18.6393 4.37816L18.8467 3.7218L18.3014 3.31835H18.9771L19.1905 2.66198ZM1.88908 4.31795L2.10246 4.98635H2.77815L2.23285 5.3898L2.4403 6.04617L1.88908 5.63669L1.34378 6.04617L1.55123 5.38378L1 4.98033H1.68755L1.88908 4.31795ZM5.73582 4.31795L5.94327 4.98033H6.62489L6.07367 5.38378L6.28112 6.04014L5.73582 5.63067L5.18459 6.04014L5.39204 5.37776L4.84674 4.97431H5.52244L5.73582 4.31795ZM9.57663 4.31795L9.79001 4.98033H10.4598L9.91448 5.38378L10.1219 6.04014L9.5707 5.63067L9.0254 6.04014L9.23285 5.37776L8.68163 4.97431H9.36325L9.57663 4.31795ZM13.4234 4.31795L13.6308 4.98033H14.3124L13.7612 5.38378L13.9746 6.04014L13.4234 5.63067L12.8721 6.04014L13.0855 5.37776L12.5343 4.97431H13.21L13.4234 4.31795ZM17.2642 4.31795L17.4776 4.98033H18.1533L17.608 5.38378L17.8154 6.04014L17.2642 5.63067L16.7189 6.04014L16.9263 5.37776L16.381 4.97431H17.0567L17.2642 4.31795ZM21.1109 4.31795L21.3184 4.98033H22L21.4488 5.38378L21.6621 6.04014L21.1109 5.63067L20.5597 6.04014L20.7731 5.37776L20.2218 4.97431H20.9035L21.1109 4.31795ZM3.81541 5.97993L4.02286 6.63629H4.70449L4.15326 7.03974L4.36071 7.70213L3.81541 7.29265L3.26418 7.69611L3.47163 7.03974L2.92633 6.63629H3.60203L3.81541 5.97993ZM7.65622 5.97993L7.8696 6.63629H8.5453L7.99407 7.03974L8.20745 7.70213L7.65622 7.29265L7.105 7.69611L7.31837 7.03974L6.76715 6.63629H7.44877L7.65622 5.97993ZM11.503 5.97993L11.7104 6.63629H12.392L11.8408 7.03974L12.0483 7.70213L11.503 7.29265L10.9517 7.69611L11.1592 7.03974L10.6139 6.63629H11.2896L11.503 5.97993ZM15.3438 5.97993L15.5572 6.63629H16.2329L15.6876 7.03974L15.895 7.70213L15.3438 7.29265L14.7985 7.69611L15.0059 7.03974L14.4547 6.63629H15.1423L15.3438 5.97993ZM19.1905 5.97993L19.398 6.63629H20.0796L19.5284 7.03974L19.7358 7.70213L19.1905 7.29265L18.6393 7.69611L18.8467 7.03974L18.3014 6.63629H18.9771L19.1905 5.97993ZM1.88908 7.64191L2.10246 8.29827H2.77815L2.23285 8.70173L2.4403 9.36411L1.88908 8.95464L1.34378 9.35809L1.55123 8.70173L1 8.29827H1.68755L1.88908 7.64191ZM5.73582 7.64191L5.94327 8.29827H6.62489L6.07367 8.70173L6.28112 9.35809L5.73582 8.95464L5.18459 9.35809L5.39204 8.70173L4.84674 8.29827H5.52244L5.73582 7.64191ZM9.57663 7.64191L9.79001 8.29827H10.4598L9.91448 8.70173L10.1219 9.36411L9.5707 8.95464L9.0254 9.35809L9.23285 8.70173L8.68163 8.29827H9.36325L9.57663 7.64191ZM13.4234 7.64191L13.6308 8.29827H14.3124L13.7612 8.70173L13.9746 9.36411L13.4234 8.95464L12.8721 9.35809L13.0855 8.70173L12.5343 8.29827H13.21L13.4234 7.64191ZM17.2642 7.64191L17.4776 8.29827H18.1533L17.608 8.70173L17.8154 9.36411L17.2642 8.95464L16.7189 9.35809L16.9263 8.70173L16.381 8.29827H17.0567L17.2642 7.64191ZM21.1109 7.64191L21.3184 8.29827H22L21.4488 8.70173L21.6621 9.36411L21.1109 8.95464L20.5597 9.35809L20.7731 8.70173L20.2218 8.29827H20.9035L21.1109 7.64191ZM3.81541 9.30389L4.02286 9.96026H4.70449L4.15326 10.3637L4.36071 11.0201L3.81541 10.6106L3.26418 11.0201L3.47163 10.3577L2.92633 9.95424H3.60203L3.81541 9.30389ZM7.65622 9.30389L7.8696 9.96026H8.5453L7.99407 10.3637L8.20745 11.0201L7.65622 10.6106L7.105 11.0201L7.31837 10.3577L6.76715 9.95424H7.44877L7.65622 9.30389ZM11.503 9.30389L11.7104 9.96026H12.392L11.8408 10.3637L12.0483 11.0201L11.503 10.6106L10.9517 11.0201L11.1592 10.3577L10.6139 9.95424H11.2896L11.503 9.30389ZM15.3438 9.30389L15.5572 9.96026H16.2329L15.6876 10.3637L15.895 11.0201L15.3438 10.6106L14.7985 11.0201L15.0059 10.3577L14.4547 9.95424H15.1423L15.3438 9.30389ZM19.1905 9.30389L19.398 9.96026H20.0796L19.5284 10.3637L19.7358 11.0201L19.1905 10.6106L18.6393 11.0201L18.8467 10.3577L18.3014 9.95424H18.9771L19.1905 9.30389ZM1.88908 10.9599L2.10246 11.6222H2.77815L2.23285 12.0257L2.4403 12.676L1.88908 12.2726L1.34378 12.676L1.55123 12.0197L1 11.6162H1.68755L1.88908 10.9599ZM5.73582 10.9599L5.94327 11.6222H6.62489L6.07367 12.0257L6.28704 12.676L5.73582 12.2726L5.18459 12.676L5.39797 12.0197L4.84674 11.6162H5.52244L5.73582 10.9599ZM9.57663 10.9599L9.79001 11.6222H10.4598L9.91448 12.0257L10.1219 12.676L9.5707 12.2726L9.0254 12.676L9.23285 12.0197L8.68163 11.6162H9.36325L9.57663 10.9599ZM13.4234 10.9599L13.6308 11.6222H14.3124L13.7612 12.0257L13.9746 12.676L13.4234 12.2726L12.8721 12.676L13.0855 12.0197L12.5343 11.6162H13.21L13.4234 10.9599ZM17.2642 10.9599L17.4776 11.6222H18.1533L17.608 12.0257L17.8154 12.676L17.2642 12.2726L16.7189 12.676L16.9263 12.0197L16.381 11.6162H17.0567L17.2642 10.9599ZM21.1109 10.9599L21.3184 11.6222H22L21.4488 12.0257L21.6621 12.676L21.1109 12.2726L20.5597 12.676L20.7731 12.0197L20.2218 11.6162H20.9035L21.1109 10.9599ZM3.81541 12.6218L4.02286 13.2782H4.70449L4.15326 13.6817L4.36071 14.344L3.81541 13.9346L3.26418 14.338L3.47163 13.6817L2.92633 13.2782H3.60203L3.81541 12.6218ZM7.65622 12.6218L7.8696 13.2782H8.5453L7.99407 13.6817L8.20745 14.344L7.65622 13.9346L7.105 14.338L7.31837 13.6817L6.76715 13.2782H7.44877L7.65622 12.6218ZM11.503 12.6218L11.7104 13.2782H12.392L11.8408 13.6817L12.0483 14.344L11.503 13.9346L10.9517 14.338L11.1592 13.6817L10.6139 13.2782H11.2896L11.503 12.6218ZM15.3438 12.6218L15.5572 13.2782H16.2329L15.6876 13.6817L15.895 14.344L15.3438 13.9346L14.7985 14.338L15.0059 13.6817L14.4547 13.2782H15.1423L15.3438 12.6218ZM19.1905 12.6218L19.398 13.2782H20.0796L19.5284 13.6817L19.7358 14.344L19.1905 13.9346L18.6393 14.338L18.8467 13.6817L18.3014 13.2782H18.9771L19.1905 12.6218ZM1.88908 14.2838L2.10246 14.9402H2.77815L2.23285 15.3436L2.4403 16L1.88908 15.5965L1.34378 16L1.55123 15.3376L1 14.9342H1.68755L1.88908 14.2838ZM5.73582 14.2838L5.94327 14.9402H6.62489L6.07367 15.3436L6.28704 16L5.73582 15.5965L5.18459 16L5.39797 15.3376L4.84674 14.9342H5.52244L5.73582 14.2838ZM9.57663 14.2838L9.79001 14.9402H10.4598L9.92633 15.3436L10.1338 16L9.58256 15.5965L9.03726 16L9.24471 15.3376L8.69348 14.9342H9.37511L9.57663 14.2838ZM13.4234 14.2838L13.6308 14.9402H14.3124L13.7612 15.3436L13.9746 16L13.4234 15.5965L12.8721 16L13.0855 15.3376L12.5343 14.9342H13.21L13.4234 14.2838ZM17.2642 14.2838L17.4776 14.9402H18.1533L17.608 15.3436L17.8154 16L17.2642 15.5965L16.7189 16L16.9263 15.3376L16.381 14.9342H17.0567L17.2642 14.2838ZM21.1109 14.2838L21.3184 14.9402H22L21.4488 15.3436L21.6621 16L21.1109 15.5965L20.5597 16L20.7731 15.3376L20.2218 14.9342H20.9035L21.1109 14.2838Z" fill="white"/>
<rect width="55" height="32" fill="white" fill-opacity="0.2"/>
</g>
<rect x="0.5" y="0.5" width="54" height="31" stroke="#DBDBDB"/>
<defs>
<clipPath id="clip0_1181_19449">
<rect width="55" height="32" fill="white"/>
</clipPath>
</defs>
</svg>
