<svg width="55" height="32" viewBox="0 0 55 32" fill="none" xmlns="http://www.w3.org/2000/svg">
<rect x="0.5" y="0.5" width="54" height="31" fill="white"/>
<path fill-rule="evenodd" clip-rule="evenodd" d="M0 0H55V32H0V0Z" fill="#229E45"/>
<path fill-rule="evenodd" clip-rule="evenodd" d="M27.4266 29.0667L47.5266 16.02L27.3066 2.93335L7.13989 16.0467L27.4266 29.0667Z" fill="#F8E509"/>
<path fill-rule="evenodd" clip-rule="evenodd" d="M36.1867 16C36.1867 20.6867 32.38 24.4867 27.68 24.4867C26.0005 24.484 24.3594 23.9835 22.9643 23.0483C21.5692 22.1132 20.4827 20.7854 19.8421 19.2328C19.2015 17.6802 19.0356 15.9726 19.3653 14.3257C19.6951 12.6789 20.5057 11.1668 21.6947 9.98058C22.8837 8.79436 24.3977 7.9873 26.0454 7.66142C27.693 7.33553 29.4002 7.50546 30.9513 8.14971C32.5024 8.79396 33.8276 9.88362 34.7595 11.2809C35.6913 12.6782 36.188 14.3205 36.1867 16Z" fill="#2B49A3"/>
<path fill-rule="evenodd" clip-rule="evenodd" d="M24.8865 21.0866L24.6199 20.9333L24.3532 21.0666L24.4132 20.7666L24.1999 20.54L24.4999 20.5066L24.6465 20.24L24.7732 20.52L25.0665 20.5733L24.8465 20.7733L24.8865 21.0866ZM30.5799 22.5266L30.3198 22.3733L30.0532 22.5066L30.1065 22.2066L29.8999 21.9866L30.1999 21.9533L30.3399 21.68L30.4732 21.96L30.7665 22.0133L30.5399 22.22L30.5799 22.5266ZM28.1265 20.22L27.8999 20.0866L27.6665 20.2066L27.7199 19.9466L27.5332 19.7533L27.7999 19.7266L27.9199 19.4866L28.0265 19.7333L28.2865 19.78L28.0865 19.96L28.1265 20.22ZM33.8865 19.3933L33.6599 19.26L33.4265 19.38L33.4799 19.12L33.2999 18.9333L33.5599 18.9066L33.6799 18.6733L33.7865 18.9133L34.0399 18.96L33.8465 19.1333L33.8865 19.3933ZM28.0265 17.6666L27.7599 17.52L27.4932 17.6533L27.5465 17.3466L27.3399 17.1266L27.6399 17.0933L27.7799 16.82L27.9132 17.1L28.2065 17.1533L27.9799 17.3666L28.0265 17.6666ZM21.0065 15.0333L20.7399 14.8866L20.4732 15.02L20.5399 14.7133L20.3199 14.4933L20.6265 14.46L20.7599 14.1866L20.8932 14.4666L21.1865 14.52L20.9665 14.7266L21.0065 15.0333ZM21.8532 18.54L21.5865 18.3866L21.3199 18.52L21.3799 18.22L21.1665 18L21.4665 17.96L21.6065 17.6933L21.7399 17.9733L22.0332 18.0266L21.8132 18.2333L21.8532 18.54ZM30.6132 13.7466L30.3732 13.6133L30.1332 13.7333L30.1865 13.4666L29.9999 13.2666L30.2665 13.2333L30.3932 12.9933L30.5065 13.2466L30.7732 13.2933L30.5732 13.4733L30.6132 13.7466ZM30.1265 16.0266L29.9465 15.92L29.7532 16.0133L29.7932 15.8L29.6465 15.6466L29.8599 15.62L29.9599 15.4333L30.0465 15.6333L30.2465 15.6666L30.0999 15.8133L30.1265 16.0266ZM20.6199 19.1733L20.4399 19.0733L20.2599 19.16L20.2999 18.96L20.1599 18.8133L20.3599 18.7866L20.4532 18.6066L20.5399 18.7933L20.7399 18.8333L20.5865 18.9666L20.6199 19.1733ZM33.9332 19.9866L33.7865 19.9133L33.6399 19.98L33.6732 19.8266L33.5599 19.72L33.7198 19.7L33.7999 19.5666L33.8665 19.7L34.0332 19.7333L33.9065 19.8333" fill="#FFFFEF"/>
<path fill-rule="evenodd" clip-rule="evenodd" d="M20.6199 19.1734L20.4399 19.0734L20.2599 19.16L20.2999 18.96L20.1599 18.8134L20.3599 18.7867L20.4532 18.6067L20.5399 18.7934L20.7399 18.8334L20.5865 18.9667" fill="#FFFFEF"/>
<path fill-rule="evenodd" clip-rule="evenodd" d="M20.6199 19.1733L20.4399 19.0733L20.2599 19.16L20.2999 18.96L20.1599 18.8133L20.3599 18.7866L20.4532 18.6066L20.5399 18.7933L20.7399 18.8333L20.5865 18.9666L20.6199 19.1733ZM23.4065 19.1666L23.2332 19.0733L23.0532 19.16L23.0932 18.96L22.9532 18.8133L23.1532 18.7866L23.2465 18.6066L23.3332 18.7933L23.5332 18.8266L23.3799 18.9666L23.4065 19.1666ZM23.0599 20.1L22.8865 20L22.7065 20.0933L22.7465 19.8933L22.6065 19.74L22.8065 19.7133L22.8999 19.5333L22.9865 19.72L23.1865 19.76L23.0332 19.8933L23.0599 20.1ZM28.8599 18.4133L28.6865 18.3066L28.4999 18.4L28.5399 18.2L28.4065 18.0466L28.6065 18.0266L28.6999 17.8466L28.7799 18.0333L28.9799 18.0666L28.8332 18.2066L28.8599 18.4133ZM27.1599 18.4066L26.9799 18.3066L26.7999 18.4L26.8399 18.2L26.7065 18.0466L26.9065 18.0266L26.9999 17.84L27.0799 18.0333L27.2799 18.0666L27.1332 18.2066L27.1599 18.4066ZM22.5465 17.82L22.4332 17.7533L22.3199 17.8066L22.3465 17.68L22.2599 17.5866L22.3865 17.5733L22.4399 17.46L22.4932 17.58L22.6199 17.6L22.5265 17.6866L22.5465 17.82ZM33.7132 20.7133L33.5399 20.6133L33.3598 20.7066L33.3999 20.5066L33.2599 20.3533L33.4599 20.3266L33.5532 20.1466L33.6399 20.3333L33.8399 20.3733L33.6865 20.5066L33.7132 20.7133ZM32.2999 20.9066L32.1532 20.8133L31.9999 20.8933L32.0332 20.72L31.9199 20.6L32.0865 20.58L32.1665 20.4266L32.2332 20.5866L32.3999 20.6133L32.2732 20.7333L32.2999 20.9066ZM32.9665 20.8866L32.8332 20.8066L32.6932 20.8733L32.7198 20.72L32.6132 20.6066L32.7665 20.5866L32.8399 20.4533L32.9065 20.5866L33.0599 20.62L32.9465 20.7266L32.9665 20.8866ZM34.8865 19.2066L34.7532 19.14L34.6199 19.2066L34.6532 19.0533L34.5465 18.94L34.6999 18.92L34.7665 18.7866L34.8332 18.9266L34.9732 18.9533L34.8665 19.06L34.8865 19.2066ZM32.2799 21.8466L32.1132 21.7533L31.9332 21.8333L31.9732 21.6466L31.8399 21.5133L32.0399 21.4933L32.1265 21.3266L32.2065 21.5L32.4065 21.5333L32.2532 21.66L32.2799 21.8466ZM32.2932 22.6066L32.1332 22.5133L31.9732 22.6L32.0132 22.4133L31.8865 22.28L32.0665 22.2533L32.1465 22.0866L32.2198 22.26L32.3999 22.2933L32.2665 22.4266L32.2932 22.6066ZM30.9999 20.8866L30.8732 20.8066L30.7399 20.8733L30.7665 20.7266L30.6665 20.6133L30.8132 20.6L30.8799 20.4666L30.9465 20.6L31.0932 20.6266L30.9865 20.7333L30.9999 20.8866ZM29.7999 20.8866L29.6665 20.8066L29.5332 20.8733L29.5665 20.7266L29.4599 20.6133L29.6132 20.6L29.6799 20.4666L29.7465 20.6L29.8865 20.6266L29.7799 20.7333L29.7999 20.8866ZM27.7532 19.0933L27.6199 19.02L27.4865 19.0866L27.5199 18.9333L27.4132 18.8266L27.5599 18.8066L27.6265 18.6733L27.6932 18.8066L27.8399 18.84L27.7332 18.94L27.7532 19.0933ZM27.9799 22.74L27.8732 22.68L27.7532 22.74L27.7799 22.6066L27.6932 22.5133L27.8199 22.5L27.8799 22.3866L27.9332 22.5066L28.0599 22.5266L27.9665 22.6133L27.9799 22.74ZM24.8865 16.84L24.6199 16.6866L24.3532 16.82L24.4132 16.52L24.1999 16.3L24.4999 16.26L24.6465 15.9933L24.7732 16.2733L25.0665 16.3266L24.8465 16.5333" fill="#FFFFEF"/>
<path fill-rule="evenodd" clip-rule="evenodd" d="M35.6265 19.0534C35.7917 18.6248 35.921 18.1833 36.0132 17.7334C31.4932 13.7667 26.4599 11.7334 20.0999 12.1534C19.8692 12.5997 19.6795 13.0661 19.5332 13.5467C27.0665 12.8267 32.5999 16.16 35.6265 19.0534Z" fill="white"/>
<path d="M33.6 16.8267L33.7533 16.9134C33.7304 16.9586 33.7234 17.0103 33.7333 17.06C33.7489 17.1083 33.7823 17.1488 33.8266 17.1734C33.8733 17.2067 33.92 17.2267 33.96 17.22C34 17.22 34.0266 17.2 34.0466 17.1734C34.0583 17.1557 34.063 17.1343 34.06 17.1134C34.0545 17.0887 34.0431 17.0658 34.0266 17.0467C34.0133 17.0267 33.98 16.98 33.9266 16.9267C33.8718 16.8701 33.8308 16.8017 33.8066 16.7267C33.79 16.6699 33.7943 16.6091 33.8188 16.5552C33.8433 16.5014 33.8863 16.4581 33.94 16.4334C33.9885 16.4131 34.042 16.4085 34.0933 16.42C34.156 16.4345 34.215 16.4617 34.2666 16.5C34.36 16.5667 34.42 16.6334 34.44 16.7134C34.4492 16.7508 34.4504 16.7897 34.4435 16.8276C34.4366 16.8656 34.4218 16.9016 34.4 16.9334L34.24 16.8334C34.26 16.7934 34.2666 16.7534 34.2533 16.72C34.2466 16.6867 34.22 16.6534 34.1733 16.6267C34.1391 16.5991 34.0971 16.5828 34.0533 16.58C34.0412 16.5796 34.0292 16.5825 34.0187 16.5884C34.0081 16.5942 33.9993 16.6029 33.9933 16.6134C33.98 16.6334 33.98 16.6534 33.9866 16.68C33.9933 16.7067 34.0266 16.76 34.0933 16.8267C34.16 16.8934 34.2 16.9534 34.2266 16.9934C34.2504 17.0371 34.2612 17.0867 34.2577 17.1363C34.2541 17.1859 34.2364 17.2335 34.2066 17.2734C34.1754 17.3187 34.1313 17.3535 34.08 17.3734C34.03 17.3964 33.9741 17.4034 33.92 17.3934C33.86 17.38 33.8 17.3534 33.7333 17.3067C33.6333 17.24 33.5733 17.1667 33.5533 17.0867C33.5316 16.996 33.5459 16.9004 33.5933 16.82L33.6 16.8267ZM32.8266 16.32L32.9933 16.4067C32.9727 16.4527 32.968 16.5043 32.98 16.5534C32.997 16.5991 33.0302 16.6371 33.0733 16.66C33.1266 16.6934 33.1666 16.7067 33.2066 16.7C33.2466 16.7 33.2733 16.68 33.2933 16.6467C33.3034 16.6308 33.3081 16.6121 33.3066 16.5934C33.3066 16.5734 33.2933 16.5467 33.2733 16.5267C33.2391 16.4855 33.2036 16.4454 33.1666 16.4067C33.0933 16.3334 33.0466 16.2734 33.0333 16.22C33.0224 16.1857 33.0191 16.1494 33.0237 16.1137C33.0283 16.078 33.0407 16.0438 33.06 16.0134C33.0853 15.9722 33.1225 15.9397 33.1666 15.92C33.2124 15.8989 33.2635 15.8919 33.3133 15.9C33.375 15.9104 33.4339 15.9331 33.4866 15.9667C33.5866 16.0334 33.6466 16.1 33.6666 16.1734C33.6788 16.2108 33.6827 16.2505 33.6781 16.2896C33.6735 16.3287 33.6605 16.3664 33.64 16.4L33.4733 16.3067C33.4933 16.26 33.5 16.2267 33.4866 16.1934C33.4733 16.16 33.4466 16.1267 33.4 16.1C33.3631 16.0736 33.3187 16.0595 33.2733 16.06C33.2624 16.0608 33.2518 16.0642 33.2425 16.07C33.2331 16.0758 33.2254 16.0838 33.22 16.0934C33.2066 16.1134 33.2066 16.1334 33.2133 16.16C33.22 16.1867 33.26 16.24 33.3266 16.3067C33.3933 16.3734 33.44 16.4267 33.46 16.4667C33.4867 16.5085 33.5009 16.5571 33.5009 16.6067C33.5009 16.6563 33.4867 16.7049 33.46 16.7467C33.4312 16.7932 33.3895 16.8303 33.34 16.8534C33.29 16.8764 33.2341 16.8834 33.18 16.8734C33.1114 16.8618 33.0457 16.8368 32.9866 16.8C32.9005 16.7541 32.8341 16.6782 32.8 16.5867C32.7742 16.4977 32.7838 16.4022 32.8266 16.32ZM31.88 16.0667L32.3666 15.2667L32.9533 15.6334L32.8733 15.7667L32.4466 15.5L32.34 15.68L32.74 15.9267L32.6533 16.06L32.2533 15.8134L32.12 16.0334L32.5666 16.3L32.4866 16.4334L31.8866 16.0667H31.88ZM30.5 14.9334L30.5733 14.8L30.9333 14.98L30.7666 15.3134C30.7133 15.3267 30.6466 15.3334 30.5666 15.3267C30.4898 15.3182 30.4152 15.2956 30.3466 15.26C30.266 15.2207 30.197 15.161 30.1466 15.0867C30.1008 15.0177 30.0775 14.9362 30.08 14.8534C30.0833 14.7672 30.1061 14.6829 30.1466 14.6067C30.1867 14.5265 30.2463 14.4577 30.32 14.4067C30.3904 14.358 30.4743 14.3323 30.56 14.3334C30.6266 14.3334 30.6933 14.3534 30.7733 14.4C30.88 14.4467 30.9466 14.5134 30.98 14.5867C31.0146 14.6595 31.0217 14.7424 31 14.82L30.82 14.7667C30.831 14.722 30.8263 14.6749 30.8066 14.6334C30.7866 14.5934 30.7533 14.5667 30.7 14.54C30.6689 14.5223 30.6344 14.5113 30.5988 14.5079C30.5632 14.5044 30.5272 14.5086 30.4933 14.52C30.4266 14.54 30.3666 14.6 30.32 14.6934C30.2733 14.7867 30.2533 14.8734 30.2733 14.9467C30.2825 14.9815 30.2992 15.0138 30.3222 15.0415C30.3453 15.0691 30.3741 15.0914 30.4066 15.1067C30.44 15.1267 30.48 15.14 30.52 15.14C30.5597 15.1461 30.6002 15.1461 30.64 15.14L30.6933 15.0334L30.5 14.9334ZM24.4866 13.4467L24.62 12.5134L24.9 12.56L24.9733 13.2134L25.2333 12.6134L25.5133 12.6534L25.38 13.5734L25.2 13.5467L25.3133 12.82L25.02 13.52L24.84 13.4934L24.7666 12.74L24.66 13.4734L24.4866 13.4467ZM23.5466 13.3334L23.6333 12.4L24.32 12.4667L24.3066 12.6267L23.8066 12.58L23.7866 12.78L24.2533 12.8267L24.2333 12.9867L23.7666 12.94L23.7466 13.1934L24.2666 13.24L24.2533 13.4L23.5466 13.3334Z" fill="#309E3A"/>
<path d="M20.4333 12.7533C20.4333 12.6533 20.4533 12.58 20.48 12.5133C20.5033 12.4659 20.5349 12.423 20.5733 12.3866C20.6075 12.3522 20.6483 12.3249 20.6933 12.3066C20.76 12.2866 20.8266 12.2733 20.8933 12.2733C21.0333 12.2733 21.14 12.3266 21.2266 12.4066C21.2679 12.4576 21.2986 12.5163 21.3169 12.5792C21.3352 12.6422 21.3408 12.7082 21.3333 12.7733C21.3333 12.92 21.2866 13.04 21.2 13.1266C21.1554 13.1678 21.1027 13.1992 21.0453 13.2187C20.9879 13.2382 20.927 13.2455 20.8666 13.24C20.807 13.2406 20.7479 13.2291 20.6929 13.2062C20.6379 13.1832 20.5882 13.1494 20.5466 13.1066C20.4637 13.0085 20.4229 12.8814 20.4333 12.7533Z" fill="#309E3A"/>
<path d="M20.6268 12.7534C20.6268 12.8534 20.6468 12.9333 20.6934 12.9933C20.7401 13.0467 20.8001 13.08 20.8801 13.08C20.9147 13.0824 20.9494 13.0771 20.9817 13.0644C21.014 13.0517 21.0431 13.032 21.0668 13.0067C21.1134 12.9534 21.1334 12.8733 21.1401 12.76C21.1401 12.6533 21.1268 12.5734 21.0734 12.52C21.0517 12.4931 21.0243 12.4714 20.9932 12.4564C20.9621 12.4415 20.928 12.4336 20.8934 12.4334C20.8584 12.4322 20.8235 12.4388 20.7912 12.4526C20.759 12.4665 20.7301 12.4872 20.7068 12.5133C20.6534 12.5667 20.6334 12.6467 20.6268 12.7534Z" fill="#F7FFFF"/>
<path d="M21.5332 13.2334L21.5465 12.3H21.9465C22.0465 12.3 22.1132 12.3134 22.1599 12.3334C22.2065 12.3467 22.2399 12.38 22.2665 12.42C22.2932 12.46 22.3065 12.5134 22.3065 12.5734C22.3071 12.6375 22.2832 12.6995 22.2399 12.7467C22.1906 12.7929 22.1272 12.8211 22.0599 12.8267L22.1599 12.9067C22.1865 12.9334 22.2199 12.9867 22.2599 13.06L22.3732 13.2467H22.1465L22.0132 13.0334L21.9199 12.9C21.9037 12.8817 21.883 12.8679 21.8599 12.86C21.8295 12.8512 21.7981 12.8467 21.7665 12.8467H21.7265V13.2334H21.5332Z" fill="#309E3A"/>
<path d="M21.7332 12.7001H21.8665C21.9598 12.7001 22.0198 12.7001 22.0398 12.6868C22.0598 12.6868 22.0798 12.6668 22.0932 12.6534C22.1065 12.6401 22.1132 12.6068 22.1132 12.5868C22.1132 12.5468 22.1065 12.5201 22.0865 12.5068C22.0732 12.4868 22.0465 12.4734 22.0198 12.4668H21.8865L21.7332 12.4601V12.6934V12.7001Z" fill="white"/>
<path d="M22.6 12.3467L22.9467 12.3667C23.02 12.3667 23.08 12.3733 23.12 12.3867C23.1719 12.4055 23.2179 12.4377 23.2533 12.48C23.2917 12.5266 23.3191 12.5813 23.3333 12.64C23.3533 12.7 23.36 12.7733 23.3533 12.86C23.3533 12.9281 23.342 12.9956 23.32 13.06C23.2933 13.1267 23.2533 13.18 23.2067 13.22C23.1678 13.252 23.1223 13.2748 23.0733 13.2867C23.0333 13.3 22.9733 13.3 22.9067 13.3L22.5533 13.28L22.6 12.3467Z" fill="#309E3A"/>
<path d="M22.7801 12.5133L22.7468 13.1333H23.0001C23.0334 13.1333 23.0601 13.12 23.0801 13.1C23.1001 13.08 23.1201 13.0533 23.1334 13.0133C23.1468 12.9733 23.1601 12.9133 23.1601 12.84L23.1534 12.6733C23.1439 12.6382 23.1256 12.606 23.1001 12.58C23.078 12.5577 23.0504 12.5416 23.0201 12.5333C22.9697 12.5221 22.9184 12.5154 22.8668 12.5133H22.7801Z" fill="white"/>
<path d="M27.1733 14.0134L27.3933 13.1067L27.6867 13.1734L27.9 13.24C27.9467 13.2667 27.9867 13.3067 28.0067 13.3667C28.0333 13.42 28.0333 13.48 28.02 13.5534C28.0067 13.6067 27.9867 13.6534 27.9533 13.6867C27.9289 13.716 27.8983 13.7395 27.8637 13.7556C27.8292 13.7718 27.7915 13.7801 27.7533 13.78C27.7067 13.78 27.64 13.7667 27.5533 13.7467L27.44 13.7134L27.36 14.06L27.1733 14.0134Z" fill="#309E3A"/>
<path d="M27.5331 13.3066L27.4798 13.56L27.5798 13.5866C27.6465 13.6 27.6998 13.6133 27.7265 13.6066C27.7524 13.603 27.7766 13.5915 27.7957 13.5736C27.8148 13.5557 27.8279 13.5323 27.8331 13.5066C27.8331 13.4733 27.8331 13.4466 27.8198 13.42C27.8052 13.3929 27.7816 13.3717 27.7531 13.36L27.6265 13.3266L27.5398 13.3066H27.5331Z" fill="white"/>
<path d="M28.0399 14.2733L28.3532 13.3933L28.7199 13.5266C28.8199 13.56 28.8799 13.5933 28.9199 13.62C28.9532 13.6533 28.9799 13.6866 28.9866 13.74C28.9932 13.7933 28.9999 13.84 28.9866 13.8933C28.9599 13.96 28.9199 14.0066 28.8666 14.04C28.8132 14.0666 28.7466 14.0733 28.6666 14.06C28.6932 14.0933 28.7199 14.1266 28.7332 14.1666L28.7866 14.3466L28.8266 14.5533L28.6199 14.48L28.5532 14.24C28.5411 14.1857 28.5255 14.1323 28.5066 14.08C28.4977 14.0592 28.484 14.0409 28.4666 14.0266C28.4532 14.0066 28.4266 13.9933 28.3799 13.98L28.3466 13.9666L28.2133 14.34L28.0399 14.2733Z" fill="#309E3A"/>
<path d="M28.3998 13.8267L28.5265 13.8734C28.6131 13.9067 28.6665 13.92 28.6931 13.92C28.7131 13.92 28.7331 13.92 28.7531 13.9C28.7731 13.8867 28.7865 13.8667 28.7931 13.84C28.8065 13.8134 28.8065 13.7867 28.7931 13.76C28.7833 13.7342 28.7643 13.7128 28.7398 13.7L28.6065 13.6534L28.4731 13.6067L28.3931 13.8267H28.3998Z" fill="white"/>
<path d="M29.1333 14.24C29.1562 14.1619 29.1948 14.0894 29.2466 14.0267C29.2804 13.9864 29.321 13.9526 29.3666 13.9267C29.408 13.9033 29.4531 13.8875 29.5 13.88C29.5666 13.88 29.6333 13.88 29.7066 13.9067C29.7662 13.9214 29.822 13.9487 29.8703 13.9866C29.9186 14.0245 29.9582 14.0723 29.9866 14.1267C30.04 14.2333 30.04 14.36 30 14.5067C29.967 14.6327 29.8855 14.7405 29.7733 14.8067C29.6733 14.8667 29.5533 14.8733 29.4266 14.8333C29.3672 14.8182 29.3116 14.7908 29.2634 14.7529C29.2152 14.715 29.1754 14.6675 29.1466 14.6133C29.1199 14.5551 29.105 14.4921 29.1027 14.428C29.1004 14.3639 29.1108 14.3 29.1333 14.24Z" fill="#309E3A"/>
<path d="M29.3201 14.2933C29.2934 14.3933 29.2867 14.48 29.3201 14.5467C29.3534 14.6133 29.4001 14.6533 29.4734 14.68C29.5401 14.7 29.6067 14.6933 29.6734 14.6533C29.7401 14.62 29.7801 14.5467 29.8134 14.44C29.8467 14.34 29.8467 14.26 29.8134 14.1933C29.8002 14.1617 29.7803 14.1334 29.7549 14.1103C29.7296 14.0873 29.6995 14.0701 29.6667 14.06C29.6339 14.0487 29.5991 14.0446 29.5645 14.0481C29.53 14.0515 29.4966 14.0624 29.4667 14.08C29.4001 14.12 29.3534 14.1867 29.3201 14.2933Z" fill="white"/>
<path d="M30.9534 15.54L31.38 14.7134L31.7334 14.8934C31.8 14.9253 31.8608 14.9681 31.9134 15.02C31.9467 15.0534 31.9667 15.0934 31.9667 15.1467C31.9667 15.2 31.9667 15.2467 31.94 15.2934C31.9144 15.3533 31.8666 15.4011 31.8067 15.4267C31.74 15.44 31.6734 15.44 31.6 15.4134C31.6267 15.4534 31.64 15.4934 31.6534 15.5267C31.6667 15.5667 31.6734 15.6267 31.68 15.7134L31.6934 15.9267L31.4934 15.8267L31.4667 15.58C31.4635 15.5241 31.4569 15.4685 31.4467 15.4134C31.4422 15.3884 31.4306 15.3653 31.4134 15.3467L31.3334 15.3L31.3 15.28L31.12 15.6267L30.9534 15.54Z" fill="#309E3A"/>
<path d="M31.3668 15.1467L31.4935 15.2133C31.5735 15.2533 31.6268 15.28 31.6468 15.28C31.6668 15.28 31.6935 15.28 31.7135 15.2667C31.7335 15.26 31.7468 15.24 31.7602 15.2133C31.7735 15.1867 31.7802 15.16 31.7735 15.1333C31.7653 15.1068 31.7489 15.0835 31.7268 15.0667C31.6878 15.0427 31.6478 15.0205 31.6068 15L31.4735 14.9333L31.3668 15.1467Z" fill="white"/>
<path d="M34.4067 17.2467C34.4498 17.1782 34.5065 17.1192 34.5733 17.0734C34.6182 17.0447 34.6679 17.0243 34.72 17.0134C34.7684 17.0035 34.8183 17.0035 34.8667 17.0134C34.9333 17.0267 34.9933 17.0534 35.0533 17.0934C35.1052 17.1257 35.1498 17.1685 35.1842 17.219C35.2187 17.2695 35.2422 17.3266 35.2533 17.3867C35.2733 17.5001 35.24 17.6267 35.16 17.7534C35.0931 17.8636 34.9852 17.9427 34.86 17.9734C34.8003 17.9863 34.7386 17.9864 34.6788 17.9738C34.6191 17.9611 34.5627 17.936 34.5133 17.9001C34.4615 17.8677 34.4169 17.825 34.3824 17.7745C34.348 17.724 34.3245 17.6668 34.3133 17.6067C34.2933 17.4867 34.3267 17.3667 34.4067 17.2467Z" fill="#309E3A"/>
<path d="M34.5732 17.3534C34.5065 17.44 34.4865 17.52 34.4999 17.5934C34.5048 17.6271 34.5168 17.6595 34.5352 17.6882C34.5536 17.7169 34.5779 17.7414 34.6065 17.76C34.6732 17.8067 34.7399 17.82 34.8065 17.8C34.8732 17.78 34.9399 17.7334 34.9999 17.64C35.0599 17.5467 35.0865 17.4667 35.0732 17.4C35.0665 17.3334 35.0265 17.2734 34.9665 17.2267C34.9065 17.18 34.8332 17.1734 34.7665 17.1934C34.6999 17.2067 34.6332 17.26 34.5665 17.3534H34.5732Z" fill="white"/>
<path d="M26.1199 13.6333L26.2733 12.98L26.7533 13.0933L26.7333 13.2L26.3799 13.12L26.3466 13.2666L26.6733 13.34L26.6466 13.4533L26.3199 13.3733L26.2799 13.5533L26.6466 13.64L26.6199 13.7466L26.1199 13.6333Z" fill="#309E3A"/>
<rect width="55" height="32" fill="white" fill-opacity="0.2"/>
<rect x="0.5" y="0.5" width="54" height="31" stroke="#DBDBDB"/>
</svg>
