<svg width="55" height="32" viewBox="0 0 55 32" fill="none" xmlns="http://www.w3.org/2000/svg">
<rect x="0.5" y="0.5" width="54" height="31" fill="white"/>
<path d="M0 0H55V32H0V0Z" fill="#000066"/>
<path fill-rule="evenodd" clip-rule="evenodd" d="M20.8646 25.2388L18.0078 25.4962L18.4 28.4355L16.4323 26.2886L14.4645 28.4355L14.8568 25.4962L11.9999 25.2388L14.4645 23.7285L12.8759 21.2565L15.5563 22.3062L16.4323 19.482L17.3148 22.3062L19.9951 21.2565L18.4066 23.7285L20.8646 25.2388ZM33.0764 27.9479L32.3835 26.8778L33.5471 27.3316L33.9263 26.1057L34.3054 27.3316L35.4691 26.8778L34.7827 27.9479L35.8548 28.6048L34.6127 28.72L34.7827 30L33.9328 29.0586L33.0699 30L33.2399 28.72L31.9977 28.6116L33.0764 27.9479ZM33.0699 8.84217L32.3835 7.77209L33.5471 8.22585L33.9263 7L34.3054 8.22585L35.4691 7.77209L34.7827 8.84217L35.8548 9.50589L34.6127 9.61425L34.7827 10.8943L33.9328 9.95966L33.0699 10.8875L33.2399 9.61425L31.9977 9.50589L33.0699 8.84217ZM26.1599 16.6037L25.4734 15.5336L26.6371 15.9873L27.0163 14.7615L27.402 15.9873L28.5656 15.5336L27.8727 16.6037L28.9448 17.2606L27.7027 17.3757L27.8792 18.6558L27.0163 17.7144L26.1664 18.6558L26.3298 17.3757L25.0877 17.2674L26.1599 16.6037ZM39.2281 14.6938L38.5286 13.6237L39.6922 14.0774L40.0714 12.8516L40.4571 14.0774L41.6208 13.6237L40.9343 14.6938L41.9999 15.3507L40.7578 15.4658L40.9278 16.7391L40.0779 15.8045L39.215 16.7391L39.385 15.4658L38.1429 15.3507L39.2281 14.6938ZM36.6981 20.3286L36.0248 20.7688L36.2144 19.9629L35.6064 19.4346L36.3974 19.3669L36.6981 18.6084L37.0054 19.3737L37.7964 19.4346L37.1884 19.9629L37.378 20.7688" fill="white"/>
<path d="M0 0H21V16H0V0Z" fill="#000066"/>
<path d="M2.46094 0L10.4672 6.03333L18.4406 0H21V2.06667L13.125 8.03333L21 13.9667V16H18.375L10.5 10.0333L2.65781 16H0V14L7.84219 8.06667L0 2.13333V0H2.46094Z" fill="white"/>
<path d="M13.9125 9.36667L21 14.6667V16L12.1078 9.36667H13.9125ZM7.875 10.0333L8.07187 11.2L1.77187 16H0L7.875 10.0333ZM21 0V0.1L12.8297 6.36667L12.8953 4.9L19.3594 0H21ZM0 0L7.84219 5.86667H5.87344L0 1.4V0Z" fill="#C8102E"/>
<path d="M7.90781 0V16H13.1578V0H7.90781ZM0 5.33333V10.6667H21V5.33333H0Z" fill="white"/>
<path d="M0 6.43333V9.63333H21V6.43333H0ZM8.95781 0V16H12.1078V0H8.95781Z" fill="#C8102E"/>
<rect width="55" height="32" fill="white" fill-opacity="0.2"/>
<rect x="0.5" y="0.5" width="54" height="31" stroke="#DBDBDB"/>
</svg>
