<svg width="55" height="32" viewBox="0 0 55 32" fill="none" xmlns="http://www.w3.org/2000/svg">
<rect x="0.5" y="0.5" width="54" height="31" fill="white"/>
<path d="M0 0H15.7484V32H0V0ZM39.2516 0H55V32H39.2581L39.2516 0ZM19.2709 15.4625L18.3498 15.7625L22.5989 19.3563C22.9233 20.275 22.4886 20.5438 22.2097 21.0312L26.8156 20.4688L26.7053 24.9375L27.6654 24.9125L27.4513 20.475L32.0703 21.0063C31.7848 20.425 31.5318 20.1187 31.7913 19.1938L36.034 15.7875L35.2944 15.525C34.6846 15.075 35.5539 13.3562 35.6836 12.2688C35.6836 12.2688 33.212 13.0875 33.0498 12.6562L32.4141 11.4875L30.163 13.875C29.9165 13.9312 29.8127 13.8375 29.7543 13.6375L30.7923 8.65L29.1445 9.54375C29.0083 9.60625 28.872 9.55625 28.7812 9.4L27.1919 6.3375L25.5571 9.51875C25.4338 9.63125 25.3106 9.64375 25.2068 9.56875L23.6369 8.71875L24.584 13.6625C24.5061 13.8625 24.3245 13.9125 24.1169 13.8062L21.9567 11.45C21.6777 11.8875 21.4896 12.5938 21.1133 12.7563C20.7435 12.9062 19.4915 12.4563 18.6547 12.2812C18.9401 13.275 19.8353 14.925 19.2709 15.4688V15.4625Z" fill="#D52B1E"/>
<rect width="55" height="32" fill="white" fill-opacity="0.2"/>
<rect x="0.5" y="0.5" width="54" height="31" stroke="#DBDBDB"/>
</svg>
