<svg width="55" height="32" viewBox="0 0 55 32" fill="none" xmlns="http://www.w3.org/2000/svg">
<path fill-rule="evenodd" clip-rule="evenodd" d="M0 0H55V32H0V0Z" fill="#199D00"/>
<path fill-rule="evenodd" clip-rule="evenodd" d="M9.25014 5.25203C9.17671 6.37101 9.06656 8.32922 10.012 8.53436C11.141 8.64626 10.5169 6.5948 10.9299 6.22181C11.0034 6.03532 11.141 6.03532 11.1502 6.26844V8.01217C11.1502 8.57166 11.5174 8.73951 11.7928 8.8514C12.0865 8.83275 12.2884 8.8514 12.3986 9.13115L12.5454 12.1431C12.5454 12.1431 13.2247 12.3482 13.2614 10.4553C13.2889 9.33629 13.0411 8.41314 13.188 8.19867C13.188 7.9842 13.4634 7.97487 13.6469 8.07745C13.9407 8.28259 14.0692 8.54368 14.5281 8.45044C15.2257 8.24529 15.648 7.90027 15.6572 7.35944C15.6434 6.82794 15.5345 6.30343 15.3359 5.81152C15.3726 5.71827 15.2074 5.4665 15.2441 5.37326C15.3634 5.5784 15.5562 5.55975 15.5929 5.37326C15.4736 4.98161 15.29 4.5993 14.9963 4.44078C14.7484 4.21698 14.3813 4.25428 14.2619 4.72052C14.1885 5.25203 14.4455 5.87679 14.8219 6.39898C14.9045 6.5948 15.0146 6.9305 14.9687 7.22889C14.7668 7.35011 14.5648 7.29416 14.3904 7.11699C14.3904 7.11699 13.8397 6.69738 13.8397 6.5948C13.9866 5.64367 13.8672 5.53178 13.7846 5.26136C13.7295 4.89769 13.5551 4.77647 13.4175 4.53402C13.2798 4.38483 13.0962 4.38483 13.0044 4.53402C12.7566 4.96296 12.8759 5.88612 13.0503 6.30573C13.1788 6.68805 13.3716 6.9305 13.2798 6.9305C13.2063 7.14497 13.0503 7.08902 12.931 6.83725C12.7966 6.3074 12.7318 5.76184 12.7382 5.21473C12.6923 4.78579 12.6372 3.87196 12.3527 3.62952C12.1875 3.40572 11.9396 3.51762 11.8478 3.72277C11.8236 4.13934 11.8328 4.55723 11.8754 4.97229C12.0589 5.66233 12.1232 6.27776 12.215 6.97712C12.2425 7.91893 11.6826 7.38741 11.7101 6.91185C11.8306 6.31398 11.8212 5.69663 11.6826 5.10284C11.5908 4.86039 11.4898 4.80444 11.2604 4.84174C11.086 4.84174 10.6362 5.33596 10.5077 6.17519C10.5077 6.17519 10.3975 6.60413 10.3516 6.98644C10.2874 7.41539 10.012 7.73243 9.81007 6.9305C9.64485 6.34303 9.5347 4.91634 9.25932 5.25203H9.25014Z" fill="white"/>
<path fill-rule="evenodd" clip-rule="evenodd" d="M12.3255 9.83054L9.38818 11.2666C9.41572 10.5859 10.7742 9.36431 11.7105 9.35498C12.3071 9.36431 12.1603 9.5881 12.3163 9.83054H12.3255Z" fill="white"/>
<path fill-rule="evenodd" clip-rule="evenodd" d="M11.8029 10.763C10.2608 14.8193 15.4286 15.3881 16.0069 10.9308C16.062 10.7443 16.2823 10.5672 16.319 10.8655C16.1996 14.9032 12.3169 15.1736 11.656 13.9054C11.5005 13.4691 11.4228 13.0081 11.4265 12.544C11.3347 11.7514 10.9217 12.0591 10.8574 12.8424C10.7932 13.2807 10.8115 13.4019 10.8115 13.8215C11.0134 17.0106 16.0161 15.6398 16.833 13.0103C17.2644 11.5556 16.7596 10.4832 16.989 10.4832C17.4847 11.0241 18.1823 10.5578 18.3384 10.3713C18.4026 10.2781 18.5678 10.2128 18.678 10.334C19.0635 10.6138 19.7428 10.4832 19.8896 9.98902C19.9722 9.4948 20.0365 8.99126 20.0549 8.4784C19.7336 8.57165 19.5041 8.63692 19.4766 8.77679L19.4123 9.20573C19.3848 9.3456 19.1186 9.34561 19.1002 9.16843C18.9809 8.60895 18.4852 8.54367 18.1823 9.40155C17.9896 9.5694 17.6224 9.6067 17.5857 9.35493C17.6316 8.77679 17.4021 8.70219 16.9431 8.97261L16.5026 5.59703C16.6861 5.59703 16.8697 5.73691 17.0441 5.51311C16.8605 4.907 16.4475 3.67612 16.218 3.58288C16.117 3.45233 16.0252 3.53625 15.8784 3.57355C15.6397 3.64815 15.4194 3.8533 15.4928 4.26359C15.7682 6.01665 15.9518 7.3501 16.2364 9.11248C16.2823 9.30831 16.117 9.57872 15.8967 9.55075C15.5296 9.29898 15.4378 8.78612 14.7952 8.80477C14.3363 8.80477 13.8223 9.31763 13.758 9.80252C13.6754 10.1942 13.6479 10.6138 13.758 10.9495C14.0793 11.3411 14.4648 11.3038 14.8044 11.2199C15.0798 11.0987 15.3093 10.8189 15.4102 10.8842C15.4745 10.9681 15.4194 11.9006 14.0976 12.6093C13.299 12.9823 12.6565 13.0569 12.3169 12.3948C12.1058 11.9752 12.3352 10.3993 11.8029 10.763Z" fill="white"/>
<path fill-rule="evenodd" clip-rule="evenodd" d="M18.3835 6.64137C18.6864 6.52947 20.1551 4.81371 20.1551 4.81371L19.9348 4.62721C19.8522 4.56194 19.8614 4.48734 19.9348 4.42207C20.302 4.19827 20.1826 3.73203 19.9991 3.50824C19.8744 3.44652 19.7373 3.41522 19.5987 3.41684C19.46 3.41846 19.3237 3.45295 19.2005 3.51756C18.9435 3.76933 18.8884 4.1703 19.0903 4.41274C19.2831 4.50599 19.4758 4.71114 19.3473 4.82303C18.7415 5.47577 17.0985 6.60407 17.2912 6.64137C17.3279 6.69732 18.3468 6.69732 18.3744 6.64137H18.3835ZM9.47981 12.7025C8.92907 13.5977 8.88317 14.9311 9.18608 15.3321C9.3513 15.5186 9.6175 15.6025 9.81026 15.5372C10.1591 15.388 10.3151 14.67 10.2325 14.4182C10.1132 14.2318 10.0214 14.2038 9.90205 14.353C9.66339 14.8565 9.56242 14.5115 9.53489 14.2318C9.50858 13.758 9.5332 13.2827 9.60832 12.8144C9.67257 12.4227 9.60832 12.5346 9.47981 12.7025ZM33.0793 11.2758C32.5469 10.1009 31.8034 8.94459 31.5739 8.50633C30.8586 7.35755 30.0992 6.23772 29.2975 5.1494C28.7284 4.45937 30.2337 5.43847 29.1139 4.0584L28.297 3.35904C28.1134 3.22849 27.6728 2.98605 27.5993 3.37769C27.5626 3.73203 27.581 3.91853 27.6361 4.2076C27.682 4.39409 27.9573 4.72046 28.095 4.90696C29.9769 7.43907 31.6297 10.1387 33.0334 12.9729C33.272 12.8517 33.217 11.4716 33.0793 11.2758Z" fill="white"/>
<path fill-rule="evenodd" clip-rule="evenodd" d="M30.7389 15.1736C30.6288 15.2949 30.9959 15.8077 31.4732 15.8077C32.2626 15.7145 32.9602 15.2669 33.6028 14.0733C33.8639 13.6763 34.0304 13.2229 34.0893 12.7492C34.167 10.4855 33.9884 8.22026 33.5569 5.99803C33.5294 5.81154 33.5569 5.58774 33.5752 5.53179C33.6303 5.46652 33.8047 5.53179 33.8965 5.37327C34.0342 5.2334 33.5294 4.0678 33.254 3.62953C33.1622 3.42439 33.1163 3.29384 32.9511 3.64818C32.7517 4.03917 32.6567 4.47644 32.6757 4.91636C33.052 7.57392 33.1714 9.8958 33.41 12.5534C33.4376 12.8145 33.4008 13.1875 33.2264 13.3366C32.5338 14.1201 31.6861 14.746 30.7389 15.1736ZM41.4326 15.1643C40.8635 15.5 40.8635 15.8823 41.3224 15.8916C42.1118 15.7984 43.0481 15.7331 43.6906 14.7447C43.9176 14.2791 44.0487 13.7715 44.0761 13.2527C44.1917 11.0239 44.0469 8.78902 43.6447 6.59482C43.6264 6.40832 43.5437 5.97006 43.5713 5.91411C43.6264 5.78356 43.8834 5.92343 43.9752 5.77424C44.1037 5.63437 43.3051 4.58999 43.0205 4.1424C42.9287 3.93725 42.892 3.80671 42.7176 4.16105C42.5327 4.55563 42.4749 4.99936 42.5524 5.42922C42.9746 8.31991 43.2867 10.4833 43.351 13.0383C43.3143 13.2807 43.3051 13.4112 43.1949 13.719C42.9471 14.036 42.6717 14.4463 42.4147 14.6421C42.1577 14.8286 41.607 15.0151 41.4326 15.1643Z" fill="white"/>
<path fill-rule="evenodd" clip-rule="evenodd" d="M41.8547 12.5813C41.8547 11.9006 41.8639 11.3225 41.8456 10.8096C41.8396 10.3753 41.7459 9.94681 41.5702 9.55079C41.405 9.16847 41.5059 8.86075 41.4233 8.45046C41.3499 8.04017 41.3682 7.42474 41.2581 6.94917C41.2214 6.76268 41.1296 6.15656 41.1571 6.09129C41.203 5.96074 41.3774 6.09129 41.4692 5.94209C41.5977 5.80222 41.0103 4.26363 40.7165 3.82537C40.6156 3.62955 40.4136 3.69482 40.1841 4.01186C39.9547 4.22633 40.0373 4.7019 40.1291 5.15881C40.689 8.17072 41.1204 10.9029 41.0286 13.7656C40.9919 14.008 41.8547 13.0383 41.8547 12.5813ZM37.6599 8.85143C37.3019 8.83278 36.5584 8.13342 36.3381 7.73245C36.302 7.63446 36.2867 7.52985 36.293 7.42543C36.2993 7.32101 36.3272 7.21911 36.3748 7.12634C36.5125 7.03309 36.7144 6.93985 36.8705 7.03309C36.8705 7.03309 37.0265 7.25689 36.999 7.28486C37.1826 7.37811 37.2744 7.33149 37.2927 7.24757C37.3019 7.10769 37.2377 7.02377 37.2377 6.87457C37.3203 6.44563 37.7884 6.38036 37.972 6.65078C38.1005 6.81863 38.1556 7.16364 38.1647 7.39676C38.1647 7.51798 37.9812 7.37811 37.8618 7.39676C37.7609 7.43406 37.7333 7.56461 37.7241 7.67651C37.7058 7.98422 37.6691 8.47844 37.6599 8.84211V8.85143ZM31.0693 13.3273C31.1611 12.4135 31.0326 10.7817 31.0234 10.2408C30.9743 8.8499 30.861 7.46209 30.6838 6.08197C30.5736 5.29868 30.9959 6.16589 30.9408 5.70897C30.8031 4.93502 30.3809 4.4035 29.876 3.70414C29.72 3.47102 29.72 3.4244 29.4721 3.76009C29.1968 4.38485 29.4354 4.82312 29.5089 5.31733C29.8668 6.9212 30.078 8.39451 30.1789 9.85851C30.2846 11.3793 30.2969 12.9053 30.2156 14.4277C30.491 14.437 30.9133 13.9894 31.0693 13.3273Z" fill="white"/>
<path fill-rule="evenodd" clip-rule="evenodd" d="M43.0758 11.8634C42.4425 10.7817 41.497 9.62541 41.24 9.18715C40.3888 7.97966 39.4948 6.80396 38.5597 5.66238C37.7795 4.82314 38.9269 5.5225 38.4128 4.86977C37.9814 4.3942 37.8621 4.23568 37.4857 3.94661C37.3022 3.82539 37.192 3.59227 37.1186 3.99324C37.0893 4.34055 37.0832 4.68947 37.1002 5.03761C37.1002 5.19614 37.2654 5.50385 37.4123 5.69035C39.3124 8.06817 41.396 10.4926 43.0666 13.5418C43.3053 13.4206 43.2227 12.0499 43.0666 11.8634H43.0758Z" fill="white"/>
<path fill-rule="evenodd" clip-rule="evenodd" d="M14.4925 9.87709C14.4466 9.96101 14.3457 10.0636 14.3824 10.1662C14.4466 10.2594 14.5109 10.2874 14.621 10.2874C14.722 10.2874 14.8689 10.3154 14.8964 10.2594C14.9515 10.1941 14.9882 10.0729 14.9515 9.95168C14.8413 9.67194 14.5476 9.78384 14.4925 9.87709Z" fill="#1BA400"/>
<path fill-rule="evenodd" clip-rule="evenodd" d="M35.7512 25.5241C36.5957 25.5614 37.1465 25.5708 37.89 25.6547L38.7712 25.5614C39.7441 25.4682 39.7809 26.9695 39.7809 26.9695C39.7809 27.8553 39.4412 27.902 39.0098 27.9952C38.762 28.0325 38.6426 27.846 38.505 27.6595C38.2974 27.7271 38.0763 27.74 37.8624 27.6968C37.5044 27.6782 37.1556 27.6782 36.8068 27.6502C36.4397 27.6222 36.2377 27.6968 35.8614 27.6595C35.7879 27.7808 35.6778 27.9486 35.4575 27.902C35.2739 27.874 35.0444 27.3425 35.1087 26.9229C35.2464 26.6245 35.2005 26.727 35.2005 26.5965C31.7491 26.5033 28.2703 26.3447 24.8924 26.3914C22.2488 26.4007 19.6419 26.5126 17.0259 26.6245C15.6306 26.6058 14.5659 26.382 13.8315 25.291C13.905 25.291 17.393 25.4869 18.4119 25.4216C20.2936 25.4029 22.0193 25.2444 23.9377 25.1885C27.7195 25.2537 31.4738 25.2537 35.2556 25.5241C34.8884 25.2724 34.8884 24.6849 35.4391 24.5357C35.485 24.4984 35.5126 24.8248 35.5952 24.8155C36.045 24.7875 35.843 25.4029 35.7512 25.5241ZM20.5506 4.33822C19.9815 5.99803 20.8811 7.82569 21.5053 7.64852C21.9642 7.83501 22.2396 6.95848 22.4232 6.00735C22.5609 5.73694 22.6527 5.70896 22.7169 5.84883C22.6986 7.11701 22.8087 7.40607 23.13 7.78839C23.8459 8.34788 24.4426 7.86299 24.4885 7.81637L25.0392 7.24755C25.1677 7.10768 25.333 7.10768 25.5074 7.21958C25.6818 7.3781 25.6542 7.64852 26.0214 7.83501C26.3335 7.96556 26.9852 7.87231 27.1412 7.6019C27.3432 7.23823 27.3983 7.11701 27.49 6.98646C27.6369 6.79064 27.8847 6.87456 27.8847 6.93983C27.8572 7.05173 27.7103 7.1543 27.8113 7.35945C27.9949 7.49 28.0316 7.40607 28.1326 7.3781C28.4997 7.1916 28.7751 6.38967 28.7751 6.38967C28.7843 6.09128 28.6191 6.10993 28.5089 6.18453L28.2244 6.38035C28.0408 6.40832 27.7012 6.52954 27.5268 6.25912C27.3524 5.94208 27.3524 5.48517 27.2238 5.1588C27.2238 5.14015 26.9852 4.64594 27.2055 4.61796C27.3156 4.63661 27.5451 4.70188 27.5818 4.50606C27.692 4.31024 27.3432 3.76008 27.0953 3.48034C26.8842 3.24722 26.5905 3.21924 26.3059 3.46169C26.104 3.64818 26.1315 3.85333 26.0948 4.04915C26.06 4.18948 26.0585 4.3362 26.0904 4.47725C26.1223 4.61829 26.1868 4.74961 26.2784 4.8604C26.4803 5.25205 26.8383 5.76491 26.719 6.49224C26.719 6.49224 26.5079 6.82794 26.1407 6.78131C25.9847 6.75334 25.7368 6.68806 25.6083 5.68099C25.5074 4.935 25.6267 3.87198 25.3146 3.37776C25.1953 3.07004 25.1127 2.78098 24.8373 3.29384C24.7639 3.49899 24.4426 3.8067 24.6721 4.43147C24.8892 4.99446 24.9526 5.60659 24.8556 6.20318C24.718 6.40832 24.6904 6.4736 24.516 6.66942C24.2774 6.94916 24.0112 6.87456 23.8092 6.77199C23.6256 6.65077 23.4788 6.58549 23.387 6.16588C23.4053 5.51314 23.4421 4.44079 23.3227 4.21699C23.1483 3.86265 22.8638 3.9932 22.7444 4.1051C22.1984 4.72132 21.8328 5.48031 21.6889 6.29642C21.5236 6.83726 21.3492 6.67874 21.2299 6.46427C20.9362 6.18453 20.9086 3.97455 20.5506 4.33822Z" fill="white"/>
<path fill-rule="evenodd" clip-rule="evenodd" d="M22.2761 7.95616C22.5423 7.76966 22.423 7.63911 22.8085 8.03076C23.3061 8.92519 23.595 9.92371 23.653 10.9494C23.6346 11.1919 23.7999 11.3411 23.8825 11.2851C23.9192 10.7256 25.2685 9.94234 26.5077 9.83044C26.6913 9.78382 26.5995 9.42015 26.627 9.23365C26.5536 8.5343 27.0125 7.90021 27.6551 7.85358C28.5363 7.98413 28.83 8.4597 28.8484 9.17771C28.7474 10.5764 27.3155 10.8095 26.5169 10.9214C26.3975 10.9681 26.3425 11.024 26.5169 11.0893L29.8764 11.1079L30.0508 11.2012C30.0692 11.2944 29.9957 11.2198 29.8672 11.4436C29.6824 11.7735 29.5668 12.1386 29.5276 12.516C28.5271 12.8517 27.4899 12.9822 26.4434 13.1221C26.0763 13.3086 25.8927 13.5604 25.9661 13.8401C26.0946 14.1478 26.9024 14.4649 26.9024 14.4742C27.0584 14.5674 27.2328 14.8006 26.8565 15.2761C25.2226 15.2015 23.9467 14.4928 23.5061 13.4951C23.3776 13.3925 23.2308 13.4951 23.139 13.6256C22.4964 14.4649 21.8722 15.2108 20.7799 15.6211C20.1374 15.789 19.4673 15.5186 19.1552 15.0896C18.9441 14.8379 18.9533 14.5674 18.8799 14.5115C18.5219 14.67 15.4928 15.9755 15.8783 15.36C16.6126 14.5674 17.8977 13.9707 19.0175 13.1874C19.1002 12.9169 19.247 12.0218 19.6876 11.7327C19.7152 11.7327 19.6234 12.2549 19.6325 12.4787C19.6325 12.6652 19.6142 12.7305 19.6509 12.6838C19.7335 12.6372 21.092 11.5462 21.2113 11.2105C21.3399 11.024 21.2389 10.5391 21.2389 10.5205C20.9819 9.84909 20.6239 9.79314 20.4954 9.45745C20.376 9.01918 20.4311 8.51565 20.679 8.36645C20.8993 8.17063 21.1563 8.18928 21.4041 8.41307C21.6795 8.66484 21.9181 9.15906 21.9916 9.52272C21.9457 9.66259 21.6244 9.42948 21.5326 9.49475C21.7093 9.701 21.8268 9.9526 21.8722 10.2221C22.0558 10.9867 22.0007 11.2851 21.8172 11.7793C21.2113 13.0755 20.4403 13.4578 19.761 13.9427C19.7427 13.9427 19.7335 14.269 19.9813 14.4462C20.0731 14.5395 20.4311 14.5861 20.8442 14.4462C21.7266 13.9484 22.4402 13.191 22.8911 12.2735C22.9691 11.5754 22.8939 10.8685 22.6708 10.2034C22.4046 9.57867 22.0925 8.69282 22.0925 8.67417C22.0834 8.28253 22.1109 8.15198 22.2761 7.95616ZM13.4825 4.35679C13.8681 4.54328 14.6024 4.45936 14.5657 3.82527L14.5473 3.5362C14.4739 3.34971 14.2536 3.39633 14.2077 3.58283C14.1893 3.6481 14.2352 3.75067 14.1802 3.77865C14.1434 3.81595 14.0241 3.7973 14.0241 3.62013C14.0241 3.56418 13.9874 3.50823 13.9599 3.47093C13.9415 3.45228 13.9231 3.45228 13.8772 3.45228C13.8222 3.45228 13.8222 3.46161 13.7946 3.50823C13.7855 3.55485 13.7671 3.60148 13.7671 3.65743C13.7671 3.7227 13.7304 3.74135 13.6937 3.75067C13.6386 3.75067 13.6478 3.75067 13.6019 3.73202C13.5835 3.70405 13.556 3.69473 13.556 3.63878L13.5284 3.48958C13.5101 3.46161 13.4734 3.44296 13.4366 3.43363C13.2255 3.43363 13.2072 3.6854 13.2255 3.77865C13.2072 3.7973 13.198 4.23556 13.4825 4.35679Z" fill="white"/>
<path fill-rule="evenodd" clip-rule="evenodd" d="M24.8187 9.2244C25.2042 9.41089 26.1313 9.30832 25.9018 8.70221L25.8835 8.40381C25.8009 8.21732 25.5898 8.26394 25.5439 8.45976C25.5255 8.51571 25.5714 8.61829 25.5071 8.64626C25.4796 8.68356 25.3511 8.66491 25.3603 8.49706C25.3603 8.44111 25.3236 8.37584 25.296 8.33854C25.2685 8.32922 25.2593 8.31989 25.2042 8.31989C25.1583 8.31989 25.1583 8.33854 25.1308 8.38517C25.1124 8.43179 25.1033 8.47841 25.1033 8.53436C25.0941 8.59031 25.0665 8.60896 25.0206 8.62761C24.9748 8.62761 24.9839 8.62761 24.9472 8.59964C24.9197 8.57166 24.8921 8.56234 24.8921 8.51571L24.8646 8.36652C24.8462 8.33854 24.8095 8.31989 24.7728 8.31057C24.5617 8.31057 24.5433 8.55301 24.5525 8.64626C24.5433 8.66491 24.5342 9.1125 24.8279 9.2244H24.8187ZM31.4277 7.21024C31.8132 7.39674 32.5383 7.31281 32.5108 6.68805L32.4924 6.38966C32.4098 6.20316 32.1987 6.24979 32.1528 6.43628C32.1344 6.50156 32.1803 6.60413 32.1161 6.64143C32.0886 6.6694 31.96 6.65075 31.9692 6.47358C31.9692 6.41763 31.9325 6.36168 31.905 6.32439C31.8774 6.30574 31.8683 6.30573 31.8132 6.30573C31.7673 6.30573 31.7673 6.32439 31.7397 6.37101L31.7122 6.51088C31.703 6.57616 31.6755 6.60413 31.6296 6.60413C31.5837 6.60413 31.5929 6.60413 31.5562 6.58548C31.5286 6.5575 31.5011 6.54818 31.5011 6.50156C31.5011 6.45493 31.4919 6.38033 31.4736 6.34303C31.4552 6.31506 31.4185 6.30574 31.3818 6.29641C31.1706 6.29641 31.1523 6.53885 31.1615 6.6321C31.1523 6.65075 31.1431 7.08902 31.4368 7.21024H31.4277ZM34.8515 12.2736C34.1814 13.0476 34.4751 14.3251 34.6312 14.6048C34.8515 15.0524 35.0259 15.3415 35.4573 15.5653C35.852 15.8543 36.1641 15.6772 36.3293 15.472C36.724 15.0524 36.7332 13.98 36.9168 13.7749C37.0453 13.3833 37.3757 13.4485 37.5318 13.6257C37.6778 13.8362 37.8734 14.0062 38.1009 14.1199C38.468 14.4463 38.9086 14.5116 39.3492 14.2132C39.643 14.036 39.8357 13.8215 40.0101 13.3833C40.1937 12.8611 40.1019 10.4366 40.056 9.0006L39.6705 6.99577C39.6705 6.97712 39.6246 6.04464 39.5787 5.83017C39.5787 5.73692 39.5512 5.70895 39.643 5.71827C39.7439 5.81152 39.7531 5.81152 39.8265 5.83949C39.9183 5.85814 40.0101 5.68097 39.9459 5.53178L39.028 3.79736C38.9545 3.72277 38.8536 3.64817 38.7342 3.81601C38.6638 3.88076 38.6078 3.95997 38.5698 4.04839C38.5318 4.13681 38.5128 4.23241 38.5139 4.32888C38.5415 4.73917 38.6057 5.15879 38.6333 5.56908L39.0004 7.67648C39.1197 9.16845 39.1473 10.3993 39.2666 11.9006C39.2483 12.5347 39.0555 13.0849 38.8719 13.1688C38.8719 13.1688 38.5965 13.3273 38.413 13.1501C38.2753 13.0942 37.7337 12.227 37.7337 12.227C37.4583 11.9752 37.2747 12.0405 37.082 12.227C36.5312 12.7678 36.2926 13.7562 35.9162 14.4463C35.8244 14.6048 35.5491 14.726 35.2553 14.437C34.5027 13.3833 34.9433 11.8913 34.8515 12.2736ZM31.6021 3.53627C31.9509 3.67614 32.1895 4.39415 32.1161 4.74849C32.0427 5.16811 31.8591 5.63435 31.7306 5.5784C31.5837 5.52245 31.8224 5.14946 31.6847 4.75782C31.6112 4.49672 31.1339 4.03049 31.189 3.89994C31.0972 3.61087 31.3909 3.48032 31.6021 3.52695V3.53627Z" fill="white"/>
<path fill-rule="evenodd" clip-rule="evenodd" d="M35.9715 12.7025C36.0357 11.8446 35.9164 11.3224 35.898 10.8189C35.8797 10.3153 35.3381 6.47351 35.228 6.10051C35.0903 5.37318 35.7512 6.00727 35.6777 5.57833C35.4483 5.05614 34.8883 4.28218 34.7139 3.82526C34.6038 3.63877 34.6497 3.45227 34.411 3.77864C34.2055 4.35086 34.1333 4.96366 34.1999 5.569C34.769 8.58091 35.3473 11.08 35.2555 13.9427C35.5309 13.9427 35.8338 13.3179 35.9715 12.7025ZM41.8828 4.74842C42.2041 4.90694 42.3877 5.80212 42.3509 6.05389C42.2867 6.52013 42.1215 7.02367 42.0021 6.95839C41.8644 6.90245 42.0297 6.26836 41.9654 6.07254C41.892 5.7928 41.4606 5.28926 41.5065 5.14006C41.4147 4.82302 41.69 4.69247 41.8828 4.74842ZM18.4119 11.08C18.7148 11.2012 18.8984 11.8539 18.8708 12.0404C18.7974 12.3854 18.6413 12.7584 18.522 12.7025C18.4027 12.6652 18.5495 12.1989 18.4945 12.0497C18.4669 11.7047 18.0447 11.5182 18.0539 11.369C17.9804 11.0893 18.2375 11.0427 18.421 11.08H18.4119Z" fill="white"/>
<path fill-rule="evenodd" clip-rule="evenodd" d="M25.7175 12.0685C26.103 12.0871 26.2957 12.4042 25.9378 12.5347C25.5706 12.6559 25.231 12.7585 25.2218 13.2807C25.3595 14.0267 25.0382 13.7656 24.8546 13.6724C24.6343 13.5045 24.0101 13.1129 23.9184 12.2736C23.9092 12.0778 24.0652 11.9006 24.3131 11.9006C24.6802 12.0032 25.231 12.0125 25.7175 12.0685Z" fill="#1B9D00"/>
<path fill-rule="evenodd" clip-rule="evenodd" d="M10.3437 3.32177C10.7843 3.45232 10.8118 4.12371 10.7843 4.31953C10.72 4.67387 10.564 5.05618 10.4539 5.00956C10.3253 4.96294 10.4539 4.47805 10.3896 4.32885C10.3253 4.12371 9.949 3.73206 9.98572 3.62017C9.90311 3.38705 10.1693 3.27515 10.3437 3.32177ZM19.1465 6.4549C18.7977 6.6414 18.6691 7.20089 18.8803 7.53658C19.0822 7.81632 19.3943 7.71375 19.431 7.71375C19.7706 7.75105 19.9726 7.07034 19.9726 7.07034C19.9726 7.07034 19.9818 6.88384 19.5871 7.24751C19.4127 7.27549 19.4035 7.21021 19.3576 7.11696C19.3156 6.93944 19.3317 6.75283 19.4035 6.58545C19.4677 6.4176 19.3392 6.34301 19.1465 6.4549ZM21.7166 3.06068C21.533 3.1819 21.1934 3.54557 21.1842 3.95586C21.175 4.18898 21.1291 4.18898 21.276 4.32885C21.3953 4.4967 21.4963 4.48737 21.7166 4.36615C21.7715 4.33105 21.8186 4.28474 21.8549 4.23016C21.8913 4.17558 21.9161 4.11393 21.9277 4.04911C21.9828 3.78801 21.6524 4.17965 21.6156 3.88126C21.5422 3.60152 21.7533 3.48962 21.9553 3.22853C21.9553 3.04203 21.9553 2.92081 21.7074 3.06068H21.7166ZM23.7727 3.43367C23.6918 3.77322 23.6426 4.11978 23.6259 4.46872C23.5708 4.72982 23.9012 4.84171 24.0389 4.50602C24.2592 3.89991 24.2592 3.63882 24.2776 3.38705C24.2133 2.98608 23.9471 2.99541 23.7727 3.43367ZM36.807 10.1755C36.8438 10.1289 38.6429 8.83273 38.6429 8.83273C38.8264 8.76745 38.7805 9.50411 38.6979 9.49479C38.14 10.041 37.4982 10.4914 36.7979 10.8282C36.7061 10.8935 36.6235 10.334 36.7979 10.1755H36.807ZM38.4317 10.1568C38.753 10.3154 38.8815 11.2572 38.8448 11.5089C38.8448 12.0125 38.5419 12.4041 38.4134 12.3482C38.2849 12.2829 38.4317 11.7234 38.3675 11.5276C38.2941 11.2478 38.0279 10.735 38.0738 10.5858C37.982 10.2687 38.239 10.1009 38.4409 10.1568H38.4317ZM27.784 14.2038C27.9329 14.0273 28.106 13.8734 28.298 13.7469C28.4816 13.6536 28.6468 13.8215 28.6376 13.8122C28.6652 13.9987 28.5275 14.1572 28.5734 14.3996C28.6101 14.4929 28.6376 14.6048 28.812 14.5675C29.0966 14.3344 29.3628 14.3157 29.6382 14.3064C29.8676 14.3157 29.8768 14.698 29.73 14.698C29.2067 14.8099 28.9773 14.9591 28.6009 15.099C28.4173 15.2109 28.2705 15.071 28.2705 15.0617C28.2705 15.0524 28.1695 14.9591 28.2338 14.7167C28.2521 14.5302 28.1787 14.4183 28.0135 14.4369C27.9033 14.5115 27.7932 14.5488 27.7381 14.409C27.7106 14.3157 27.7014 14.2598 27.784 14.2038ZM40.3226 14.7073C40.3961 14.8006 40.4511 14.8938 40.3135 15.0617L39.9738 15.3601C39.9188 15.4533 39.882 15.6212 40.0656 15.6678C40.3961 15.761 41.1671 15.2482 41.1671 15.2389C41.2956 15.1456 41.2589 14.9591 41.2405 14.9591C41.1671 14.8752 41.0019 14.9311 40.8917 14.9125C40.8367 14.9125 40.6623 14.8938 40.7449 14.726C40.8065 14.6436 40.856 14.5525 40.8917 14.4556C40.9376 14.3437 40.8917 14.2691 40.7082 14.2038C40.5154 14.1665 40.4328 14.1852 40.2217 14.2038C40.1115 14.2225 40.0748 14.2784 40.0473 14.4183C40.0564 14.6327 40.1849 14.6234 40.3226 14.698V14.7073Z" fill="white"/>
<path fill-rule="evenodd" clip-rule="evenodd" d="M27.8475 9.41093C27.8016 9.50418 27.6364 9.50418 27.4804 9.41093C27.3243 9.31768 27.2325 9.16849 27.2876 9.08456C27.3427 9.00064 27.4987 9.00064 27.6548 9.08456C27.8108 9.16849 27.8934 9.32701 27.8475 9.41093ZM19.6781 4.41284C19.5864 4.44081 19.4578 4.35689 19.4028 4.22634C19.3477 4.0958 19.3752 3.9839 19.467 3.95592C19.5588 3.92795 19.6781 4.0212 19.7424 4.14242C19.8066 4.26364 19.7699 4.39419 19.669 4.42216L19.6781 4.41284Z" fill="#259F00"/>
<path fill-rule="evenodd" clip-rule="evenodd" d="M35.8429 26.6897C36.7058 26.727 37.5135 26.6897 38.3672 26.7363C38.5232 26.8762 38.4131 27.2025 38.3121 27.1839L37.5961 27.1559C37.587 26.8762 36.8893 26.9228 36.9077 27.1653C36.5314 27.2119 36.1917 27.1559 35.8062 27.1373C35.6961 26.9974 35.7144 26.7456 35.8429 26.6897Z" fill="#209000"/>
</svg>
