<svg width="55" height="32" viewBox="0 0 55 32" fill="none" xmlns="http://www.w3.org/2000/svg">
<path d="M0 0H55V32H0V0Z" fill="#FF9933"/>
<path d="M0 11H55V32H0V11Z" fill="white"/>
<path d="M0 21H55V32H0V21Z" fill="#128807"/>
<path d="M27.0002 20.2667C29.3566 20.2667 31.2669 18.3565 31.2669 16.0001C31.2669 13.6437 29.3566 11.7334 27.0002 11.7334C24.6438 11.7334 22.7336 13.6437 22.7336 16.0001C22.7336 18.3565 24.6438 20.2667 27.0002 20.2667Z" fill="#000088"/>
<path d="M26.9999 19.7334C29.0618 19.7334 30.7333 18.0619 30.7333 16.0001C30.7333 13.9382 29.0618 12.2667 26.9999 12.2667C24.9381 12.2667 23.2666 13.9382 23.2666 16.0001C23.2666 18.0619 24.9381 19.7334 26.9999 19.7334Z" fill="white"/>
<path d="M27 16.4267C27.2357 16.4267 27.4267 16.2357 27.4267 16C27.4267 15.7644 27.2357 15.5734 27 15.5734C26.7644 15.5734 26.5733 15.7644 26.5733 16C26.5733 16.2357 26.7644 16.4267 27 16.4267Z" fill="#000088"/>
<path d="M27.0217 19.7334L27.1497 17.4934L27.0217 16.4268L26.8937 17.4934L27.0217 19.7334Z" fill="#000088"/>
<path d="M25.6283 19.4686L26.5717 17.4329L26.8453 16.394L26.3337 17.3387L25.6283 19.4686Z" fill="#000088"/>
<path d="M29.6505 18.5436L28.1571 16.8691L27.3123 16.2054L27.976 17.0501L29.6505 18.5436Z" fill="#000088"/>
<path d="M28.5104 19.33L27.7382 17.2234L27.197 16.2953L27.5032 17.3251L28.5104 19.33Z" fill="#000088"/>
<path d="M23.2667 16.0214L25.5067 16.1494L26.5733 16.0214L25.5067 15.8934L23.2667 16.0214Z" fill="#000088"/>
<path d="M23.5035 14.6353L25.5391 15.5787L26.578 15.8523L25.6334 15.3407L23.5035 14.6353Z" fill="#000088"/>
<path d="M24.3705 18.5738L26.0449 17.0804L26.7087 16.2357L25.8639 16.8994L24.3705 18.5738Z" fill="#000088"/>
<path d="M23.5904 17.4148L25.697 16.6425L26.625 16.1014L25.5953 16.4076L23.5904 17.4148Z" fill="#000088"/>
<path d="M27.0214 12.2667L26.8934 14.5067L27.0214 15.5734L27.1494 14.5067L27.0214 12.2667Z" fill="#000088"/>
<path d="M28.3765 12.526L27.4331 14.5617L27.1595 15.6006L27.6711 14.6559L28.3765 12.526Z" fill="#000088"/>
<path d="M24.3708 13.2639L25.8642 14.9384L26.709 15.6021L26.0453 14.7573L24.3708 13.2639Z" fill="#000088"/>
<path d="M25.5445 12.4775L26.3168 14.5841L26.858 15.5121L26.5518 14.4824L25.5445 12.4775Z" fill="#000088"/>
<path d="M30.7336 16.0214L28.4936 15.8934L27.427 16.0214L28.4936 16.1494L30.7336 16.0214Z" fill="#000088"/>
<path d="M30.4458 17.3834L28.4102 16.44L27.3713 16.1664L28.316 16.678L30.4458 17.3834Z" fill="#000088"/>
<path d="M29.6504 13.2941L27.9759 14.7875L27.3122 15.6323L28.1569 14.9685L29.6504 13.2941Z" fill="#000088"/>
<path d="M30.4428 14.4488L28.3362 15.2211L27.4082 15.7623L28.4379 15.4561L30.4428 14.4488Z" fill="#000088"/>
</svg>
