<svg width="24" height="24" viewBox="0 0 24 24" fill="none" xmlns="http://www.w3.org/2000/svg">
<path d="M19.3594 19.2871C10.6918 23.4121 5.31259 19.9608 1.86919 17.8646C1.65612 17.7324 1.29396 17.8954 1.60818 18.2564C2.75535 19.6473 6.51487 23 11.4221 23C16.3328 23 19.2541 20.3205 19.6196 19.8531C19.9826 19.3896 19.7262 19.134 19.3593 19.2871H19.3594ZM21.7937 17.9427C21.5609 17.6396 20.3783 17.5831 19.6341 17.6745C18.8887 17.7633 17.7699 18.2189 17.8671 18.4924C17.917 18.5949 18.0189 18.5489 18.531 18.5029C19.0444 18.4517 20.4829 18.2701 20.7826 18.6619C21.0837 19.0565 20.3238 20.9358 20.185 21.2389C20.0509 21.542 20.2363 21.6202 20.4881 21.4183C20.7365 21.2165 21.1862 20.6939 21.488 19.9544C21.7878 19.2108 21.9705 18.1735 21.7936 17.9427H21.7937Z" fill="#333945"/>
<path fill-rule="evenodd" clip-rule="evenodd" d="M13.5315 10.87C13.5315 11.9523 13.5589 12.855 13.0118 13.8161C12.5702 14.5977 11.8708 15.0783 11.0893 15.0783C10.0226 15.0783 9.40128 14.2655 9.40128 13.066C9.40128 10.698 11.523 10.2682 13.5315 10.2682V10.87ZM16.3331 17.6416C16.1495 17.8057 15.8838 17.8175 15.6767 17.708C14.7545 16.9422 14.5904 16.5866 14.0825 15.8559C12.5586 17.4111 11.4801 17.876 9.50292 17.876C7.16625 17.876 5.34534 16.4342 5.34534 13.5466C5.34534 11.292 6.56845 9.75633 8.30716 9.00615C9.81549 8.3418 11.9216 8.2246 13.5315 8.04101V7.68149C13.5315 7.02109 13.5823 6.23962 13.1955 5.66916C12.8555 5.15727 12.2069 4.94625 11.6363 4.94625C10.5774 4.94625 9.63182 5.48936 9.40128 6.61471C9.35434 6.86485 9.17075 7.11103 8.92069 7.12273L6.22449 6.83363C5.99791 6.78273 5.74785 6.59914 5.81037 6.25131C6.43164 2.98475 9.38168 2 12.0231 2C13.3751 2 15.1412 2.35952 16.208 3.38331C17.56 4.64538 17.4311 6.32948 17.4311 8.16208V12.4916C17.4311 13.7928 17.9703 14.3632 18.4782 15.0666C18.658 15.3167 18.6971 15.6176 18.4704 15.8051C17.9038 16.2778 16.8957 17.1571 16.3409 17.6495L16.3331 17.6416" fill="#333945"/>
<path d="M19.3594 19.2871C10.6918 23.4121 5.31259 19.9608 1.86919 17.8646C1.65612 17.7324 1.29396 17.8954 1.60818 18.2564C2.75535 19.6473 6.51487 23 11.4221 23C16.3328 23 19.2541 20.3205 19.6196 19.8531C19.9826 19.3896 19.7262 19.134 19.3593 19.2871H19.3594ZM21.7937 17.9427C21.5609 17.6396 20.3783 17.5831 19.6341 17.6745C18.8887 17.7633 17.7699 18.2189 17.8671 18.4924C17.917 18.5949 18.0189 18.5489 18.531 18.5029C19.0444 18.4517 20.4829 18.2701 20.7826 18.6619C21.0837 19.0565 20.3238 20.9358 20.185 21.2389C20.0509 21.542 20.2363 21.6202 20.4881 21.4183C20.7365 21.2165 21.1862 20.6939 21.488 19.9544C21.7878 19.2108 21.9705 18.1735 21.7936 17.9427H21.7937Z" fill="#F39C12"/>
<path fill-rule="evenodd" clip-rule="evenodd" d="M13.5315 10.87C13.5315 11.9523 13.5589 12.855 13.0118 13.8161C12.5702 14.5977 11.8708 15.0783 11.0893 15.0783C10.0226 15.0783 9.40128 14.2655 9.40128 13.066C9.40128 10.698 11.523 10.2682 13.5315 10.2682V10.87ZM16.3331 17.6416C16.1495 17.8057 15.8838 17.8175 15.6767 17.708C14.7545 16.9422 14.5904 16.5866 14.0825 15.8559C12.5586 17.4111 11.4801 17.876 9.50292 17.876C7.16625 17.876 5.34534 16.4342 5.34534 13.5466C5.34534 11.292 6.56845 9.75633 8.30716 9.00615C9.81549 8.3418 11.9216 8.2246 13.5315 8.04101V7.68149C13.5315 7.02109 13.5823 6.23962 13.1955 5.66916C12.8555 5.15727 12.2069 4.94625 11.6363 4.94625C10.5774 4.94625 9.63182 5.48936 9.40128 6.61471C9.35434 6.86485 9.17075 7.11103 8.92069 7.12273L6.22449 6.83363C5.99791 6.78273 5.74785 6.59914 5.81037 6.25131C6.43164 2.98475 9.38168 2 12.0231 2C13.3751 2 15.1412 2.35952 16.208 3.38331C17.56 4.64538 17.4311 6.32948 17.4311 8.16208V12.4916C17.4311 13.7928 17.9703 14.3632 18.4782 15.0666C18.658 15.3167 18.6971 15.6176 18.4704 15.8051C17.9038 16.2778 16.8957 17.1571 16.3409 17.6495L16.3331 17.6416" fill="#333945"/>
</svg>
