<svg width="644" height="434" viewBox="0 0 644 434" fill="none" xmlns="http://www.w3.org/2000/svg">
<path fill-rule="evenodd" clip-rule="evenodd" d="M69.7526 89.4916C112.74 52.093 182.086 50.0877 242.463 34.1388C295.451 20.1414 345.82 -5.80824 400.796 2.04414C456.615 10.0171 498.808 43.8246 538.24 76.386C579.093 110.121 617.195 146.457 630.914 192.068C645.989 242.187 654.874 300.107 618.291 342.521C582.249 384.308 508.753 386.923 448.634 403.401C394.763 418.166 343.212 434.793 286.253 433.526C218.696 432.024 146.314 429.95 94.2259 395.52C38.6987 358.816 5.08943 302.047 0.498776 244.643C-3.99506 188.449 22.1005 130.948 69.7526 89.4916Z" fill="#E1F2BA" fill-opacity="0.2"/>
</svg>
