<svg width="20" height="21" viewBox="0 0 20 21" fill="none" xmlns="http://www.w3.org/2000/svg">
<path fill-rule="evenodd" clip-rule="evenodd" d="M7.75012 20.5465C8.86954 20.5465 9.81711 19.8108 10.1357 18.7965H12.8646C13.1831 19.8108 14.1307 20.5465 15.2501 20.5465C16.6308 20.5465 17.7501 19.4272 17.7501 18.0465C17.7501 16.6658 16.6308 15.5465 15.2501 15.5465C14.1307 15.5465 13.1831 16.2822 12.8646 17.2965H10.1357C9.81709 16.2822 8.86952 15.5465 7.75012 15.5465C6.63072 15.5465 5.68315 16.2822 5.36458 17.2965H4.75007C4.49005 17.2965 4.03877 17.2263 3.67332 16.9615C3.3513 16.7282 3.00007 16.2775 3.00007 15.2965C3.00007 14.3585 3.37636 13.8982 3.80179 13.6332C4.28036 13.3352 4.90282 13.2414 5.37811 13.2414H15.9236C16.4349 13.2414 16.8947 12.93 17.0844 12.4552L19.6964 5.91777C20.0077 5.13867 19.4782 4.28017 18.6423 4.20855L4.91427 3.03229C4.71197 2.22308 4.33913 1.53932 3.68566 1.0807C2.89685 0.527082 1.86131 0.418394 0.667238 0.551075C0.255558 0.596819 -0.0410902 0.967634 0.00465371 1.37931C0.0503976 1.79099 0.421213 2.08764 0.832893 2.0419C1.88882 1.92457 2.47828 2.06588 2.82396 2.30849C3.15067 2.53779 3.41497 2.96887 3.54493 3.83317L4.53744 11.8092C4.04901 11.8887 3.50497 12.051 3.00884 12.3599C2.14277 12.8993 1.50007 13.8415 1.50007 15.2965C1.50007 16.7085 2.04314 17.6328 2.79328 18.1762C3.49998 18.6882 4.2987 18.7965 4.75006 18.7965H5.36456C5.68313 19.8108 6.6307 20.5465 7.75012 20.5465ZM7.75012 19.0465C8.30241 19.0465 8.75012 18.5988 8.75012 18.0465C8.75012 17.4942 8.30241 17.0465 7.75012 17.0465C7.19784 17.0465 6.75012 17.4942 6.75012 18.0465C6.75012 18.5988 7.19784 19.0465 7.75012 19.0465ZM5.14666 4.55769L6.04057 11.7414L15.7543 11.7414L18.1783 5.67429L5.14666 4.55769ZM16.2501 18.0465C16.2501 18.5988 15.8024 19.0465 15.2501 19.0465C14.6978 19.0465 14.2501 18.5988 14.2501 18.0465C14.2501 17.4942 14.6978 17.0465 15.2501 17.0465C15.8024 17.0465 16.2501 17.4942 16.2501 18.0465Z" fill="#79808D"/>
</svg>
