<svg width="213" height="49" viewBox="0 0 213 49" fill="none" xmlns="http://www.w3.org/2000/svg">
<path d="M0 4C0 1.79086 1.79086 0 4 0H209C211.209 0 213 1.79086 213 4V45C213 47.2091 211.209 49 209 49H4C1.79086 49 0 47.2091 0 45V4Z" fill="#941759"/>
<path d="M30.5747 30.14C29.8187 30.14 29.086 30.0327 28.3767 29.818C27.6767 29.6033 27.1214 29.3187 26.7107 28.964L27.3407 27.55C27.742 27.8673 28.232 28.1287 28.8107 28.334C29.3987 28.53 29.9867 28.628 30.5747 28.628C31.3027 28.628 31.844 28.5113 32.1987 28.278C32.5627 28.0447 32.7447 27.7367 32.7447 27.354C32.7447 27.074 32.642 26.8453 32.4367 26.668C32.2407 26.4813 31.9887 26.3367 31.6807 26.234C31.3727 26.1313 30.9527 26.0147 30.4207 25.884C29.674 25.7067 29.0674 25.5293 28.6007 25.352C28.1434 25.1747 27.7467 24.8993 27.4107 24.526C27.084 24.1433 26.9207 23.63 26.9207 22.986C26.9207 22.4447 27.0654 21.9547 27.3547 21.516C27.6534 21.068 28.0967 20.7133 28.6847 20.452C29.282 20.1907 30.01 20.06 30.8687 20.06C31.466 20.06 32.054 20.1347 32.6327 20.284C33.2114 20.4333 33.7107 20.648 34.1307 20.928L33.5567 22.342C33.1274 22.09 32.6794 21.8987 32.2127 21.768C31.746 21.6373 31.2934 21.572 30.8547 21.572C30.136 21.572 29.5994 21.6933 29.2447 21.936C28.8994 22.1787 28.7267 22.5007 28.7267 22.902C28.7267 23.182 28.8247 23.4107 29.0207 23.588C29.226 23.7653 29.4827 23.9053 29.7907 24.008C30.0987 24.1107 30.5187 24.2273 31.0507 24.358C31.7787 24.526 32.376 24.7033 32.8427 24.89C33.3094 25.0673 33.706 25.3427 34.0327 25.716C34.3687 26.0893 34.5367 26.5933 34.5367 27.228C34.5367 27.7693 34.3874 28.2593 34.0887 28.698C33.7994 29.1367 33.356 29.4867 32.7587 29.748C32.1614 30.0093 31.4334 30.14 30.5747 30.14ZM40.6674 29.594C40.4621 29.762 40.2101 29.888 39.9114 29.972C39.6221 30.056 39.3141 30.098 38.9874 30.098C38.1661 30.098 37.5314 29.8833 37.0834 29.454C36.6354 29.0247 36.4114 28.3993 36.4114 27.578V23.98H35.1794V22.58H36.4114V20.872H38.1614V22.58H40.1634V23.98H38.1614V27.536C38.1614 27.9 38.2501 28.18 38.4274 28.376C38.6047 28.5627 38.8614 28.656 39.1974 28.656C39.5894 28.656 39.9161 28.5533 40.1774 28.348L40.6674 29.594ZM44.963 22.44C46.0643 22.44 46.9043 22.706 47.483 23.238C48.071 23.7607 48.365 24.554 48.365 25.618V30H46.713V29.09C46.4983 29.4167 46.1903 29.6687 45.789 29.846C45.397 30.014 44.921 30.098 44.361 30.098C43.801 30.098 43.311 30.0047 42.891 29.818C42.471 29.622 42.1443 29.356 41.911 29.02C41.687 28.6747 41.575 28.2873 41.575 27.858C41.575 27.186 41.8223 26.6493 42.317 26.248C42.821 25.8373 43.6097 25.632 44.683 25.632H46.615V25.52C46.615 24.9973 46.4563 24.596 46.139 24.316C45.831 24.036 45.369 23.896 44.753 23.896C44.333 23.896 43.9177 23.9613 43.507 24.092C43.1057 24.2227 42.765 24.4047 42.485 24.638L41.799 23.364C42.191 23.0653 42.6623 22.8367 43.213 22.678C43.7637 22.5193 44.347 22.44 44.963 22.44ZM44.725 28.824C45.1637 28.824 45.551 28.726 45.887 28.53C46.2323 28.3247 46.475 28.0353 46.615 27.662V26.794H44.809C43.801 26.794 43.297 27.1253 43.297 27.788C43.297 28.1053 43.423 28.3573 43.675 28.544C43.927 28.7307 44.277 28.824 44.725 28.824ZM52.2769 23.616C52.7809 22.832 53.6676 22.44 54.9369 22.44V24.106C54.7876 24.078 54.6522 24.064 54.5309 24.064C53.8496 24.064 53.3176 24.2647 52.9349 24.666C52.5522 25.058 52.3609 25.6273 52.3609 26.374V30H50.6109V22.524H52.2769V23.616ZM61.1889 29.594C60.9835 29.762 60.7315 29.888 60.4329 29.972C60.1435 30.056 59.8355 30.098 59.5089 30.098C58.6875 30.098 58.0529 29.8833 57.6049 29.454C57.1569 29.0247 56.9329 28.3993 56.9329 27.578V23.98H55.7009V22.58H56.9329V20.872H58.6829V22.58H60.6849V23.98H58.6829V27.536C58.6829 27.9 58.7715 28.18 58.9489 28.376C59.1262 28.5627 59.3829 28.656 59.7189 28.656C60.1109 28.656 60.4375 28.5533 60.6989 28.348L61.1889 29.594ZM68.4856 21.726V24.708H73.2176V26.248H68.4856V30H66.6656V20.2H73.8196V21.726H68.4856ZM76.941 23.616C77.445 22.832 78.3316 22.44 79.601 22.44V24.106C79.4516 24.078 79.3163 24.064 79.195 24.064C78.5136 24.064 77.9816 24.2647 77.599 24.666C77.2163 25.058 77.025 25.6273 77.025 26.374V30H75.275V22.524H76.941V23.616ZM88.0451 26.304C88.0451 26.4253 88.0358 26.598 88.0171 26.822H82.1511C82.2538 27.3727 82.5198 27.8113 82.9491 28.138C83.3878 28.4553 83.9291 28.614 84.5731 28.614C85.3945 28.614 86.0711 28.3433 86.6031 27.802L87.5411 28.88C87.2051 29.2813 86.7805 29.5847 86.2671 29.79C85.7538 29.9953 85.1751 30.098 84.5311 30.098C83.7098 30.098 82.9865 29.9347 82.3611 29.608C81.7358 29.2813 81.2505 28.8287 80.9051 28.25C80.5691 27.662 80.4011 26.9993 80.4011 26.262C80.4011 25.534 80.5645 24.8807 80.8911 24.302C81.2271 23.714 81.6891 23.2567 82.2771 22.93C82.8651 22.6033 83.5278 22.44 84.2651 22.44C84.9931 22.44 85.6418 22.6033 86.2111 22.93C86.7898 23.2473 87.2378 23.7 87.5551 24.288C87.8818 24.8667 88.0451 25.5387 88.0451 26.304ZM84.2651 23.84C83.7051 23.84 83.2291 24.008 82.8371 24.344C82.4545 24.6707 82.2211 25.1093 82.1371 25.66H86.3791C86.3045 25.1187 86.0758 24.68 85.6931 24.344C85.3105 24.008 84.8345 23.84 84.2651 23.84ZM96.7541 26.304C96.7541 26.4253 96.7448 26.598 96.7261 26.822H90.8601C90.9628 27.3727 91.2288 27.8113 91.6581 28.138C92.0968 28.4553 92.6381 28.614 93.2821 28.614C94.1035 28.614 94.7801 28.3433 95.3121 27.802L96.2501 28.88C95.9141 29.2813 95.4895 29.5847 94.9761 29.79C94.4628 29.9953 93.8841 30.098 93.2401 30.098C92.4188 30.098 91.6955 29.9347 91.0701 29.608C90.4448 29.2813 89.9595 28.8287 89.6141 28.25C89.2781 27.662 89.1101 26.9993 89.1101 26.262C89.1101 25.534 89.2735 24.8807 89.6001 24.302C89.9361 23.714 90.3981 23.2567 90.9861 22.93C91.5741 22.6033 92.2368 22.44 92.9741 22.44C93.7021 22.44 94.3508 22.6033 94.9201 22.93C95.4988 23.2473 95.9468 23.7 96.2641 24.288C96.5908 24.8667 96.7541 25.5387 96.7541 26.304ZM92.9741 23.84C92.4141 23.84 91.9381 24.008 91.5461 24.344C91.1635 24.6707 90.9301 25.1093 90.8461 25.66H95.0881C95.0135 25.1187 94.7848 24.68 94.4021 24.344C94.0195 24.008 93.5435 23.84 92.9741 23.84ZM105.944 24.246C106.85 24.358 107.54 24.666 108.016 25.17C108.492 25.674 108.73 26.304 108.73 27.06C108.73 27.6293 108.586 28.1473 108.296 28.614C108.007 29.0807 107.568 29.454 106.98 29.734C106.402 30.0047 105.692 30.14 104.852 30.14C104.152 30.14 103.476 30.042 102.822 29.846C102.178 29.6407 101.628 29.3607 101.17 29.006L101.954 27.592C102.309 27.8907 102.738 28.1287 103.242 28.306C103.756 28.474 104.283 28.558 104.824 28.558C105.468 28.558 105.972 28.4273 106.336 28.166C106.71 27.8953 106.896 27.5313 106.896 27.074C106.896 26.6167 106.719 26.262 106.364 26.01C106.019 25.7487 105.487 25.618 104.768 25.618H103.872V24.372L106.098 21.726H101.646V20.2H108.324V21.418L105.944 24.246ZM114.009 30.14C113.225 30.14 112.525 29.944 111.909 29.552C111.293 29.1507 110.807 28.572 110.453 27.816C110.098 27.0507 109.921 26.1453 109.921 25.1C109.921 24.0547 110.098 23.154 110.453 22.398C110.807 21.6327 111.293 21.054 111.909 20.662C112.525 20.2607 113.225 20.06 114.009 20.06C114.793 20.06 115.493 20.2607 116.109 20.662C116.734 21.054 117.224 21.6327 117.579 22.398C117.933 23.154 118.111 24.0547 118.111 25.1C118.111 26.1453 117.933 27.0507 117.579 27.816C117.224 28.572 116.734 29.1507 116.109 29.552C115.493 29.944 114.793 30.14 114.009 30.14ZM114.009 28.558C114.709 28.558 115.259 28.2687 115.661 27.69C116.071 27.1113 116.277 26.248 116.277 25.1C116.277 23.952 116.071 23.0887 115.661 22.51C115.259 21.9313 114.709 21.642 114.009 21.642C113.318 21.642 112.767 21.9313 112.357 22.51C111.955 23.0887 111.755 23.952 111.755 25.1C111.755 26.248 111.955 27.1113 112.357 27.69C112.767 28.2687 113.318 28.558 114.009 28.558ZM119.563 25.38H123.413V26.836H119.563V25.38ZM132.786 19.612V30H131.106V29.034C130.817 29.3887 130.458 29.6547 130.028 29.832C129.608 30.0093 129.142 30.098 128.628 30.098C127.91 30.098 127.261 29.9393 126.682 29.622C126.113 29.3047 125.665 28.8567 125.338 28.278C125.012 27.69 124.848 27.018 124.848 26.262C124.848 25.506 125.012 24.8387 125.338 24.26C125.665 23.6813 126.113 23.2333 126.682 22.916C127.261 22.5987 127.91 22.44 128.628 22.44C129.123 22.44 129.576 22.524 129.986 22.692C130.397 22.86 130.747 23.112 131.036 23.448V19.612H132.786ZM128.838 28.6C129.258 28.6 129.636 28.5067 129.972 28.32C130.308 28.124 130.574 27.8487 130.77 27.494C130.966 27.1393 131.064 26.7287 131.064 26.262C131.064 25.7953 130.966 25.3847 130.77 25.03C130.574 24.6753 130.308 24.4047 129.972 24.218C129.636 24.022 129.258 23.924 128.838 23.924C128.418 23.924 128.04 24.022 127.704 24.218C127.368 24.4047 127.102 24.6753 126.906 25.03C126.71 25.3847 126.612 25.7953 126.612 26.262C126.612 26.7287 126.71 27.1393 126.906 27.494C127.102 27.8487 127.368 28.124 127.704 28.32C128.04 28.5067 128.418 28.6 128.838 28.6ZM137.932 22.44C139.033 22.44 139.873 22.706 140.452 23.238C141.04 23.7607 141.334 24.554 141.334 25.618V30H139.682V29.09C139.467 29.4167 139.159 29.6687 138.758 29.846C138.366 30.014 137.89 30.098 137.33 30.098C136.77 30.098 136.28 30.0047 135.86 29.818C135.44 29.622 135.113 29.356 134.88 29.02C134.656 28.6747 134.544 28.2873 134.544 27.858C134.544 27.186 134.791 26.6493 135.286 26.248C135.79 25.8373 136.578 25.632 137.652 25.632H139.584V25.52C139.584 24.9973 139.425 24.596 139.108 24.316C138.8 24.036 138.338 23.896 137.722 23.896C137.302 23.896 136.886 23.9613 136.476 24.092C136.074 24.2227 135.734 24.4047 135.454 24.638L134.768 23.364C135.16 23.0653 135.631 22.8367 136.182 22.678C136.732 22.5193 137.316 22.44 137.932 22.44ZM137.694 28.824C138.132 28.824 138.52 28.726 138.856 28.53C139.201 28.3247 139.444 28.0353 139.584 27.662V26.794H137.778C136.77 26.794 136.266 27.1253 136.266 27.788C136.266 28.1053 136.392 28.3573 136.644 28.544C136.896 28.7307 137.246 28.824 137.694 28.824ZM150.443 22.524L146.943 30.602C146.616 31.414 146.22 31.9833 145.753 32.31C145.286 32.646 144.722 32.814 144.059 32.814C143.686 32.814 143.317 32.7533 142.953 32.632C142.589 32.5107 142.29 32.3427 142.057 32.128L142.757 30.84C142.925 30.9987 143.121 31.1247 143.345 31.218C143.578 31.3113 143.812 31.358 144.045 31.358C144.353 31.358 144.605 31.2787 144.801 31.12C145.006 30.9613 145.193 30.6953 145.361 30.322L145.487 30.028L142.225 22.524H144.045L146.397 28.054L148.763 22.524H150.443ZM157.562 21.74H154.314V20.2H162.63V21.74H159.382V30H157.562V21.74ZM165.316 23.616C165.82 22.832 166.707 22.44 167.976 22.44V24.106C167.827 24.078 167.691 24.064 167.57 24.064C166.889 24.064 166.357 24.2647 165.974 24.666C165.591 25.058 165.4 25.6273 165.4 26.374V30H163.65V22.524H165.316V23.616ZM169.461 22.524H171.211V30H169.461V22.524ZM170.343 21.292C170.025 21.292 169.759 21.194 169.545 20.998C169.33 20.7927 169.223 20.5407 169.223 20.242C169.223 19.9433 169.33 19.696 169.545 19.5C169.759 19.2947 170.025 19.192 170.343 19.192C170.66 19.192 170.926 19.29 171.141 19.486C171.355 19.6727 171.463 19.9107 171.463 20.2C171.463 20.508 171.355 20.7693 171.141 20.984C170.935 21.1893 170.669 21.292 170.343 21.292ZM176.363 22.44C177.465 22.44 178.305 22.706 178.883 23.238C179.471 23.7607 179.765 24.554 179.765 25.618V30H178.113V29.09C177.899 29.4167 177.591 29.6687 177.189 29.846C176.797 30.014 176.321 30.098 175.761 30.098C175.201 30.098 174.711 30.0047 174.291 29.818C173.871 29.622 173.545 29.356 173.311 29.02C173.087 28.6747 172.975 28.2873 172.975 27.858C172.975 27.186 173.223 26.6493 173.717 26.248C174.221 25.8373 175.01 25.632 176.083 25.632H178.015V25.52C178.015 24.9973 177.857 24.596 177.539 24.316C177.231 24.036 176.769 23.896 176.153 23.896C175.733 23.896 175.318 23.9613 174.907 24.092C174.506 24.2227 174.165 24.4047 173.885 24.638L173.199 23.364C173.591 23.0653 174.063 22.8367 174.613 22.678C175.164 22.5193 175.747 22.44 176.363 22.44ZM176.125 28.824C176.564 28.824 176.951 28.726 177.287 28.53C177.633 28.3247 177.875 28.0353 178.015 27.662V26.794H176.209C175.201 26.794 174.697 27.1253 174.697 27.788C174.697 28.1053 174.823 28.3573 175.075 28.544C175.327 28.7307 175.677 28.824 176.125 28.824ZM182.011 19.612H183.761V30H182.011V19.612Z" fill="white"/>
</svg>
