<svg width="155" height="49" viewBox="0 0 155 49" fill="none" xmlns="http://www.w3.org/2000/svg">
<path d="M0 4C0 1.79086 1.79086 0 4 0H151C153.209 0 155 1.79086 155 4V45C155 47.2091 153.209 49 151 49H4C1.79086 49 0 47.2091 0 45V4Z" fill="#941759"/>
<path d="M29.6731 21.74H26.4251V20.2H34.7411V21.74H31.4931V30H29.6731V21.74ZM42.519 30L40.517 27.13C40.433 27.1393 40.307 27.144 40.139 27.144H37.927V30H36.107V20.2H40.139C40.9883 20.2 41.7257 20.34 42.351 20.62C42.9857 20.9 43.471 21.3013 43.807 21.824C44.143 22.3467 44.311 22.9673 44.311 23.686C44.311 24.4233 44.129 25.058 43.765 25.59C43.4103 26.122 42.897 26.5187 42.225 26.78L44.479 30H42.519ZM42.477 23.686C42.477 23.0607 42.2717 22.58 41.861 22.244C41.4503 21.908 40.8483 21.74 40.055 21.74H37.927V25.646H40.055C40.8483 25.646 41.4503 25.478 41.861 25.142C42.2717 24.7967 42.477 24.3113 42.477 23.686ZM50.4385 26.542V30H48.6185V26.57L44.7685 20.2H46.7145L49.5845 24.974L52.4825 20.2H54.2745L50.4385 26.542ZM61.1555 21.726V24.708H65.8875V26.248H61.1555V30H59.3355V20.2H66.4895V21.726H61.1555ZM72.7182 30.14C71.7196 30.14 70.8189 29.9253 70.0162 29.496C69.2136 29.0573 68.5836 28.4553 68.1262 27.69C67.6689 26.9153 67.4402 26.052 67.4402 25.1C67.4402 24.148 67.6689 23.2893 68.1262 22.524C68.5836 21.7493 69.2136 21.1473 70.0162 20.718C70.8189 20.2793 71.7196 20.06 72.7182 20.06C73.7169 20.06 74.6176 20.2793 75.4202 20.718C76.2229 21.1473 76.8529 21.7447 77.3102 22.51C77.7676 23.2753 77.9962 24.1387 77.9962 25.1C77.9962 26.0613 77.7676 26.9247 77.3102 27.69C76.8529 28.4553 76.2229 29.0573 75.4202 29.496C74.6176 29.9253 73.7169 30.14 72.7182 30.14ZM72.7182 28.544C73.3716 28.544 73.9596 28.3993 74.4822 28.11C75.0049 27.8113 75.4156 27.4007 75.7142 26.878C76.0129 26.346 76.1622 25.7533 76.1622 25.1C76.1622 24.4467 76.0129 23.8587 75.7142 23.336C75.4156 22.804 75.0049 22.3933 74.4822 22.104C73.9596 21.8053 73.3716 21.656 72.7182 21.656C72.0649 21.656 71.4769 21.8053 70.9542 22.104C70.4316 22.3933 70.0209 22.804 69.7222 23.336C69.4236 23.8587 69.2742 24.4467 69.2742 25.1C69.2742 25.7533 69.4236 26.346 69.7222 26.878C70.0209 27.4007 70.4316 27.8113 70.9542 28.11C71.4769 28.3993 72.0649 28.544 72.7182 28.544ZM86.3374 30L84.3354 27.13C84.2514 27.1393 84.1254 27.144 83.9574 27.144H81.7454V30H79.9254V20.2H83.9574C84.8067 20.2 85.544 20.34 86.1694 20.62C86.804 20.9 87.2894 21.3013 87.6254 21.824C87.9614 22.3467 88.1294 22.9673 88.1294 23.686C88.1294 24.4233 87.9474 25.058 87.5834 25.59C87.2287 26.122 86.7154 26.5187 86.0434 26.78L88.2974 30H86.3374ZM86.2954 23.686C86.2954 23.0607 86.09 22.58 85.6794 22.244C85.2687 21.908 84.6667 21.74 83.8734 21.74H81.7454V25.646H83.8734C84.6667 25.646 85.2687 25.478 85.6794 25.142C86.09 24.7967 86.2954 24.3113 86.2954 23.686ZM95.8548 21.726V24.708H100.587V26.248H95.8548V30H94.0348V20.2H101.189V21.726H95.8548ZM109.361 30L107.359 27.13C107.275 27.1393 107.149 27.144 106.981 27.144H104.769V30H102.949V20.2H106.981C107.83 20.2 108.567 20.34 109.193 20.62C109.827 20.9 110.313 21.3013 110.649 21.824C110.985 22.3467 111.153 22.9673 111.153 23.686C111.153 24.4233 110.971 25.058 110.607 25.59C110.252 26.122 109.739 26.5187 109.067 26.78L111.321 30H109.361ZM109.319 23.686C109.319 23.0607 109.113 22.58 108.703 22.244C108.292 21.908 107.69 21.74 106.897 21.74H104.769V25.646H106.897C107.69 25.646 108.292 25.478 108.703 25.142C109.113 24.7967 109.319 24.3113 109.319 23.686ZM120.539 28.474V30H113.189V20.2H120.343V21.726H115.009V24.274H119.741V25.772H115.009V28.474H120.539ZM129.918 28.474V30H122.568V20.2H129.722V21.726H124.388V24.274H129.12V25.772H124.388V28.474H129.918Z" fill="white"/>
</svg>
