<svg width="63" height="53" viewBox="0 0 63 53" fill="none" xmlns="http://www.w3.org/2000/svg">
<path fill-rule="evenodd" clip-rule="evenodd" d="M9.41936 21.9876C5.98662 23.656 4.55628 27.7912 6.22462 31.2239L12.1335 43.382C13.8018 46.8147 17.937 48.2451 21.3698 46.5767L52.9807 31.2137C56.4134 29.5453 57.8437 25.4101 56.1754 21.9774L50.2665 9.81934C48.5982 6.3866 44.463 4.95626 41.0302 6.62459L9.41936 21.9876ZM4.06604 32.273C1.81832 27.6481 3.7454 22.0768 8.37029 19.8291L39.9812 4.46602C44.606 2.2183 50.1774 4.14537 52.4251 8.77026L58.334 20.9283C60.5817 25.5532 58.6546 31.1245 54.0297 33.3722L22.4189 48.7353C17.794 50.983 12.2226 49.0559 9.97491 44.4311L4.06604 32.273Z" fill="#941759"/>
<path fill-rule="evenodd" clip-rule="evenodd" d="M18.7367 36.0084C17.9898 36.3714 17.6786 37.2711 18.0416 38.018L19.2234 40.4496C19.5863 41.1964 20.486 41.5076 21.2329 41.1447L26.0961 38.7811C26.843 38.4181 27.1542 37.5184 26.7912 36.7716L25.6094 34.34C25.2464 33.5931 24.3467 33.2819 23.5999 33.6449L18.7367 36.0084ZM15.883 39.067C14.9406 37.128 15.7486 34.7922 17.6876 33.8498L22.5508 31.4863C24.4898 30.5439 26.8256 31.3519 27.768 33.2909L28.9498 35.7225C29.8921 37.6615 29.0842 39.9973 27.1452 40.9397L22.282 43.3032C20.343 44.2456 18.0072 43.4377 17.0648 41.4986L15.883 39.067Z" fill="#941759"/>
<path fill-rule="evenodd" clip-rule="evenodd" d="M50.9621 9.55143L5.36185 31.7117L4.31284 29.5531L49.913 7.39282L50.9621 9.55143Z" fill="#941759"/>
<path fill-rule="evenodd" clip-rule="evenodd" d="M53.1879 14.1208L7.57869 36.2811L6.52985 34.1224L52.1391 11.9622L53.1879 14.1208Z" fill="#941759"/>
<path fill-rule="evenodd" clip-rule="evenodd" d="M40.3815 25.1668C40.6775 25.7598 40.4367 26.4804 39.8437 26.7764L32.4759 30.4536C31.8829 30.7496 31.1623 30.5088 30.8663 29.9158C30.5704 29.3228 30.8111 28.6022 31.4041 28.3062L38.7719 24.629C39.3649 24.333 40.0856 24.5738 40.3815 25.1668Z" fill="#941759"/>
<path fill-rule="evenodd" clip-rule="evenodd" d="M51.1955 19.7593C51.4919 20.3521 51.2516 21.0729 50.6588 21.3693L43.4493 24.974C42.8565 25.2704 42.1357 25.0302 41.8393 24.4374C41.5429 23.8446 41.7832 23.1238 42.376 22.8274L49.5855 19.2227C50.1783 18.9263 50.8991 19.1665 51.1955 19.7593Z" fill="#941759"/>
<path fill-rule="evenodd" clip-rule="evenodd" d="M51.616 26.7021C51.9057 27.2982 51.6573 28.0163 51.0612 28.3059L48.3733 29.6122C47.7772 29.9019 47.0592 29.6535 46.7695 29.0574C46.4798 28.4613 46.7282 27.7433 47.3243 27.4536L50.0122 26.1473C50.6083 25.8577 51.3263 26.106 51.616 26.7021ZM45.3442 29.7501C45.6339 30.3461 45.3855 31.0642 44.7894 31.3539L41.2055 33.0955C40.6094 33.3852 39.8914 33.1368 39.6017 32.5407C39.312 31.9447 39.5604 31.2266 40.1565 30.9369L43.7404 29.1953C44.3365 28.9056 45.0545 29.154 45.3442 29.7501ZM37.2804 33.6688C37.5701 34.2649 37.3217 34.9829 36.7257 35.2726L34.0377 36.5789C33.4417 36.8685 32.7236 36.6202 32.4339 36.0241C32.1443 35.428 32.3926 34.7099 32.9887 34.4203L35.6766 33.114C36.2727 32.8243 36.9908 33.0727 37.2804 33.6688Z" fill="#941759"/>
</svg>
