<svg width="55" height="53" viewBox="0 0 55 53" fill="none" xmlns="http://www.w3.org/2000/svg">
<path fill-rule="evenodd" clip-rule="evenodd" d="M21.2 0.800049C17.8863 0.800049 15.2 3.48634 15.2 6.80005V15.6C15.2 15.6224 15.2006 15.6447 15.2018 15.6668C9.56454 17.1617 5.32299 22.0853 4.84494 28.0699C3.64692 28.224 2.75744 28.6255 2.1061 29.2002C1.29581 29.9152 1.01049 30.7729 0.870597 31.1935L0.861568 31.2206C0.820781 31.3429 0.799988 31.4711 0.799988 31.6V36.4001C0.799988 37.1084 1.13145 37.6886 1.4979 38.1064C1.86695 38.5271 2.34151 38.8674 2.82174 39.1315C3.76959 39.6528 4.96684 40 6.00007 40C6.66281 40 7.20007 39.4628 7.20007 38.8V29.2001L7.2 29.1864C7.20038 28.8513 7.21497 28.5196 7.2432 28.1917C7.94342 28.3619 8.76087 28.4696 9.61516 28.523C10.8892 28.6026 12.3393 28.5669 13.7846 28.3915C15.2264 28.2166 16.6986 27.8982 18.0024 27.3947C19.2916 26.8967 20.5126 26.1805 21.3371 25.1499C21.443 25.0175 21.5427 24.888 21.6365 24.7619C21.838 25.118 22.0706 25.444 22.3318 25.7407C23.1284 26.6454 24.1307 27.2102 25.1553 27.557C26.9237 28.1554 28.885 28.1447 30.3428 28.0414C30.3802 28.4181 30.3995 28.8 30.4 29.1864L30.3999 29.2001V37.2456C30.3806 42.2636 27.1751 46.5302 22.7015 48.1276C22.2904 47.7975 21.7682 47.6 21.2 47.6H18C16.6745 47.6 15.6 48.6746 15.6 50C15.6 51.3255 16.6745 52.4001 18 52.4001H21.2C22.4012 52.4001 23.3963 51.5176 23.5723 50.3656C28.1289 48.7135 31.584 44.7633 32.5368 39.9155C33.3112 39.7824 34.1072 39.5006 34.7782 39.1315C35.2585 38.8674 35.733 38.5271 36.1021 38.1064C36.4685 37.6886 36.8 37.1084 36.8 36.4001V31.6C36.8 31.4711 36.7792 31.3429 36.7384 31.2206L36.7294 31.1935C36.5895 30.7729 36.3042 29.9152 35.4939 29.2002C34.8425 28.6255 33.9531 28.224 32.755 28.0699C32.6767 27.0892 32.4973 26.1369 32.2272 25.2236H39.4848C40.4475 25.2236 41.3701 25.6092 42.0465 26.2942L44.9276 29.2122C46.5622 30.8676 49.3818 29.7102 49.3818 27.3837V25.6856C49.3818 24.9626 49.9679 24.3765 50.6909 24.3765C52.7394 24.3765 54.4 22.7159 54.4 20.6674V6.80005C54.4 3.48634 51.7137 0.800049 48.4 0.800049H21.2ZM29.8522 25.6673C28.3579 20.9883 23.9746 17.6 18.8 17.6C13.5651 17.6 9.14017 21.0676 7.69675 25.8312C8.20416 25.9649 8.90845 26.0741 9.76486 26.1276C10.8908 26.198 12.194 26.167 13.4954 26.009C14.8003 25.8507 16.0681 25.569 17.1377 25.1559C18.2218 24.7371 19.0074 24.22 19.463 23.6506C20.186 22.7468 20.536 22.0396 20.7034 21.6628C20.7382 21.5847 20.7646 21.5219 20.7898 21.462L20.7898 21.462L20.8107 21.4127C20.8244 21.3802 20.8443 21.3336 20.8649 21.2895L20.866 21.2872C20.8755 21.2664 20.936 21.1342 21.0381 21.0067L21.0408 21.0032C21.0734 20.9616 21.297 20.6759 21.7153 20.58C21.9937 20.5163 22.3013 20.5507 22.574 20.7038C22.8152 20.8392 22.9493 21.0223 23.014 21.1284C23.1302 21.3189 23.164 21.4966 23.1721 21.5394L23.1721 21.5394L23.1726 21.5418C23.1856 21.6098 23.1908 21.667 23.1932 21.6978C23.1987 21.7676 23.1998 21.8531 23.2 21.9224C23.3406 22.9535 23.6947 23.6568 24.1332 24.1548C24.5883 24.6718 25.196 25.037 25.9247 25.2836C27.1446 25.6964 28.5796 25.7374 29.8522 25.6673ZM31.2738 22.8371C31.3328 22.8282 31.3931 22.8236 31.4545 22.8236H39.4848C41.0893 22.8236 42.627 23.4662 43.7543 24.608L46.6354 27.5259C46.6792 27.5703 46.7136 27.5819 46.7384 27.5863C46.7698 27.5919 46.8117 27.5892 46.8563 27.5709C46.9008 27.5527 46.9325 27.5251 46.951 27.499C46.9655 27.4785 46.9818 27.4461 46.9818 27.3837V25.6856C46.9818 23.6371 48.6424 21.9765 50.6909 21.9765C51.4139 21.9765 52 21.3904 52 20.6674V6.80005C52 4.81182 50.3882 3.20005 48.4 3.20005H21.2C19.2118 3.20005 17.6 4.81182 17.6 6.80005V15.2508C17.9955 15.2172 18.3958 15.2 18.8 15.2C24.2408 15.2 28.9567 18.3037 31.2738 22.8371ZM32.8 37.2L32.7999 37.2501V37.3819C33.0814 37.2898 33.3634 37.1706 33.6217 37.0286C33.9414 36.8527 34.1669 36.673 34.2979 36.5237C34.3673 36.4446 34.3921 36.3958 34.4 36.3769V31.8013C34.289 31.4908 34.1631 31.2267 33.906 30.9999C33.7187 30.8346 33.3909 30.6306 32.7999 30.5081V37.2H32.8ZM3.19999 36.3769V31.8013C3.311 31.4908 3.43686 31.2267 3.69396 30.9999C3.88125 30.8346 4.20903 30.6306 4.80007 30.5081V37.3819C4.51854 37.2898 4.23662 37.1706 3.97832 37.0286C3.65853 36.8527 3.43306 36.673 3.3021 36.5237C3.23268 36.4446 3.20784 36.3958 3.19999 36.3769ZM15.1059 39.934C14.8526 39.3324 14.1629 39.0424 13.5543 39.2858C12.939 39.5319 12.6397 40.2303 12.8858 40.8456L14 40.4C12.8858 40.8456 12.8861 40.8464 12.8865 40.8472L12.8871 40.8488L12.8884 40.8521L12.8915 40.8595L12.8988 40.877C12.9043 40.8898 12.9109 40.905 12.9188 40.9224C12.9345 40.9571 12.9553 41.0008 12.9816 41.0519C13.0342 41.1541 13.1093 41.2873 13.2116 41.4406C13.4159 41.7472 13.7307 42.1376 14.1918 42.5218C15.1331 43.3063 16.6067 44 18.8 44C20.9933 44 22.4669 43.3063 23.4082 42.5218C23.8693 42.1376 24.1841 41.7472 24.3885 41.4406C24.4907 41.2873 24.5658 41.1541 24.6184 41.0519C24.6447 41.0008 24.6655 40.9571 24.6812 40.9224C24.6891 40.905 24.6958 40.8898 24.7012 40.877L24.7085 40.8595L24.7116 40.8521L24.7129 40.8488L24.7136 40.8472C24.7139 40.8464 24.7142 40.8456 23.6 40.4L24.7142 40.8456C24.9603 40.2303 24.661 39.5319 24.0457 39.2858C23.4371 39.0424 22.7474 39.3324 22.4942 39.934C22.4925 39.9375 22.4892 39.9444 22.4841 39.9543C22.4692 39.9833 22.4393 40.0377 22.3916 40.1093C22.2959 40.2528 22.1307 40.4624 21.8718 40.6781C21.3731 41.0937 20.4467 41.6 18.8 41.6C17.1533 41.6 16.2269 41.0937 15.7282 40.6781C15.4693 40.4624 15.3041 40.2528 15.2085 40.1093C15.1607 40.0377 15.1308 39.9833 15.1159 39.9543L15.1082 39.939L15.1059 39.934ZM37.6 10C37.6 9.33731 38.1372 8.80005 38.8 8.80005L46.8 8.80005C47.4627 8.80005 48 9.33731 48 10.0001C48 10.6628 47.4627 11.2001 46.8 11.2001L38.8 11.2C38.1372 11.2 37.6 10.6628 37.6 10ZM22.8 11.2001H34C34.6627 11.2001 35.2 10.6628 35.2 10C35.2 9.33731 34.6627 8.80005 34 8.80005H22.8C22.1372 8.80005 21.6 9.33731 21.6 10C21.6 10.6628 22.1372 11.2001 22.8 11.2001ZM31.2 16.4C31.2 15.7373 31.7372 15.2 32.4 15.2L46.8 15.2001C47.4627 15.2001 48 15.7373 48 16.4001C48 17.0628 47.4627 17.6 46.8 17.6H32.4C31.7372 17.6 31.2 17.0628 31.2 16.4ZM14.8 34C15.6836 34 16.4 33.2837 16.4 32.4001C16.4 31.5164 15.6836 30.8 14.8 30.8C13.9163 30.8 13.2 31.5164 13.2 32.4001C13.2 33.2837 13.9163 34 14.8 34ZM24.4 32.4001C24.4 33.2837 23.6836 34 22.8 34C21.9163 34 21.2 33.2837 21.2 32.4001C21.2 31.5164 21.9163 30.8 22.8 30.8C23.6836 30.8 24.4 31.5164 24.4 32.4001Z" fill="#941759"/>
</svg>
