<svg width="53" height="53" viewBox="0 0 53 53" fill="none" xmlns="http://www.w3.org/2000/svg">
<path fill-rule="evenodd" clip-rule="evenodd" d="M2.6 26.6C2.6 13.3451 13.3452 2.59995 26.6 2.59995C39.8548 2.59995 50.6 13.3451 50.6 26.6C50.6 39.8548 39.8548 50.6 26.6 50.6C13.3452 50.6 2.6 39.8548 2.6 26.6ZM26.6 0.199951C12.0197 0.199951 0.199997 12.0196 0.199997 26.6C0.199997 41.1803 12.0197 53 26.6 53C41.1803 53 53 41.1803 53 26.6C53 12.0196 41.1803 0.199951 26.6 0.199951ZM6.72749 26.5997C6.72749 15.6245 15.6247 6.72729 26.5999 6.72729C37.5751 6.72729 46.4723 15.6245 46.4723 26.5997C46.4723 37.5749 37.5751 46.4721 26.5999 46.4721C15.6247 46.4721 6.72749 37.5749 6.72749 26.5997ZM26.5999 4.3273C14.2992 4.3273 4.32749 14.299 4.32749 26.5997C4.32749 38.9004 14.2992 48.8721 26.5999 48.8721C38.9006 48.8721 48.8723 38.9004 48.8723 26.5997C48.8723 14.299 38.9006 4.3273 26.5999 4.3273ZM26.6 17.2468C27.2627 17.2468 27.8 17.7841 27.8 18.4468V28.8744C27.8 29.5372 27.2627 30.0744 26.6 30.0744C26.4273 30.0744 26.2631 30.0379 26.1147 29.9723C25.6738 29.9627 25.2547 29.7094 25.0542 29.2832L18.1024 14.5108C17.8202 13.9111 18.0776 13.1963 18.6773 12.9141C19.2769 12.6319 19.9918 12.8892 20.274 13.4889L25.4 24.3816V18.4468C25.4 17.7841 25.9373 17.2468 26.6 17.2468ZM25.8527 11.8014C26.5726 11.8014 27.1562 11.2178 27.1562 10.4979C27.1562 9.77806 26.5726 9.19448 25.8527 9.19448C25.1328 9.19448 24.5493 9.77806 24.5493 10.4979C24.5493 11.2178 25.1328 11.8014 25.8527 11.8014ZM27.1562 43.5186C27.1562 44.2385 26.5726 44.8221 25.8527 44.8221C25.1328 44.8221 24.5493 44.2385 24.5493 43.5186C24.5493 42.7988 25.1328 42.2152 25.8527 42.2152C26.5726 42.2152 27.1562 42.7988 27.1562 43.5186ZM43.232 28.3119C43.9519 28.3119 44.5355 27.7284 44.5355 27.0085C44.5355 26.2886 43.9519 25.705 43.232 25.705C42.5121 25.705 41.9286 26.2886 41.9286 27.0085C41.9286 27.7284 42.5121 28.3119 43.232 28.3119ZM11.5148 27.0085C11.5148 27.7284 10.9312 28.3119 10.2113 28.3119C9.49143 28.3119 8.90786 27.7284 8.90786 27.0085C8.90786 26.2886 9.49143 25.705 10.2113 25.705C10.9312 25.705 11.5148 26.2886 11.5148 27.0085ZM13.687 17.8842C14.4069 17.8842 14.9905 17.3006 14.9905 16.5807C14.9905 15.8609 14.4069 15.2773 13.687 15.2773C12.9671 15.2773 12.3836 15.8609 12.3836 16.5807C12.3836 17.3006 12.9671 17.8842 13.687 17.8842ZM15.8596 38.305C15.8596 39.0248 15.276 39.6084 14.5561 39.6084C13.8362 39.6084 13.2527 39.0248 13.2527 38.305C13.2527 37.5851 13.8362 37.0015 14.5561 37.0015C15.276 37.0015 15.8596 37.5851 15.8596 38.305ZM38.0183 39.6084C38.7381 39.6084 39.3217 39.0248 39.3217 38.305C39.3217 37.5851 38.7381 37.0015 38.0183 37.0015C37.2984 37.0015 36.7148 37.5851 36.7148 38.305C36.7148 39.0248 37.2984 39.6084 38.0183 39.6084ZM41.0596 16.5807C41.0596 17.3006 40.476 17.8842 39.7561 17.8842C39.0362 17.8842 38.4527 17.3006 38.4527 16.5807C38.4527 15.8609 39.0362 15.2773 39.7561 15.2773C40.476 15.2773 41.0596 15.8609 41.0596 16.5807Z" fill="#941759"/>
</svg>
