<svg width="509" height="428" viewBox="0 0 509 428" fill="none" xmlns="http://www.w3.org/2000/svg">
<path fill-rule="evenodd" clip-rule="evenodd" d="M55.086 87.8708C89.0348 50.9041 143.799 48.922 191.481 33.1572C233.328 19.3215 273.106 -6.32855 316.522 1.43316C360.605 9.31407 393.926 42.7312 425.066 74.9166C457.329 108.262 487.419 144.179 498.254 189.263C510.159 238.803 517.176 296.054 488.285 337.978C459.821 379.283 401.779 381.868 354.301 398.155C311.758 412.75 271.046 429.185 226.064 427.933C172.712 426.448 115.549 424.398 74.4134 390.365C30.5616 354.086 4.0193 297.972 0.3939 241.23C-3.15503 185.686 17.4535 128.849 55.086 87.8708Z" fill="#F2FBDD"/>
</svg>
