<svg width="11" height="18" viewBox="0 0 11 18" fill="none" xmlns="http://www.w3.org/2000/svg">
<path d="M6 0.75C6 0.335787 5.66421 3.62117e-08 5.25 0C4.83579 -3.62117e-08 4.5 0.335787 4.5 0.75V2.01358C2.92841 2.10135 1.87187 2.60523 1.19216 3.25742C0.466592 3.95361 0.223537 4.77245 0.223537 5.24878C0.223538 6.20613 0.47587 7.06698 1.2653 7.80802C1.99933 8.49705 3.14413 9.02821 4.7752 9.53473C6.37641 10.032 7.27462 10.4435 7.80523 10.8543C8.22638 11.1804 8.4161 11.677 8.45647 12.1937C8.45647 12.712 8.37048 13.1574 7.96093 13.5652C7.45881 14.0653 6.75231 14.5576 5.25224 14.4946C3.64041 14.4268 2.72521 14.0494 2.21536 13.5865C1.72602 13.1422 1.5 12.5176 1.5 11.6742C1.5 11.26 1.16421 10.9242 0.75 10.9242C0.335786 10.9242 3.62117e-08 11.26 0 11.6742C-9.79068e-08 12.7941 0.310475 13.883 1.20706 14.697C1.96639 15.3864 3.05933 15.7981 4.5 15.9445V17.25C4.5 17.6642 4.83579 18 5.25 18C5.66421 18 6 17.6642 6 17.25V15.9823C7.45376 15.8758 8.46226 15.2994 9.10878 14.5309C9.83706 13.6652 10.046 12.5271 9.99484 11.8726C9.92365 10.9615 9.5089 10.1722 8.68549 9.53473C7.92504 8.946 6.83746 8.60448 5.22006 8.10221C3.63251 7.60921 2.76527 7.15871 2.29191 6.71436C1.87394 6.32202 1.72573 6.01949 1.72573 5.45312V5.30273C1.72573 5.26953 1.72768 5.23828 1.74011 5.16211C1.75362 5.10245 1.78046 4.99582 1.81824 4.9082C1.89344 4.73377 2.01755 4.54427 2.23068 4.33977C2.64417 3.94302 3.4494 3.5 4.99763 3.5C6.51551 3.5 7.36327 3.99705 7.83841 4.52396C8.33507 5.07474 8.49484 5.73587 8.49484 6.1412C8.49484 6.55542 8.83063 6.8912 9.24484 6.8912C9.65906 6.8912 9.99484 6.55542 9.99484 6.1412C9.99484 5.41613 9.72989 4.38166 8.95239 3.51944C8.30443 2.80088 7.34292 2.24853 6 2.06535V0.75Z" fill="#79808D"/>
</svg>
