<svg width="18" height="20" viewBox="0 0 18 20" fill="none" xmlns="http://www.w3.org/2000/svg">
<path fill-rule="evenodd" clip-rule="evenodd" d="M9.90697 19.7271L9.50694 19.7497L6.315 15.5153L3.88548 12.2514C3.50356 12.5502 3.02264 12.7283 2.50012 12.7283C1.25748 12.7283 0.250124 11.721 0.250124 10.4783L0.250122 2.97831C0.250122 1.73567 1.25748 0.728315 2.50012 0.728315C3.20601 0.728315 3.83597 1.05337 4.24849 1.56196C4.44539 1.41542 4.65579 1.29557 4.86429 1.19945C5.64724 0.838529 6.54855 0.728271 7.14184 0.728271L14.2631 0.728271C15.1403 0.728269 15.772 1.18927 16.1746 1.68351C16.5677 2.16616 16.7885 2.7293 16.8788 3.11954L16.8866 3.15332L16.8913 3.18768C17.1004 4.72731 17.5629 8.22589 17.7319 9.84887C17.8425 10.9111 17.4374 11.6742 16.8161 12.1371C16.2464 12.5617 15.5609 12.688 15.1009 12.688L11.4216 12.688C11.7749 13.6608 12.2899 15.1337 12.5792 16.5227C12.8173 17.666 12.6379 18.578 11.9224 19.1442C11.3125 19.627 10.4748 19.695 9.90697 19.7271ZM4.75012 3.48827C4.75012 3.48877 4.75012 3.48926 4.75012 3.48976L4.75012 10.4783C4.75012 10.4793 4.75012 10.4803 4.75012 10.4813L4.75012 10.9008L7.51282 14.6123L10.2154 18.1976C10.6011 18.1543 10.8473 18.0821 10.9915 17.968C11.0742 17.9026 11.2915 17.6967 11.1107 16.8285C10.8127 15.3976 10.2954 13.9826 9.94325 13.0193C9.81376 12.6651 9.70659 12.372 9.64088 12.1617L9.33674 11.188L15.1009 11.188C15.339 11.188 15.6798 11.1132 15.9199 10.9343C16.1085 10.7938 16.2969 10.5512 16.2399 10.0042C16.0752 8.42178 15.6222 4.99059 15.4101 3.42761C15.3555 3.21331 15.2227 2.89001 15.0116 2.63079C14.7997 2.37072 14.5588 2.22827 14.2631 2.22827L7.14184 2.22827C6.68789 2.22827 6.01835 2.31916 5.49225 2.56168C4.9771 2.79916 4.75069 3.09505 4.75012 3.48827ZM3.25012 3.48735L3.25012 2.97831C3.25012 2.5641 2.91434 2.22831 2.50012 2.22831C2.08591 2.22831 1.75012 2.5641 1.75012 2.97831L1.75012 10.4783C1.75012 10.8925 2.08591 11.2283 2.50012 11.2283C2.91375 11.2283 3.24917 10.8935 3.25012 10.4801L3.25012 3.48976C3.25012 3.48896 3.25012 3.48815 3.25012 3.48735Z" fill="#79808D"/>
</svg>
