<svg width="23" height="24" viewBox="0 0 23 24" fill="none" xmlns="http://www.w3.org/2000/svg">
<path fill-rule="evenodd" clip-rule="evenodd" d="M6.4789 5.80699C7.02247 4.77949 7.69263 3.82886 8.47095 2.97585C7.09911 3.43702 5.86721 4.20282 4.85564 5.19284C5.30787 5.55644 5.79013 5.88096 6.29721 6.1629C6.35599 6.04349 6.41656 5.92484 6.4789 5.80699ZM5.70692 7.54975C5.057 7.19974 4.44151 6.78926 3.86863 6.32379C2.83436 7.71627 2.17218 9.40161 2.02917 11.2327H4.92402C5.01423 9.97334 5.27814 8.73407 5.70692 7.54975ZM3.97306 17.7796C2.87898 16.3611 2.17694 14.6248 2.02917 12.7327H4.89899C4.95031 14.0781 5.19976 15.4064 5.63736 16.6753C5.05222 16.9955 4.49544 17.365 3.97306 17.7796ZM7.00509 16.0373C6.65253 14.9706 6.44846 13.8586 6.40021 12.7327H10.75V15.2446C9.46742 15.3023 8.20226 15.5699 7.00509 16.0373ZM10.75 16.7463C9.65849 16.8027 8.58232 17.0333 7.56249 17.4299C7.61007 17.5304 7.65906 17.6304 7.70946 17.7297C8.39069 19.0723 9.47907 20.1226 10.75 21.1098V16.7463ZM12.25 20.9062V16.7789C13.2445 16.8736 14.2216 17.1134 15.1496 17.492C15.1114 17.5716 15.0723 17.6508 15.0322 17.7297C14.3976 18.9804 13.4097 19.9775 12.25 20.9062ZM12.25 15.273V12.7327H16.3415C16.2923 13.8816 16.0808 15.0159 15.7148 16.1025C14.6071 15.6508 13.4386 15.3716 12.25 15.273ZM12.25 11.2327H16.3134C16.2276 10.1671 16.002 9.11844 15.6435 8.11359C14.557 8.54835 13.4131 8.81778 12.25 8.91431V11.2327ZM12.25 7.40839C13.2102 7.31695 14.154 7.0903 15.0533 6.73407C15.0153 6.6585 14.9765 6.58328 14.9369 6.50842C14.2517 5.21326 13.3406 4.05506 12.25 3.08631V7.40839ZM10.75 2.86324V7.44094C9.69267 7.38638 8.64972 7.1683 7.65844 6.79411C7.70594 6.69832 7.75472 6.60308 7.8048 6.50842C8.54337 5.1123 9.54449 3.87533 10.75 2.86324ZM10.75 8.94268V11.2327H6.42834C6.51232 10.1896 6.7302 9.16273 7.07567 8.17729C8.25194 8.62781 9.49259 8.8861 10.75 8.94268ZM17.0742 16.7617C17.5305 15.4668 17.7902 14.1087 17.8427 12.7327H20.9708C20.8153 14.7237 20.0461 16.5423 18.8521 17.9995C18.2986 17.5328 17.7034 17.1185 17.0742 16.7617ZM17.8177 11.2327H20.9708C20.82 9.30124 20.0915 7.53196 18.958 6.09748C18.3543 6.61876 17.6995 7.07695 17.0038 7.46516C17.4509 8.67501 17.7253 9.94333 17.8177 11.2327ZM17.9377 4.9965C17.4604 5.40443 16.9469 5.76739 16.4038 6.08098C16.3579 5.98919 16.3109 5.89785 16.2628 5.80699C15.6949 4.73344 14.9887 3.7438 14.1655 2.86174C15.5897 3.27726 16.8756 4.01733 17.9377 4.9965ZM8.2302 20.905C7.01091 20.4581 5.90873 19.7683 4.98225 18.8943C5.37064 18.592 5.78031 18.318 6.20805 18.0745C6.26108 18.1865 6.31566 18.2978 6.37179 18.4084C6.85696 19.3646 7.5042 20.1812 8.2302 20.905ZM16.3699 18.4084C16.412 18.3255 16.4531 18.2423 16.4934 18.1587C16.9559 18.432 17.3963 18.7413 17.8106 19.084C16.8266 19.9591 15.6594 20.6328 14.3738 21.0403C15.1556 20.2833 15.8543 19.4246 16.3699 18.4084ZM0.5 11.9827C0.5 6.17737 4.99718 1.42239 10.6978 1.01153C10.7266 0.991224 10.7554 0.971023 10.7844 0.950928L10.8208 1.00335C11.0454 0.98967 11.2719 0.982727 11.5 0.982727C11.6438 0.982727 11.787 0.985488 11.9295 0.990959L11.9573 0.950928L12.0201 0.994808C17.8538 1.26637 22.5 6.08195 22.5 11.9827C22.5 17.8882 17.8464 22.7067 12.0062 22.9713L11.8985 23.0491L11.8469 22.9774C11.7317 22.9809 11.6161 22.9827 11.5 22.9827C11.2995 22.9827 11.1003 22.9774 10.9025 22.9668L10.8432 23.0491L10.713 22.955C5.00517 22.5515 0.5 17.7932 0.5 11.9827Z" fill="#941759"/>
</svg>
