<svg width="20" height="15" viewBox="0 0 20 15" fill="none" xmlns="http://www.w3.org/2000/svg">
<path fill-rule="evenodd" clip-rule="evenodd" d="M2.72656 0.5C1.35017 0.5 0.234375 1.61579 0.234375 2.99219V12.5078C0.234375 13.8842 1.35017 15 2.72656 15H16.7734C18.1498 15 19.2656 13.8842 19.2656 12.5078V2.99219C19.2656 1.61579 18.1498 0.5 16.7734 0.5H2.72656ZM1.59375 2.99219C1.59375 2.36655 2.10093 1.85938 2.72656 1.85938H16.7734C17.3991 1.85938 17.9062 2.36655 17.9062 2.99219V4.5799L9.96992 7.92151L1.59375 4.57104V2.99219ZM1.59375 6.03513V12.5078C1.59375 13.1334 2.10093 13.6406 2.72656 13.6406H16.7734C17.3991 13.6406 17.9062 13.1334 17.9062 12.5078V6.05486L9.98316 9.3909L1.59375 6.03513Z" fill="#79808D"/>
</svg>
