<svg width="32" height="23" viewBox="0 0 32 23" fill="none" xmlns="http://www.w3.org/2000/svg">
<g clip-path="url(#clip0_323_1226)">
<path d="M31.3058 0.48909C30.9049 0.167326 30.4037 -0.00555737 29.8885 0.00013627C29.2142 0.00523574 28.5517 0.176527 27.9602 0.498677C26.273 1.39989 25.6559 3.26942 25.0678 5.08142C24.8557 5.72377 24.6339 6.3853 24.364 6.99889L23.0913 5.08142L22.9178 4.83215C22.7924 4.65288 22.6041 4.52684 22.3899 4.47892C22.1757 4.43099 21.9512 4.46467 21.7608 4.57329L7.83851 12.9718C7.6445 13.089 7.50513 13.278 7.45091 13.4972C7.3967 13.7164 7.43207 13.9481 7.54927 14.1414L8.15668 15.1577L8.67732 16.011C8.07955 16.011 7.33716 16.011 6.60441 16.011H5.41851C3.92908 15.8716 2.44244 16.3038 1.26304 17.219C0.797336 17.5682 0.441845 18.0426 0.238543 18.5862C0.0352409 19.1299 -0.00738217 19.72 0.115707 20.2869C0.270706 20.67 0.536843 20.9986 0.880236 21.2308C1.22363 21.463 1.62874 21.5883 2.044 21.5908C2.28842 21.5936 2.53096 21.548 2.75747 21.4566C3.26421 21.2159 3.65796 20.7901 3.85659 20.2677C3.91834 20.1197 3.96361 19.9654 3.99157 19.8076C4.20752 19.963 4.45353 20.0722 4.71407 20.1283C4.97461 20.1844 5.24402 20.1862 5.50528 20.1335C5.83124 20.0583 6.12877 19.892 6.3628 19.6542C6.59683 19.4164 6.7576 19.117 6.82616 18.7913C7.10406 18.9193 7.40692 18.9848 7.71318 18.983C8.13963 18.9851 8.55543 18.8507 8.89907 18.5996C9.26318 18.3412 9.52562 17.965 9.64147 17.5354C10.702 19.2707 11.8108 21.006 13.0256 22.6454C13.1064 22.7526 13.2113 22.8395 13.3317 22.8995C13.4522 22.9594 13.5851 22.9905 13.7198 22.9905C13.8468 22.9891 13.972 22.9596 14.0862 22.9043C19.1019 20.514 23.8604 17.623 28.288 14.2757C28.461 14.144 28.5772 13.9519 28.613 13.7383C28.6488 13.5247 28.6016 13.3055 28.4809 13.1252C27.5167 11.7446 26.4562 10.1052 25.3088 8.38905C25.4275 8.39896 25.5469 8.39896 25.6656 8.38905C26.0449 8.39369 26.4172 8.28697 26.7358 8.08225C27.0452 7.87328 27.2914 7.58423 27.4477 7.24631C27.604 6.90838 27.6646 6.53442 27.6228 6.16479C27.9482 6.20151 28.2776 6.14741 28.5738 6.00856C28.8701 5.86972 29.1217 5.6516 29.3004 5.37863C29.438 5.16114 29.5303 4.91837 29.5717 4.66474C29.6131 4.4111 29.6028 4.15178 29.5414 3.90218C29.6729 3.91398 29.8052 3.91398 29.9367 3.90218C30.2332 3.90534 30.5272 3.8483 30.8008 3.73455C31.0743 3.62081 31.3216 3.45274 31.5276 3.24065C31.8384 2.87023 32.003 2.39989 31.9904 1.9176C31.9809 1.64554 31.9152 1.37832 31.7975 1.13257C31.6797 0.886814 31.5124 0.667782 31.3058 0.48909ZM23.8819 7.43032L24.0265 7.65082L24.1037 7.67C25.3956 9.58746 26.6683 11.5049 27.7288 13.0677C25.4438 12.0226 23.0913 11.0831 20.7195 10.249L22.7731 5.75253L23.8819 7.43032ZM22.0693 5.12936C22.1104 5.11837 22.1536 5.11837 22.1946 5.12936C22.2257 5.13052 22.2563 5.13792 22.2845 5.15109C22.3126 5.16427 22.3378 5.18297 22.3586 5.20606L18.608 13.3745C18.4101 13.7991 18.0804 14.1494 17.6673 14.3738C17.2542 14.5981 16.7796 14.6847 16.3134 14.6208L8.27238 13.4224L22.0693 5.12936ZM8.57127 18.101C8.30351 18.2949 7.9776 18.3928 7.64669 18.3789C7.31577 18.365 6.99936 18.24 6.74903 18.0243L6.18983 17.5162V18.2736C6.21344 18.5486 6.13684 18.8229 5.97401 19.0464C5.81117 19.2699 5.57295 19.4278 5.30281 19.4912C5.0192 19.5451 4.72569 19.5071 4.46539 19.3828C4.20509 19.2586 3.99171 19.0546 3.85659 18.8009V18.7434L3.28775 19.0022C3.40923 19.3104 3.40923 19.6528 3.28775 19.961C3.14231 20.3355 2.855 20.6384 2.48751 20.8046C2.3373 20.8641 2.17674 20.8935 2.01507 20.8909C1.72627 20.8933 1.44336 20.8097 1.20279 20.6508C0.962222 20.4918 0.775009 20.265 0.66527 19.9993C0.580494 19.5458 0.625979 19.0776 0.796509 18.6486C0.967039 18.2196 1.25571 17.8471 1.62942 17.5737C2.69726 16.7722 4.02911 16.3992 5.36066 16.5287H6.52728C7.27931 16.5287 8.06991 16.5287 8.68696 16.5287C8.5703 16.5684 8.45113 16.6004 8.33023 16.6246C8.17471 16.6654 8.01697 16.6974 7.8578 16.7204C7.14433 16.8451 6.15126 16.8642 5.15819 16.9601C4.90751 16.9601 4.66648 17.0176 4.42544 17.0848C4.18758 17.1323 3.95259 17.1931 3.72161 17.2669C3.50748 17.3401 3.29817 17.4266 3.09492 17.5258C2.91218 17.6118 2.73788 17.7145 2.57428 17.8326L2.35253 17.986L2.17898 18.1585C2.0802 18.243 1.99271 18.3396 1.91866 18.4462L1.72583 18.7242L1.93794 18.4557C2.0161 18.3552 2.10681 18.265 2.2079 18.1873L2.39109 18.0339L2.61284 17.8901C2.77768 17.7848 2.95197 17.6949 3.13348 17.6216C3.37247 17.5796 3.61407 17.554 3.85659 17.5449C4.08211 17.4877 4.31064 17.4429 4.54114 17.4107C4.77253 17.4107 5.02321 17.3532 5.26425 17.334C6.22839 17.334 7.19254 17.334 7.99278 17.2477C8.16746 17.2352 8.34129 17.2128 8.51342 17.1806C8.64687 17.1601 8.7789 17.1313 8.90872 17.0943H9.05334C9.04197 17.2913 8.98886 17.4837 8.89747 17.6588C8.80608 17.834 8.67849 17.9879 8.52306 18.1106L8.57127 18.101ZM8.67732 14.8413L8.20489 14.0552L13.1124 14.755C12.8085 17.1217 12.8344 19.5188 13.1895 21.8784C11.5698 19.6254 10.1043 17.1998 8.67732 14.8413ZM13.8644 22.3098C13.4733 19.8417 13.4279 17.3315 13.7294 14.8509L16.2073 15.2056C16.3389 15.2151 16.471 15.2151 16.6026 15.2056C17.1406 15.2051 17.6671 15.0513 18.1199 14.7625C18.5727 14.4736 18.9328 14.0618 19.1576 13.5758L20.4206 10.8338C22.9178 11.7063 25.386 12.7033 27.777 13.8059C23.4438 17.0958 18.7894 19.9447 13.8837 22.3098H13.8644ZM31.0455 2.94345C30.8936 3.09281 30.7126 3.2098 30.5137 3.28728C30.3148 3.36475 30.1021 3.40108 29.8885 3.39405C29.5678 3.40457 29.2547 3.29509 29.0112 3.08726L28.5773 3.52827C28.7742 3.74016 28.8966 4.00986 28.9261 4.29684C28.9557 4.58383 28.8908 4.8726 28.7412 5.11977C28.5861 5.34789 28.3551 5.5143 28.0888 5.58971C27.8225 5.66512 27.538 5.64469 27.2853 5.53202L26.5815 5.23482L26.8708 5.93469C26.9811 6.22944 26.9898 6.55229 26.8956 6.85251C26.8014 7.15273 26.6095 7.41331 26.3501 7.5933C26.1308 7.72985 25.8761 7.79981 25.6174 7.79463C25.3637 7.79403 25.1145 7.72796 24.8943 7.60289C25.0013 7.52909 25.0985 7.44211 25.1835 7.34403C25.3143 7.21112 25.4367 7.07023 25.5499 6.92219C25.6559 6.7592 25.7909 6.58663 25.897 6.39488C26.018 6.18693 26.1275 5.97249 26.2248 5.75253C26.408 5.3211 26.6008 4.86091 26.8129 4.41031C26.919 4.1898 27.0154 3.95012 27.1214 3.73919L27.4974 3.11602L27.9602 2.62706C28.0866 2.46945 28.2252 2.32199 28.3748 2.18605C28.4935 2.06399 28.619 1.94875 28.7508 1.8409L29.069 1.60122L29.339 1.3903L29.0497 1.58205L28.7219 1.80255C28.584 1.90368 28.4521 2.01251 28.3266 2.12852C28.168 2.2575 28.0197 2.39853 27.8831 2.55037L27.43 3.06808L26.9961 3.67208C26.8611 3.89259 26.7551 4.1131 26.6394 4.33361C26.3983 4.78421 26.1766 5.22523 25.9741 5.64707C25.8753 5.84454 25.7659 6.03656 25.6463 6.22231C25.5402 6.40447 25.4053 6.54828 25.2992 6.69209C25.2408 6.76751 25.1763 6.83805 25.1064 6.90301C25.3185 6.37571 25.5017 5.81964 25.6849 5.28275C26.273 3.5091 26.8322 1.83132 28.3266 1.05474C28.7059 0.80169 29.1485 0.658681 29.6049 0.641747C30.0613 0.624813 30.5134 0.734624 30.9105 0.958869C31.0484 1.07962 31.1604 1.22673 31.24 1.39144C31.3195 1.55615 31.3648 1.73509 31.3733 1.9176C31.3917 2.10177 31.3721 2.28773 31.3157 2.46411C31.2593 2.64049 31.1674 2.80359 31.0455 2.94345Z" fill="white"/>
</g>
<defs>
<clipPath id="clip0_323_1226">
<rect width="32" height="23" fill="white"/>
</clipPath>
</defs>
</svg>
