<svg width="33" height="32" viewBox="0 0 33 32" fill="none" xmlns="http://www.w3.org/2000/svg">
<path d="M2.5 21C2.5 19.8954 3.39543 19 4.5 19H16.5C17.6046 19 18.5 19.8954 18.5 21V28C18.5 29.1046 17.6046 30 16.5 30H4.5C3.39543 30 2.5 29.1046 2.5 28V21Z" stroke="#941759" stroke-width="2" stroke-linecap="round" stroke-linejoin="round"/>
<path d="M14.5 4C14.5 2.89543 15.3954 2 16.5 2H28.5C29.6046 2 30.5 2.89543 30.5 4V11C30.5 12.1046 29.6046 13 28.5 13H16.5C15.3954 13 14.5 12.1046 14.5 11V4Z" stroke="#941759" stroke-width="2" stroke-linecap="round" stroke-linejoin="round"/>
<path d="M6.5 23L10.6379 26L14.5 23" stroke="#941759" stroke-width="2" stroke-linecap="round" stroke-linejoin="round"/>
<path d="M18.5 6L22.6379 9L26.5 6" stroke="#941759" stroke-width="2" stroke-linecap="round" stroke-linejoin="round"/>
<path d="M4.5 14.5V7H10M10 7L8 5M10 7L8 9" stroke="#941759" stroke-width="2" stroke-linecap="round" stroke-linejoin="round"/>
<path d="M28 18L28 25.5L22.5 25.5M22.5 25.5L24.5 27.5M22.5 25.5L24.5 23.5" stroke="#941759" stroke-width="2" stroke-linecap="round" stroke-linejoin="round"/>
</svg>
