<svg width="40" height="40" viewBox="0 0 40 40" fill="none" xmlns="http://www.w3.org/2000/svg">
<path fill-rule="evenodd" clip-rule="evenodd" d="M21.3653 40H2.20781C0.988125 40 0 39.0112 0 37.7922V2.20781C0 0.988125 0.988125 0 2.20781 0H37.7925C39.0116 0 40 0.988125 40 2.20781V37.7922C40 39.0116 39.0116 40 37.7925 40H27.5994V24.5097H32.7988L33.5772 18.4728H27.5994V14.6187C27.5994 12.8709 28.0847 11.68 30.5909 11.68L33.7875 11.6788V6.27938C33.2347 6.20594 31.3372 6.04156 29.1294 6.04156C24.5203 6.04156 21.365 8.855 21.365 14.0212V18.4731H16.1525V24.51H21.3653V40Z" fill="#555A64"/>
</svg>
