<svg width="208" height="337" viewBox="0 0 208 337" fill="none" xmlns="http://www.w3.org/2000/svg">
<g clip-path="url(#clip0_271_33)">
<path d="M98.9772 18.8016C101.585 19.0714 104.215 19.3619 106.812 19.4553C108.813 19.528 109.243 18.179 109.253 16.4773C109.19 15.3408 109.527 14.2178 110.208 13.3006C110.888 12.3834 111.869 11.729 112.983 11.4494C114.097 11.1699 115.275 11.2826 116.314 11.7682C117.353 12.2539 118.19 13.0822 118.68 14.1115C118.731 14.1981 118.81 14.2655 118.903 14.3036C118.997 14.3417 119.1 14.3483 119.198 14.3224C119.296 14.2964 119.382 14.2394 119.444 14.16C119.505 14.0807 119.539 13.9834 119.539 13.8833C119.588 13.0851 119.916 12.3286 120.467 11.7436C121.017 11.1586 121.756 10.7815 122.556 10.677C124.442 10.3035 126.442 11.0921 128.171 11.7146C128.243 11.7336 128.319 11.7359 128.393 11.7214C128.466 11.7069 128.535 11.6759 128.595 11.6309C128.655 11.5858 128.703 11.5279 128.737 11.4615C128.77 11.3951 128.788 11.322 128.789 11.2477C128.789 7.25284 130.727 2.56278 134.875 1.24499C138.635 0.0517212 143.883 3.32024 142.762 7.58488C142.736 7.69365 142.746 7.80798 142.79 7.9108C142.835 8.01362 142.911 8.09944 143.009 8.15545C143.107 8.21146 143.22 8.23466 143.333 8.22159C143.445 8.20853 143.55 8.15989 143.632 8.08294C145.905 6.00769 150.252 8.50837 149.602 11.4864C149.519 11.8703 149.948 12.2957 150.325 12.0363C151.277 11.4049 152.438 11.1604 153.567 11.3536C154.696 11.5467 155.707 12.1627 156.39 13.0739C156.455 13.177 156.558 13.2516 156.676 13.2825C156.795 13.3133 156.921 13.2981 157.029 13.2399L159.993 11.4345L159.323 11.1647C160.486 14.2049 164.56 11.808 166.603 11.3515C167.506 11.1999 168.432 11.2381 169.319 11.4635C170.206 11.689 171.036 12.0968 171.754 12.6603C172.472 13.2239 173.063 13.9306 173.487 14.7348C173.912 15.5389 174.161 16.4225 174.218 17.3282C174.22 17.4163 174.244 17.5026 174.289 17.5785C174.334 17.6545 174.398 17.7175 174.476 17.7614C174.553 17.8054 174.64 17.8287 174.729 17.8292C174.818 17.8296 174.905 17.8072 174.983 17.764C177.078 16.2906 180.388 14.5058 182.556 16.8197C183.394 17.7121 185.259 20.4722 186.505 18.5318C186.715 18.1998 186.254 17.8885 185.982 18.1272C185.154 18.8431 183.646 16.6537 183.195 16.1868C182.579 15.518 181.745 15.0848 180.838 14.9624C178.66 14.6822 176.292 15.834 174.47 16.8924L175.234 17.3282C175.35 14.1012 172.731 11.2788 169.693 10.4384C168.181 10.0537 166.583 10.1741 165.147 10.7808C163.953 11.2269 160.894 12.7211 160.213 10.926C160.194 10.8598 160.16 10.7987 160.113 10.7475C160.066 10.6963 160.009 10.6562 159.944 10.6302C159.88 10.6042 159.81 10.5931 159.741 10.5976C159.671 10.6021 159.604 10.6222 159.543 10.6563L156.516 12.4513L157.155 12.6174C156.347 11.4967 155.137 10.7256 153.773 10.463C152.408 10.2005 150.994 10.4665 149.822 11.2062L150.545 11.7561C151.435 7.78203 145.915 4.62765 142.888 7.36698L143.757 7.86504C144.962 3.23723 139.808 -0.705746 135.44 0.0724737C130.349 0.975208 127.773 6.60952 127.794 11.2477L128.412 10.7808C126.212 9.92992 123.708 9.01681 121.393 9.9818C120.587 10.2706 119.889 10.7976 119.395 11.4915C118.9 12.1855 118.633 13.0131 118.628 13.8625L119.487 13.6342C119.072 12.7687 118.446 12.0192 117.665 11.4534C116.884 10.8876 115.973 10.5234 115.015 10.3937C114.056 10.2639 113.08 10.3727 112.175 10.7102C111.27 11.0477 110.463 11.6033 109.829 12.3268C109.221 13.0324 108.784 13.8665 108.551 14.7653C108.289 15.8029 109.033 18.2205 107.619 18.6148C107.024 18.6745 106.424 18.6465 105.838 18.5318L103.743 18.3866C102.182 18.2724 100.601 18.2413 99.0505 18.1894C98.6524 18.1894 98.6734 18.7497 99.0505 18.7912L98.9772 18.8016Z" fill="#95165B" fill-opacity="0.2"/>
<path d="M110.175 22.9003C115.968 23.1079 121.865 23.2012 127.658 22.9003C127.73 22.9003 127.799 22.8719 127.85 22.8213C127.901 22.7707 127.93 22.7021 127.93 22.6306C127.93 22.559 127.901 22.4904 127.85 22.4398C127.799 22.3892 127.73 22.3608 127.658 22.3608C121.865 22.0391 115.968 22.1325 110.175 22.3608C110.108 22.3735 110.048 22.4089 110.004 22.461C109.961 22.5131 109.937 22.5785 109.937 22.6461C109.937 22.7137 109.961 22.7791 110.004 22.8312C110.048 22.8833 110.108 22.9188 110.175 22.9315V22.9003Z" fill="#95165B" fill-opacity="0.2"/>
<path d="M129.889 22.4231C132.277 22.6089 134.676 22.6089 137.064 22.4231C137.142 22.4231 137.216 22.3925 137.271 22.338C137.326 22.2835 137.357 22.2096 137.357 22.1326C137.357 22.0555 137.326 21.9816 137.271 21.9271C137.216 21.8726 137.142 21.842 137.064 21.842C134.676 21.6562 132.277 21.6562 129.889 21.842C129.83 21.8539 129.776 21.8857 129.738 21.9321C129.7 21.9784 129.679 22.0364 129.679 22.0962C129.679 22.1561 129.7 22.2141 129.738 22.2604C129.776 22.3067 129.83 22.3386 129.889 22.3505V22.4231Z" fill="#95165B" fill-opacity="0.2"/>
<path d="M142.458 22.4852C144.7 22.5682 146.942 22.4852 149.183 22.4852C151.425 22.4852 153.667 22.5682 155.908 22.589C160.391 22.589 164.875 22.589 169.358 22.4333C169.426 22.4333 169.491 22.4065 169.539 22.3589C169.588 22.3112 169.615 22.2465 169.615 22.1791C169.615 22.1117 169.588 22.047 169.539 21.9993C169.491 21.9517 169.426 21.9249 169.358 21.9249C164.875 21.7589 160.391 21.7277 155.908 21.7692C153.667 21.7692 151.435 21.9145 149.183 21.873C146.931 21.8315 144.7 21.7796 142.458 21.873C142.374 21.873 142.292 21.9063 142.233 21.9657C142.173 22.025 142.139 22.1055 142.139 22.1895C142.139 22.2734 142.173 22.3539 142.233 22.4133C142.292 22.4726 142.374 22.506 142.458 22.506V22.4852Z" fill="#95165B" fill-opacity="0.2"/>
<path d="M173.297 22.485C174.795 22.9555 176.383 23.0763 177.937 22.8378C178.22 22.8378 178.157 22.319 177.874 22.3397C176.39 22.4741 174.893 22.3262 173.464 21.9039C173.087 21.7898 172.93 22.3709 173.307 22.485H173.297Z" fill="#95165B" fill-opacity="0.2"/>
<path d="M182.347 22.9209C183.244 22.9697 184.142 22.9697 185.039 22.9209C185.113 22.9209 185.183 22.892 185.235 22.8404C185.287 22.7888 185.317 22.7189 185.317 22.646C185.317 22.573 185.287 22.5031 185.235 22.4515C185.183 22.4 185.113 22.371 185.039 22.371C184.142 22.3223 183.244 22.3223 182.347 22.371C182.265 22.371 182.186 22.4033 182.128 22.4607C182.07 22.5181 182.038 22.5959 182.038 22.6771C182.038 22.7583 182.07 22.8361 182.128 22.8936C182.186 22.951 182.265 22.9832 182.347 22.9832V22.9209Z" fill="#95165B" fill-opacity="0.2"/>
<path d="M189.836 22.3922C189.99 22.4708 190.159 22.5176 190.332 22.5297C190.504 22.5419 190.678 22.5191 190.841 22.4629C191.005 22.4066 191.155 22.3179 191.283 22.2023C191.411 22.0867 191.514 21.9465 191.586 21.7903C191.69 21.5413 191.303 21.3442 191.135 21.5309C191.015 21.6845 190.849 21.7956 190.66 21.848C190.471 21.9003 190.271 21.891 190.088 21.8215C189.763 21.6866 189.533 22.2365 189.847 22.3818L189.836 22.3922Z" fill="#95165B" fill-opacity="0.2"/>
<path d="M95.8243 22.039C97.7307 22.039 99.8676 22.4437 101.743 22.039C101.812 22.0211 101.874 21.9808 101.918 21.9244C101.962 21.8681 101.985 21.7989 101.985 21.7277C101.985 21.6565 101.962 21.5873 101.918 21.531C101.874 21.4747 101.812 21.4344 101.743 21.4164C99.8676 21.0118 97.7307 21.4164 95.8243 21.4164C95.7409 21.4164 95.661 21.4492 95.6021 21.5076C95.5431 21.566 95.51 21.6452 95.51 21.7277C95.51 21.8103 95.5431 21.8895 95.6021 21.9478C95.661 22.0062 95.7409 22.039 95.8243 22.039Z" fill="#95165B" fill-opacity="0.2"/>
<path d="M99.7208 19.7148C101.873 20.2262 104.068 20.5388 106.278 20.6487C107.629 20.7109 109.735 21.0326 110.699 19.7978C111.084 19.1688 111.311 18.4569 111.358 17.7225C111.49 16.7336 111.934 15.8112 112.626 15.087C114.48 13.2296 117.057 13.6032 118.911 15.1492C118.951 15.1792 119.001 15.1938 119.051 15.1902C119.102 15.1867 119.149 15.1653 119.185 15.13C119.22 15.0946 119.242 15.0478 119.246 14.9979C119.249 14.9481 119.234 14.8987 119.204 14.8587C117.025 12.3269 112.794 13.2089 111.421 16.0935C111.136 16.8462 110.943 17.63 110.845 18.4281C110.807 18.8332 110.65 19.2184 110.393 19.5357C110.136 19.853 109.791 20.0885 109.4 20.2128C108.852 20.3241 108.292 20.3625 107.734 20.327C105.057 20.316 102.389 20.0273 99.7732 19.4658C99.5847 19.4658 99.5009 19.7044 99.6894 19.7563L99.7208 19.7148Z" fill="#95165B" fill-opacity="0.2"/>
<path d="M117.151 15.2011C117.253 15.5164 117.472 15.7818 117.764 15.9435C118.055 16.1053 118.398 16.1515 118.722 16.0727C119.644 15.8963 120.126 14.9417 120.472 14.1842C120.595 13.7559 120.808 13.3581 121.097 13.0166C121.386 12.6752 121.744 12.3977 122.148 12.2023C122.929 11.9542 123.749 11.8522 124.567 11.9014C126.403 11.8927 128.236 12.0419 130.046 12.3476C130.083 12.3553 130.122 12.3536 130.159 12.3427C130.195 12.3319 130.228 12.3122 130.255 12.2855C130.283 12.2587 130.302 12.2257 130.313 12.1895C130.324 12.1532 130.326 12.1149 130.318 12.0778C130.055 10.5146 130.282 8.90904 130.967 7.47702C131.652 6.045 132.764 4.85513 134.152 4.06734C135.53 3.19926 137.152 2.78858 138.782 2.89482C139.305 2.90394 139.82 3.02197 140.294 3.24125C140.768 3.46053 141.19 3.77615 141.533 4.16759C141.876 4.55904 142.132 5.01755 142.284 5.51334C142.436 6.00913 142.481 6.5311 142.417 7.04532C142.415 7.08007 142.426 7.11423 142.447 7.14236C142.467 7.17049 142.497 7.19096 142.531 7.20051C142.564 7.21006 142.6 7.20815 142.633 7.19507C142.665 7.18198 142.693 7.15849 142.71 7.12833C142.928 6.31634 142.848 5.45426 142.486 4.69465C142.124 3.93505 141.502 3.32691 140.73 2.97783C139.828 2.59016 138.851 2.40056 137.867 2.42205C136.884 2.44355 135.916 2.67562 135.032 3.10235C131.544 4.6069 129.051 8.38386 129.889 12.1816L130.161 11.9118C127.729 11.3922 125.226 11.2765 122.755 11.5694C122.357 11.6199 121.974 11.7498 121.628 11.9513C121.283 12.1529 120.982 12.4218 120.744 12.7419C120.47 13.179 120.238 13.6411 120.053 14.1219C119.728 14.8483 118.125 17.0169 117.445 15.0973C117.382 14.9105 117.078 14.9935 117.141 15.1803L117.151 15.2011Z" fill="#95165B" fill-opacity="0.2"/>
<path d="M112.134 22.6201C115.119 23.8134 117.685 21.4372 119.466 19.3308C121.781 16.55 124.222 14.0908 128.087 13.9663C129.405 14.0825 130.732 13.8647 131.942 13.3333C133.199 12.5863 133.639 11.1128 134.257 9.87805C135.147 8.11409 136.352 6.29824 138.31 5.59266C138.763 5.39887 139.252 5.30458 139.744 5.31629C140.237 5.32801 140.721 5.44545 141.163 5.66051C141.605 5.87558 141.995 6.18313 142.305 6.56195C142.616 6.94078 142.84 7.38183 142.961 7.85468C143.014 8.07258 143.38 8.03108 143.359 7.8028C143.129 4.95971 139.63 4.32675 137.493 5.44739C136.078 6.27985 134.941 7.50688 134.225 8.97532C133.282 10.6978 132.811 12.9183 130.58 13.3748C128.946 13.7069 127.27 13.3748 125.646 13.8937C124.153 14.385 122.79 15.2004 121.655 16.2802C119.047 18.6667 116.606 23.8652 112.228 22.3711C112.06 22.3088 111.998 22.5682 112.155 22.6305L112.134 22.6201Z" fill="#95165B" fill-opacity="0.2"/>
<path d="M135.409 12.3372C136.386 10.6091 138 9.32258 139.913 8.74698C142.301 8.15553 143.894 9.3488 145.811 10.5524C148.649 12.3372 151.917 13.8313 155.353 13.3229C155.615 13.3229 155.552 12.8249 155.29 12.856C153.002 13.0692 150.701 12.6261 148.66 11.5797C146.848 10.7185 145.287 9.35918 143.422 8.57058C140.06 7.11791 136.844 9.42144 135.116 12.1711C135.011 12.3372 135.273 12.4928 135.388 12.3268L135.409 12.3372Z" fill="#95165B" fill-opacity="0.2"/>
<path d="M141.306 11.0713C143.307 10.5733 145.192 11.4034 146.984 12.2127C148.419 12.9104 149.925 13.4531 151.477 13.8314C154.746 14.5266 157.878 13.9871 161.083 13.2503C164.288 12.5136 167.546 11.8911 170.51 13.4164C171.169 13.7235 171.76 14.1567 172.249 14.6909C172.738 15.2251 173.115 15.8499 173.359 16.5292C173.977 18.4281 173.286 20.41 172.616 22.1843C172.542 22.3814 172.867 22.5267 172.961 22.3296C174.313 19.5902 174.753 16.2076 172.218 14.0286C170.06 12.1505 166.98 11.8288 164.267 12.2023C160.014 12.7834 156.118 14.3502 151.697 13.489C148.22 12.8042 144.805 9.86769 141.128 10.8327C141.089 10.8437 141.056 10.8695 141.037 10.9046C141.017 10.9396 141.012 10.9809 141.023 11.0195C141.035 11.058 141.061 11.0906 141.096 11.11C141.131 11.1295 141.173 11.1342 141.212 11.1232L141.306 11.0713Z" fill="#95165B" fill-opacity="0.2"/>
<path d="M174.501 20.4514C175.36 19.6525 175.81 18.3762 177.088 18.179C178.459 17.9647 179.861 18.0497 181.195 18.4281C183.75 19.1855 185.615 21.5409 187.919 22.8068C187.954 22.8238 187.994 22.8282 188.032 22.8193C188.07 22.8105 188.103 22.7889 188.127 22.7583C188.15 22.7276 188.162 22.6898 188.161 22.6514C188.159 22.6129 188.144 22.5762 188.118 22.5474C186.94 21.4619 185.683 20.4631 184.358 19.5591C183.309 18.6746 182.063 18.0512 180.722 17.7407C179.381 17.4303 177.984 17.4418 176.648 17.7744C175.496 18.1998 175.13 19.4242 174.323 20.2439C174.309 20.2575 174.298 20.2737 174.291 20.2915C174.284 20.3093 174.28 20.3284 174.28 20.3477C174.28 20.3669 174.284 20.386 174.291 20.4038C174.298 20.4216 174.309 20.4378 174.323 20.4514C174.337 20.4651 174.353 20.4759 174.371 20.4833C174.389 20.4906 174.408 20.4944 174.428 20.4944C174.447 20.4944 174.467 20.4906 174.485 20.4833C174.502 20.4759 174.519 20.4651 174.533 20.4514H174.501Z" fill="#95165B" fill-opacity="0.2"/>
<path d="M177.727 19.0094C179.765 19.2375 181.684 20.0775 183.227 21.4167C184.358 22.4543 185.322 23.0769 186.872 22.5996C186.916 22.5996 186.959 22.5821 186.991 22.551C187.022 22.5198 187.04 22.4776 187.04 22.4336C187.04 22.3895 187.022 22.3473 186.991 22.3162C186.959 22.285 186.916 22.2676 186.872 22.2676C186.157 22.2993 185.444 22.1827 184.777 21.9251C184.399 21.6629 184.048 21.3639 183.73 21.0328C183.204 20.5711 182.632 20.1643 182.022 19.8188C180.734 19.1214 179.299 18.7339 177.832 18.6877C177.623 18.6877 177.633 18.9887 177.832 19.0094H177.727Z" fill="#95165B" fill-opacity="0.2"/>
<path d="M47.6398 206.488C48.5263 203.451 48.6628 200.248 48.0379 197.149C47.3466 193.943 45.3354 190.996 45.0735 187.707C44.7697 183.909 48.8654 181.169 51.7355 179.281C54.7837 177.278 58.3766 176.168 61.8648 177.787C67.7098 180.537 70.8208 187.727 71.9835 193.642C72.6716 197.252 72.6716 200.958 71.9835 204.568C71.3864 207.805 70.538 210.908 71.3026 214.197C71.5855 215.432 73.3976 214.903 73.2091 213.678C72.3501 209.175 74.3299 204.713 74.5184 200.189C74.6666 196.525 74.1559 192.864 73.01 189.377C71.1246 183.66 67.186 176.811 60.7544 175.286C57.7374 174.668 54.5961 175.25 52.0079 176.905C49.3577 178.441 46.1 180.734 44.3612 183.286C42.4233 186.119 43.387 189.429 44.5498 192.355C46.3619 196.9 47.4723 201.237 46.519 206.145C46.3829 206.861 47.4408 207.183 47.6294 206.446L47.6398 206.488Z" fill="#95165B" fill-opacity="0.2"/>
<path d="M49.7453 210.337C51.5365 209.631 52.8878 212.838 53.642 213.958C54.3829 215.052 55.283 216.031 56.3131 216.864C58.3259 218.59 60.8702 219.588 63.5303 219.696C63.7647 219.691 63.9896 219.604 64.1645 219.449C64.3394 219.294 64.4528 219.083 64.4844 218.853C64.516 218.622 64.4636 218.389 64.3367 218.193C64.2098 217.998 64.0167 217.854 63.7921 217.787C59.6755 216.75 57.1301 215.349 54.7313 211.81C53.4534 209.922 51.6936 207.971 49.2739 209.258C48.6873 209.569 49.0959 210.607 49.7348 210.347L49.7453 210.337Z" fill="#95165B" fill-opacity="0.2"/>
<path d="M54.3855 214.612C50.1956 215.38 45.4819 217.528 42.8631 221.014C42.507 221.502 43.1983 222.145 43.6906 221.834C47.3464 219.447 50.4889 217.31 54.794 216.189C55.8415 215.919 55.3806 214.436 54.3541 214.622L54.3855 214.612Z" fill="#95165B" fill-opacity="0.2"/>
<path d="M44.8953 228.06C43.1669 234.835 47.6188 241.642 49.4414 247.982C50.5154 251.673 51.2585 255.451 51.6621 259.272C52.0287 262.882 51.484 266.846 52.3534 270.353C52.3929 270.487 52.475 270.604 52.5873 270.687C52.6997 270.771 52.8363 270.816 52.9767 270.816C53.1171 270.816 53.2537 270.771 53.3661 270.687C53.4784 270.604 53.5605 270.487 53.5999 270.353C54.6474 267.24 54.0085 263.349 53.5999 260.112C53.2277 256.687 52.6294 253.29 51.8087 249.943C50.9103 246.462 49.7978 243.038 48.4777 239.692C47.0846 236.06 45.8695 232.428 46.498 228.537C46.6551 227.499 45.1781 227.064 44.9058 228.101L44.8953 228.06Z" fill="#95165B" fill-opacity="0.2"/>
<path d="M45.9951 237.948C44.0154 236.132 41.0091 235.292 38.5894 234.171C35.845 232.895 33.1005 231.598 30.398 230.228C27.6955 228.859 25.0139 227.437 22.3742 225.964C21.1068 225.258 19.8393 224.584 18.5404 223.94C16.5607 222.965 16.1207 221.792 16.4454 219.562C17.2625 214.124 22.1962 209.185 25.3177 204.869C29.0886 199.681 32.7863 194.493 36.5153 189.304L35.6983 189.771C40.1816 189.927 38.0971 195.779 37.0286 197.969C35.8957 200.275 34.9466 202.665 34.1899 205.118C32.5768 210.306 31.4141 215.888 27.685 220.132C26.9518 220.962 28.1564 222.207 28.9106 221.346C33.7919 216.002 34.588 208.77 37.081 202.275C38.2961 199.162 40.9357 195.8 40.3073 192.231C39.9721 190.342 38.0552 187.385 35.6774 187.904C34.347 188.194 33.53 190.249 32.7968 191.276L28.6592 197.087C25.9916 200.843 23.3449 204.613 20.7192 208.397C18.4985 211.603 15.9636 214.965 15.2304 218.877C14.9442 220.288 14.9442 221.741 15.2304 223.152C15.5865 224.75 17.3253 225.445 18.6557 226.265C23.0898 228.962 27.6864 231.387 32.4197 233.528C34.6334 234.593 36.868 235.614 39.1236 236.589C41.2186 237.471 43.3136 238.664 45.618 238.778C45.7185 238.775 45.8158 238.743 45.8985 238.687C45.9812 238.63 46.0457 238.551 46.0844 238.459C46.123 238.367 46.1341 238.267 46.1165 238.169C46.0988 238.071 46.053 237.98 45.9846 237.907L45.9951 237.948Z" fill="#95165B" fill-opacity="0.2"/>
<path d="M30.1362 217.237C33.1844 217.766 36.243 218.078 39.3122 218.41C42.3813 218.742 45.5971 219.572 48.5406 219.095C49.3471 218.96 49.1691 217.87 48.5406 217.642C45.9009 216.687 42.5489 216.916 39.7626 216.698C36.6201 216.449 33.4777 216.179 30.2828 216.148C29.6648 216.148 29.4972 217.123 30.1362 217.185V217.237Z" fill="#95165B" fill-opacity="0.2"/>
<path d="M36.8088 188.589C37.343 185.382 37.6468 182.166 38.0029 178.949C38.1601 177.527 38.202 176.241 40.1608 176.511C40.798 176.678 41.4159 176.911 42.0043 177.206C43.1985 177.652 45.7334 178.108 46.4143 179.281C47.9331 181.917 43.4289 182.55 42.0672 183.888C40.255 185.673 40.6007 189.865 37.7515 190.467C36.9764 190.633 37.1859 191.774 37.9296 191.795C38.6946 191.821 39.4491 191.612 40.0889 191.196C40.7287 190.779 41.2223 190.177 41.5015 189.471C42.549 187.281 42.549 185.32 44.9792 184.147C47.4094 182.975 50.29 181.035 47.8284 178.264C46.6552 176.946 44.8011 176.428 43.188 175.846C41.5749 175.265 39.2075 173.771 37.6258 174.913C36.327 175.857 36.4527 178.025 36.3165 179.406C36.0232 182.415 35.7089 185.413 35.5937 188.433C35.5937 189.097 36.6412 189.273 36.7878 188.589H36.8088Z" fill="#95165B" fill-opacity="0.2"/>
<path d="M96.7461 235.489C98.5059 238.716 99.1973 242.752 99.8258 246.343C100.161 248.262 100.465 250.182 100.873 252.091C101.009 252.838 101.303 253.637 101.376 254.395C101.523 255.889 100.748 256.719 99.7629 257.684C93.6141 263.702 84.3334 265.103 78.1951 271.173L79.7454 271.37C79.1055 270.069 78.1953 268.916 77.0743 267.987V269.202C82.3753 263.376 88.2337 258.073 94.5674 253.367C95.4891 252.683 94.5674 251.126 93.656 251.821C87.185 256.605 81.2189 262.025 75.8487 267.998C75.6894 268.161 75.6003 268.378 75.6003 268.605C75.6003 268.832 75.6894 269.049 75.8487 269.212C76.7928 270.084 77.539 271.145 78.038 272.325C78.1214 272.445 78.2296 272.547 78.3555 272.623C78.4814 272.7 78.6222 272.749 78.7685 272.767C78.9149 272.786 79.0636 272.774 79.2049 272.731C79.3461 272.689 79.4768 272.618 79.5883 272.522C83.1707 269.036 87.7482 266.991 92.1581 264.771C95.9396 262.872 100.538 260.527 102.853 256.843C103.775 255.391 103.157 254.094 102.79 252.548C102.308 250.535 101.984 248.491 101.627 246.446C100.947 242.514 100.643 237.959 98.2859 234.566C98.1642 234.379 97.9746 234.247 97.7565 234.195C97.5384 234.144 97.3088 234.178 97.1156 234.291C96.9223 234.403 96.7804 234.585 96.7194 234.799C96.6583 235.012 96.6829 235.241 96.788 235.437L96.7461 235.489Z" fill="#95165B" fill-opacity="0.2"/>
<path d="M91.5401 254.737C91.1211 251.064 88.7119 247.38 87.4026 243.935C86.7217 242.13 86.0932 240.304 85.5904 238.446C85.0038 236.371 84.8257 234.119 84.2287 232.023C84.1664 231.831 84.0376 231.666 83.8647 231.557C83.6919 231.449 83.4861 231.405 83.2835 231.432C83.0809 231.459 82.8945 231.557 82.757 231.706C82.6195 231.856 82.5397 232.049 82.5317 232.252C82.2908 236.143 83.9982 240.48 85.3704 244.07C86.7426 247.661 88.1463 251.915 90.4298 255.038C90.7336 255.453 91.6135 255.391 91.5401 254.737Z" fill="#95165B" fill-opacity="0.2"/>
<path d="M76.2992 268.247C74.5689 267.406 72.6766 266.943 70.7502 266.889C68.8238 266.836 66.9082 267.192 65.1329 267.935C63.1846 268.755 61.6972 271.276 64.2112 272.532C65.7091 273.279 67.6679 272.791 69.26 273.082C71.1036 273.424 72.7796 274.379 74.6546 274.618C76.9381 274.908 80.5939 273.642 79.8921 270.778C79.8497 270.646 79.7701 270.529 79.6626 270.44C79.5552 270.352 79.4244 270.295 79.2857 270.278C79.1469 270.26 79.006 270.283 78.8796 270.342C78.7532 270.401 78.6466 270.495 78.5722 270.612C77.0638 272.916 75.2936 272.854 72.811 272.034C71.2006 271.421 69.5119 271.034 67.7936 270.882C67.3641 270.882 64.5673 271.276 65.5938 269.99C65.9709 269.513 67.6888 269.315 68.1811 269.212C70.6968 268.886 73.2526 269.055 75.7021 269.71C76.5506 269.876 77.1476 268.672 76.3201 268.267L76.2992 268.247Z" fill="#95165B" fill-opacity="0.2"/>
<path d="M51.9974 270.291C50.6147 270.457 48.9911 270.54 48.2055 271.858C47.9077 272.299 47.7838 272.834 47.8571 273.359C47.9305 273.885 48.1961 274.366 48.6035 274.711L49.2844 273.072C42.2695 272.676 35.2344 272.811 28.2403 273.477C22.6991 274.006 16.8646 274.39 13.9002 279.702C13.5755 280.283 14.3716 280.947 14.8534 280.429C19.2424 275.77 25.3283 275.604 31.3723 275.168C37.3163 274.751 43.2801 274.685 49.232 274.971C49.4224 274.968 49.6077 274.909 49.765 274.803C49.9223 274.697 50.0448 274.547 50.1172 274.373C50.1896 274.199 50.2089 274.007 50.1726 273.822C50.1363 273.637 50.046 273.466 49.9129 273.331C49.1692 272.729 52.0079 271.484 52.2383 271.339C52.6783 271.059 52.563 270.187 51.945 270.301L51.9974 270.291Z" fill="#95165B" fill-opacity="0.2"/>
<path d="M13.0518 281.923C13.7724 289.428 15.5348 296.799 18.2892 303.827C20.887 310.955 23.5266 318.115 26.6063 325.046C27.1719 326.302 29.0364 325.212 28.4708 324.009C25.4017 317.202 21.8507 310.634 19.3891 303.568C16.9646 296.553 15.2522 289.316 14.2773 281.964C14.183 281.228 13.0099 281.176 13.0727 281.964L13.0518 281.923Z" fill="#95165B" fill-opacity="0.2"/>
<path d="M65.866 273.186C58.3771 275.777 50.5026 277.107 42.5699 277.119C37.7619 277.119 30.6075 277.565 29.5705 283.542C29.0258 286.655 31.0684 290.328 32.074 293.202C33.3729 296.937 34.5775 300.714 35.7821 304.481C38.2856 312.294 40.632 320.201 43.3345 327.962C43.6593 328.907 45.1467 328.512 44.8534 327.547C42.6956 320.575 40.213 313.674 37.8876 306.795C35.625 300.05 32.8387 293.202 31.2884 286.26C29.3296 277.451 42.6327 279.121 47.6607 278.8C54.0956 278.358 60.406 276.824 66.3165 274.265C66.9345 273.995 66.4945 272.968 65.8556 273.228L65.866 273.186Z" fill="#95165B" fill-opacity="0.2"/>
<path d="M47.556 328.688C48.991 322.006 49.2739 315.023 49.9338 308.237C50.3089 304.936 50.5117 301.618 50.5413 298.296C50.5413 295.401 50.5413 291.925 49.2634 289.279C49.138 289.111 48.9641 288.984 48.7644 288.915C48.5647 288.846 48.3487 288.838 48.1447 288.893C47.9407 288.948 47.7583 289.063 47.6214 289.223C47.4845 289.383 47.3996 289.58 47.3779 289.788C47.4617 292.901 48.3416 296.014 48.3416 299.126C48.3416 302.239 48.0588 305.477 47.7864 308.642C47.2103 315.22 46.2152 321.902 46.3828 328.512C46.3828 329.166 47.4303 329.353 47.5664 328.668L47.556 328.688Z" fill="#95165B" fill-opacity="0.2"/>
<path d="M49.232 293.866C58.2195 296.398 67.2174 289.923 75.943 288.678C78.5198 288.304 81.1176 288.169 83.7049 287.868C85.4752 287.661 87.4549 287.547 88.9424 286.468C91.4563 284.641 91.7811 280.626 90.4822 278.021C90.4078 277.904 90.3012 277.81 90.1748 277.751C90.0484 277.692 89.9075 277.669 89.7687 277.687C89.63 277.704 89.4992 277.761 89.3918 277.849C89.2843 277.938 89.2047 278.055 89.1623 278.187C88.89 279.609 89.1623 281.062 88.869 282.483C88.3558 285.139 85.9989 285.409 83.7049 285.679C79.7035 286.156 75.6707 286.291 71.7426 287.277C64.1692 289.176 57.5072 292.932 49.452 292.299C48.5198 292.226 48.4045 293.627 49.232 293.876V293.866Z" fill="#95165B" fill-opacity="0.2"/>
<path d="M80.0804 272.003C82.9223 272.582 85.5301 273.975 87.5805 276.008C88.7118 277.222 89.5183 280.304 91.5295 280.159C91.7463 280.151 91.9554 280.078 92.128 279.948C92.3007 279.817 92.4283 279.637 92.4932 279.432C92.9646 276.911 92.0637 274.815 91.5819 272.366C91.2744 270.902 91.2995 269.389 91.6552 267.936C91.9799 266.67 92.7027 265.549 92.9541 264.273C93.0058 264.075 92.9909 263.867 92.9115 263.678C92.8322 263.49 92.6927 263.333 92.5146 263.23C92.3364 263.128 92.1293 263.086 91.925 263.111C91.7206 263.137 91.5302 263.228 91.3829 263.37C89.6859 264.885 89.2879 267.593 89.2879 269.762C89.2879 272.875 91.3829 275.894 90.5449 278.914L91.7809 278.218C91.1524 278.115 90.1468 275.884 89.6859 275.344C88.9189 274.416 88.0313 273.593 87.0462 272.895C85.074 271.469 82.6896 270.712 80.248 270.737C80.0951 270.749 79.9506 270.812 79.8389 270.916C79.7271 271.02 79.6548 271.159 79.634 271.309C79.6131 271.46 79.645 271.613 79.7244 271.743C79.8037 271.873 79.9257 271.972 80.07 272.024L80.0804 272.003Z" fill="#95165B" fill-opacity="0.2"/>
<path d="M30.0209 287.422C29.3624 287.669 28.7682 288.059 28.2821 288.564C27.7584 289.083 27.1508 289.757 27.3079 290.525V290.079C27.2432 290.265 27.2419 290.468 27.3043 290.655C27.3667 290.843 27.4894 291.005 27.6536 291.116C27.8288 291.196 28.025 291.217 28.2136 291.178C28.4021 291.139 28.573 291.041 28.7011 290.898L28.3345 291.116C28.9211 290.95 29.2144 290.317 29.6124 289.892C30.0076 289.523 30.4237 289.176 30.8589 288.854C30.9865 288.724 31.0674 288.556 31.0893 288.376C31.1112 288.195 31.0729 288.013 30.9802 287.857C30.8875 287.7 30.7455 287.578 30.5761 287.509C30.4066 287.44 30.219 287.428 30.0419 287.474L30.0209 287.422Z" fill="#95165B" fill-opacity="0.2"/>
<path d="M25.0139 288.19C29.0048 292.735 27.9888 300.154 28.4183 305.747C28.6382 308.714 28.9944 311.682 29.4657 314.629C29.9371 317.575 30.1257 321.415 31.5607 324.133C31.6348 324.255 31.7472 324.35 31.8808 324.403C32.0143 324.456 32.1617 324.465 32.3005 324.427C32.4393 324.39 32.5618 324.308 32.6495 324.195C32.7372 324.082 32.7853 323.944 32.7863 323.801C32.912 320.553 31.5921 316.953 31.0894 313.726C30.4923 309.928 30.0419 306.099 29.7486 302.312C29.3819 297.186 29.8324 291.324 25.9252 287.349C25.3596 286.768 24.5216 287.63 25.0453 288.221L25.0139 288.19Z" fill="#95165B" fill-opacity="0.2"/>
<path d="M27.2346 325.814C28.3447 325.783 29.4464 325.612 30.5132 325.306C31.456 325.088 32.5558 325.026 33.0481 324.113C33.1378 323.952 33.1617 323.763 33.1149 323.586C33.0681 323.408 32.9542 323.255 32.7967 323.158C31.9168 322.598 30.8903 323.075 29.958 323.334C28.8669 323.57 27.8108 323.943 26.8156 324.445C26.6804 324.533 26.5777 324.663 26.5228 324.814C26.4679 324.965 26.4636 325.13 26.5107 325.284C26.5577 325.438 26.6536 325.572 26.784 325.668C26.9143 325.763 27.0724 325.815 27.2346 325.814Z" fill="#95165B" fill-opacity="0.2"/>
<path d="M42.947 327.651C43.0727 327.859 43.0831 328.128 43.2088 328.346C43.3504 328.561 43.5234 328.753 43.7221 328.917C44.1228 329.249 44.6023 329.474 45.1153 329.571C46.1627 329.789 47.4826 329.571 47.8073 328.409C47.856 328.228 47.8319 328.037 47.7399 327.874C47.648 327.711 47.4955 327.59 47.315 327.537C46.7122 327.482 46.1056 327.482 45.5028 327.537C45.2559 327.506 45.0134 327.446 44.7801 327.361C44.514 327.3 44.2569 327.206 44.0154 327.08C43.5754 326.458 42.5489 327.018 42.9679 327.693L42.947 327.651Z" fill="#95165B" fill-opacity="0.2"/>
<path d="M53.3695 271.381C57.1929 271.516 63.5092 276.206 66.8926 272.678C67.2697 272.294 67.0288 271.464 66.4108 271.526C65.468 271.619 64.5462 271.931 63.593 271.951C62.272 271.906 60.9669 271.65 59.7278 271.194C57.6997 270.417 55.5315 270.064 53.3591 270.156C53.2103 270.176 53.0738 270.248 52.9748 270.359C52.8759 270.471 52.8213 270.615 52.8213 270.763C52.8213 270.912 52.8759 271.055 52.9748 271.167C53.0738 271.279 53.2103 271.351 53.3591 271.37L53.3695 271.381Z" fill="#95165B" fill-opacity="0.2"/>
<path d="M81.9452 271.993C81.0758 275.106 83.4012 279.962 87.0464 280.097C87.7483 280.097 87.8321 279.256 87.3712 278.903C86.1814 278.199 85.1481 277.264 84.3334 276.154C83.6621 274.949 83.3771 273.57 83.5164 272.2C83.5063 272.014 83.4309 271.838 83.3033 271.701C83.1757 271.564 83.0039 271.476 82.8176 271.451C82.6313 271.427 82.4422 271.467 82.2829 271.566C82.1236 271.665 82.0041 271.816 81.9452 271.993Z" fill="#95165B" fill-opacity="0.2"/>
<path d="M27.6538 326.313C28.1641 326.333 28.6629 326.159 29.0469 325.825L27.4547 324.611C27.2452 325.379 27.6014 325.877 27.5176 326.624L28.1356 325.586C25.9245 327.229 23.2612 328.166 20.4994 328.274C17.7655 328.274 15.1048 327.381 12.3499 327.641C11.0511 327.765 9.4484 328.18 9.66837 329.809C9.90929 331.625 12.1823 331.677 13.6069 331.802C16.3771 332.038 19.1648 331.986 21.924 331.646C24.3018 331.355 27.0253 330.193 29.4135 330.401C30.88 330.525 32.4513 331.646 33.3626 329.809C34.1796 328.149 33.4254 325.898 32.577 324.424C32.4525 324.222 32.2778 324.056 32.0697 323.94C31.8615 323.824 31.6268 323.763 31.3881 323.763C31.1494 323.763 30.9147 323.824 30.7065 323.94C30.4983 324.056 30.3236 324.222 30.1992 324.424C29.652 325.323 29.3389 326.343 29.2878 327.392H32.0218C32.0396 326.618 31.9006 325.849 31.6133 325.13C31.1105 323.843 28.9631 323.884 29.0155 325.482C29.0079 326.049 29.0535 326.615 29.1517 327.174C29.1517 327.49 29.2786 327.794 29.5045 328.018C29.7304 328.241 30.0368 328.367 30.3563 328.367C30.6758 328.367 30.9822 328.241 31.2081 328.018C31.434 327.794 31.5609 327.49 31.5609 327.174C31.6488 326.614 31.6839 326.048 31.6656 325.482L29.0679 325.835C29.3061 326.321 29.3831 326.87 29.2878 327.402C29.204 329.166 31.8856 329.125 32.0218 327.402C32.0255 326.824 32.2206 326.262 32.577 325.804H30.1887C30.5037 326.263 30.7178 326.783 30.8172 327.329C30.5798 328.312 30.7508 328.55 31.3305 328.045C30.9219 328.16 29.4764 327.62 28.9003 327.63C26.9813 327.867 25.0833 328.249 23.2229 328.772C21.1494 329.149 19.0462 329.344 16.9379 329.353C15.8324 329.228 14.7193 329.179 13.6069 329.208C12.7131 328.875 12.1404 329.252 11.889 330.339C12.5813 330.227 13.284 330.192 13.984 330.235C18.0273 330.339 21.3165 331.49 25.2969 329.975C26.6482 329.457 28.7746 328.761 29.6545 327.537C30.3982 326.499 29.6545 325.97 29.6021 324.943C29.6021 324.102 28.3765 323.418 27.7585 324.185C27.3408 324.602 27.0912 325.156 27.0567 325.742C27.0567 325.904 27.1218 326.06 27.2377 326.175C27.3536 326.29 27.5108 326.354 27.6747 326.354L27.6538 326.313Z" fill="#95165B" fill-opacity="0.2"/>
<path d="M43.8897 328.118C41.2605 328.118 38.9665 329.446 36.4106 329.955C33.53 330.525 30.597 330.183 27.7269 330.639C23.7046 331.283 24.375 336.066 28.0202 336.792C29.0373 336.94 30.0741 336.882 31.0679 336.622C32.0618 336.361 32.992 335.904 33.8024 335.278C35.9829 333.555 38.6447 332.537 41.4281 332.362C43.2717 332.3 46.0475 333.773 47.713 332.538C49.3785 331.303 48.8234 329.322 47.8597 327.89C47.7339 327.688 47.5582 327.521 47.3492 327.406C47.1402 327.291 46.9048 327.23 46.6655 327.23C46.4262 327.23 46.1909 327.291 45.9819 327.406C45.7729 327.521 45.5972 327.688 45.4714 327.89C45.0603 328.517 44.7962 329.227 44.6983 329.969C44.6004 330.71 44.6713 331.464 44.9058 332.175C44.9908 332.458 45.1657 332.706 45.4045 332.882C45.6432 333.058 45.933 333.153 46.2308 333.153C46.5286 333.153 46.8184 333.058 47.0572 332.882C47.2959 332.706 47.4708 332.458 47.5559 332.175C47.7673 331.645 47.7946 331.061 47.6334 330.514C47.4721 329.967 47.1316 329.489 46.6655 329.156C45.2933 328.118 43.5231 328.657 42.0775 329.083C39.8613 329.726 37.6796 330.481 35.5412 331.345C33.2786 332.248 30.8589 333.742 28.3345 333.306L28.9525 335.641L30.6599 334.977C32.4302 334.811 32.4825 332.071 30.6599 332.196C29.2923 332.248 27.9853 332.769 26.9623 333.669C26.7889 333.842 26.6641 334.057 26.6002 334.292C26.5363 334.528 26.5355 334.776 26.5979 335.011C26.6603 335.247 26.7838 335.463 26.9561 335.637C27.1284 335.811 27.3435 335.937 27.5803 336.004C30.3037 336.46 32.5349 335.589 35.007 334.53C36.4839 333.898 37.9818 333.306 39.5007 332.767C40.3177 332.476 41.1383 332.203 41.9623 331.947C42.3185 331.833 44.9791 331.21 44.8848 331.438H47.535C47.3758 331.082 47.3208 330.689 47.3764 330.304C47.432 329.919 47.5958 329.557 47.8492 329.259H45.4504C46.1208 330.297 45.8485 329.923 45.1152 329.955C44.3764 329.889 43.642 329.781 42.9155 329.633C41.5552 329.536 40.1878 329.623 38.8513 329.892C37.386 330.176 35.973 330.68 34.6613 331.386C33.4776 332.019 32.5139 333.005 31.3198 333.597C31.0475 333.731 28.5125 334.634 28.1773 334.022C27.5698 332.984 29.2877 333.244 29.6229 333.233C31.3093 333.182 33.0063 333.099 34.6823 332.891C38.0447 332.466 40.9043 330.816 44.1097 330.193C45.3247 329.975 45.0105 328.118 43.8268 328.118H43.8897Z" fill="#95165B" fill-opacity="0.2"/>
<path d="M52.5631 215.141C52.4164 219.634 54.3438 224.48 56.1979 228.464C57.2123 230.662 58.4033 232.775 59.7593 234.783C60.5659 235.977 61.7496 238.394 63.3417 238.664C64.0855 238.789 65.0072 238.187 64.693 237.326C64.5827 237.084 64.4221 236.868 64.2216 236.693C63.7607 236.132 63.0589 235.572 62.5771 234.908C61.1601 232.932 59.8993 230.851 58.8061 228.682C56.5331 224.231 55.737 219.551 54.1134 214.903C54.0603 214.721 53.9433 214.564 53.7835 214.461C53.6237 214.358 53.4318 214.315 53.2427 214.34C53.0536 214.365 52.8799 214.457 52.7533 214.598C52.6266 214.739 52.5554 214.921 52.5526 215.11L52.5631 215.141Z" fill="#95165B" fill-opacity="0.2"/>
<path d="M63.6035 238.342C67.7935 235.489 71.1559 230.519 73.4918 226.109C74.6903 223.873 75.6858 221.536 76.4667 219.126C77.1057 217.113 78.436 214.103 77.5142 212.09C77.4595 211.997 77.3837 211.917 77.2928 211.857C77.2019 211.797 77.0983 211.758 76.9899 211.744C76.8816 211.73 76.7714 211.741 76.668 211.776C76.5645 211.811 76.4706 211.869 76.3934 211.945C75.0421 213.356 75.063 216.002 74.5184 217.829C73.7826 220.303 72.822 222.706 71.6482 225.009C70.5945 227.068 69.3792 229.042 68.0134 230.913C66.3898 233.134 64.3891 234.949 62.6503 237.045C62.0951 237.709 62.8179 238.923 63.6978 238.342H63.6035Z" fill="#95165B" fill-opacity="0.2"/>
<path d="M73.9213 212.08C77.7132 212.288 81.5156 212.257 85.3075 212.495C87.7796 212.651 89.0785 213.18 90.4297 215.328C91.4579 216.946 92.2679 218.69 92.839 220.516C94.4311 225.632 93.258 233.123 97.5003 237.118C97.6291 237.235 97.7954 237.303 97.9699 237.311C98.1444 237.319 98.316 237.265 98.4547 237.16C98.5933 237.055 98.6902 236.904 98.7283 236.736C98.7664 236.567 98.7433 236.39 98.663 236.236C97.6848 234.487 96.9149 232.631 96.369 230.706C95.9919 229.087 95.7719 227.437 95.4891 225.798C95.0064 222.381 93.9997 219.056 92.5038 215.94C91.2363 213.471 89.707 211.25 86.7426 210.835C82.4838 210.36 78.183 210.392 73.9318 210.929C73.791 210.947 73.6619 211.016 73.5684 211.122C73.4749 211.228 73.4234 211.364 73.4234 211.505C73.4234 211.645 73.4749 211.781 73.5684 211.887C73.6619 211.993 73.791 212.062 73.9318 212.08H73.9213Z" fill="#95165B" fill-opacity="0.2"/>
<path d="M69.1343 290.203C88.6804 291.946 108.53 291.521 128.118 290.795L127.343 290.027C127.134 296.45 127.176 302.883 127.176 309.306C127.176 315.729 126.778 322.214 127.176 328.585C127.201 328.822 127.313 329.042 127.492 329.202C127.671 329.362 127.904 329.45 128.145 329.45C128.385 329.45 128.618 329.362 128.797 329.202C128.976 329.042 129.089 328.822 129.114 328.585C129.669 322.245 129.114 315.666 128.998 309.306C128.883 302.945 128.841 296.45 128.841 290.016C128.838 289.814 128.756 289.62 128.611 289.476C128.466 289.333 128.271 289.251 128.066 289.249C108.373 290.411 88.7747 289.757 69.0819 289.186C68.4115 289.186 68.4325 290.141 69.0819 290.224L69.1343 290.203Z" fill="#95165B" fill-opacity="0.2"/>
<path d="M48.8655 330.691C55.4751 331.729 62.4095 331.729 69.082 332.144C75.7545 332.559 82.6994 332.963 89.5918 332.922C96.1386 332.922 102.696 332.497 109.232 332.206C115.699 332.054 122.129 331.187 128.401 329.622C128.642 329.516 128.836 329.327 128.947 329.09C129.059 328.854 129.082 328.586 129.011 328.334C128.94 328.083 128.78 327.865 128.56 327.721C128.341 327.576 128.076 327.515 127.815 327.547C121.437 329.027 114.93 329.889 108.384 330.12C101.973 330.442 95.5521 330.878 89.1309 330.94C82.4375 331.002 75.7545 330.67 69.082 330.286C62.4095 329.902 55.6113 328.927 49.0226 329.508C48.3941 329.57 48.1322 330.546 48.8655 330.691Z" fill="#95165B" fill-opacity="0.2"/>
<path d="M92.2523 277.575C100.465 278.395 108.949 278.011 117.203 278.177C125.458 278.343 133.838 278.519 142.155 278.665C142.387 278.665 142.609 278.573 142.773 278.411C142.937 278.248 143.029 278.028 143.029 277.798C143.029 277.568 142.937 277.348 142.773 277.185C142.609 277.023 142.387 276.932 142.155 276.932C133.838 276.786 125.521 276.655 117.203 276.537C108.949 276.423 100.444 275.738 92.2523 276.268C92.0929 276.288 91.9463 276.365 91.8401 276.484C91.7339 276.603 91.6753 276.757 91.6753 276.916C91.6753 277.075 91.7339 277.229 91.8401 277.348C91.9463 277.468 92.0929 277.545 92.2523 277.565V277.575Z" fill="#95165B" fill-opacity="0.2"/>
<path d="M128.841 289.747C131.47 288.306 134 286.694 136.415 284.922C138.784 283.444 140.989 281.722 142.993 279.786C143.107 279.659 143.173 279.497 143.179 279.328C143.185 279.159 143.131 278.992 143.027 278.858C142.922 278.724 142.774 278.63 142.607 278.593C142.44 278.556 142.265 278.577 142.113 278.654C139.526 280.076 137.242 282.224 134.875 283.977C132.507 285.731 130.36 287.194 128.202 288.927C127.72 289.311 128.338 289.965 128.841 289.747Z" fill="#95165B" fill-opacity="0.2"/>
<path d="M142.762 278.156C141.715 280.833 142.218 284.538 142.155 287.391L141.935 296.927C141.788 303.422 141.474 309.949 141.526 316.445C141.551 316.671 141.659 316.881 141.83 317.034C142.001 317.186 142.223 317.27 142.453 317.27C142.684 317.27 142.906 317.186 143.077 317.034C143.248 316.881 143.356 316.671 143.38 316.445C143.737 309.949 143.737 303.422 143.894 296.927L144.124 287.391C144.187 284.548 144.878 280.864 143.946 278.156C143.905 278.034 143.826 277.928 143.721 277.853C143.616 277.777 143.489 277.737 143.359 277.737C143.23 277.737 143.103 277.777 142.998 277.853C142.892 277.928 142.814 278.034 142.773 278.156H142.762Z" fill="#95165B" fill-opacity="0.2"/>
<path d="M129.082 330.058C131.34 328.403 133.501 326.622 135.556 324.725C137.883 322.812 140.064 320.731 142.081 318.499C142.226 318.341 142.304 318.134 142.298 317.921C142.293 317.708 142.205 317.505 142.053 317.355C141.901 317.204 141.696 317.117 141.481 317.112C141.266 317.107 141.057 317.183 140.898 317.327C138.677 319.122 136.708 321.228 134.56 323.127C132.413 325.026 130.14 326.779 128.045 328.72C127.343 329.363 128.276 330.618 129.093 330.058H129.082Z" fill="#95165B" fill-opacity="0.2"/>
<path d="M50.8661 298.131C52.0284 296.7 53.0524 295.164 53.9248 293.544C54.1762 293.025 53.5163 292.413 53.0763 292.89C51.8589 294.34 50.7822 295.9 49.8605 297.549C49.4625 298.203 50.4367 298.722 50.908 298.141L50.8661 298.131Z" fill="#95165B" fill-opacity="0.2"/>
<path d="M51.0652 300.973C53.0449 298.504 55.1294 296.086 56.9416 293.492C57.2872 292.994 56.4912 292.382 56.0931 292.838C53.9981 295.204 52.1231 297.798 50.1853 300.299C49.7977 300.797 50.6776 301.472 51.0756 300.973H51.0652Z" fill="#95165B" fill-opacity="0.2"/>
<path d="M50.4575 304.481C52.7201 301.025 54.8989 297.394 56.8367 293.752C56.8665 293.68 56.8691 293.6 56.844 293.526C56.819 293.453 56.7679 293.391 56.7003 293.352C56.6327 293.312 56.5531 293.299 56.4762 293.313C56.3992 293.328 56.3301 293.369 56.2815 293.43C54.019 296.885 51.8926 300.548 49.9966 304.19C49.9563 304.258 49.9447 304.338 49.9644 304.414C49.984 304.49 50.0333 304.555 50.1014 304.595C50.1694 304.635 50.2507 304.646 50.3273 304.627C50.4039 304.607 50.4696 304.558 50.5099 304.491L50.4575 304.481Z" fill="#95165B" fill-opacity="0.2"/>
<path d="M50.2166 308.911C54.0609 302.987 58.3765 297.186 61.739 290.971C61.7876 290.89 61.8016 290.793 61.7781 290.701C61.7545 290.61 61.6952 290.531 61.6133 290.483C61.5313 290.435 61.4334 290.421 61.3411 290.444C61.2487 290.468 61.1696 290.526 61.1209 290.608C56.931 296.273 53.4638 302.623 49.7243 308.611C49.5148 308.943 50.0385 309.233 50.248 308.911H50.2166Z" fill="#95165B" fill-opacity="0.2"/>
<path d="M49.8815 312.979H49.7872C49.7225 312.947 49.6482 312.94 49.5787 312.959C49.5091 312.979 49.4491 313.022 49.4101 313.083C49.3454 313.145 49.3031 313.226 49.2898 313.314C49.2766 313.402 49.2931 313.492 49.3368 313.57C49.3589 313.648 49.4106 313.714 49.4809 313.755C49.5513 313.795 49.6348 313.807 49.7139 313.788C50.7614 313.529 51.2747 311.609 51.746 310.748C52.9611 308.555 54.2321 306.397 55.5589 304.273C58.1427 300.123 60.936 296.128 63.9388 292.289C64.2216 291.915 63.5931 291.552 63.3103 291.925C60.6706 295.35 58.1671 298.867 55.8522 302.509C55.2866 303.412 49.5044 313.467 49.6825 313.529C49.7444 313.542 49.8091 313.534 49.8654 313.505C49.9217 313.476 49.966 313.429 49.9909 313.371C50.0157 313.313 50.0194 313.249 50.0013 313.188C49.9833 313.128 49.9446 313.076 49.892 313.041L49.8815 312.979Z" fill="#95165B" fill-opacity="0.2"/>
<path d="M58.0937 302.935C61.8647 298.068 66.1699 293.534 69.7628 288.564C69.9932 288.253 69.5009 287.9 69.239 288.159C64.8605 292.424 61.2153 297.736 57.6224 302.686C57.4129 302.976 57.8842 303.236 58.0937 302.956V302.935Z" fill="#95165B" fill-opacity="0.2"/>
<path d="M63.4464 299.199C66.2432 296.398 69.2285 293.7 71.8263 290.722C71.868 290.66 71.8868 290.586 71.8795 290.512C71.8721 290.438 71.839 290.368 71.7859 290.316C71.7328 290.263 71.6629 290.23 71.5881 290.223C71.5133 290.216 71.4383 290.234 71.3758 290.276C68.4324 292.922 65.7718 295.941 62.9959 298.774C62.7236 299.054 63.1531 299.479 63.4254 299.199H63.4464Z" fill="#95165B" fill-opacity="0.2"/>
<path d="M70.0456 295.256C71.2397 293.72 72.6224 292.403 73.9213 290.971C73.9733 290.907 73.9996 290.826 73.9952 290.745C73.9908 290.663 73.956 290.585 73.8975 290.527C73.839 290.469 73.7609 290.435 73.6783 290.431C73.5957 290.426 73.5143 290.452 73.4499 290.504C71.9404 291.804 70.6124 293.297 69.5009 294.945C69.2704 295.267 69.7942 295.557 70.0351 295.256H70.0456Z" fill="#95165B" fill-opacity="0.2"/>
<path d="M73.9109 292.61C74.1453 292.513 74.3669 292.387 74.5708 292.237C74.7907 292.05 74.5708 291.728 74.2984 291.78C74.053 291.856 73.8175 291.961 73.5966 292.092C73.2405 292.268 73.5966 292.797 73.9109 292.621V292.61Z" fill="#95165B" fill-opacity="0.2"/>
<path d="M129.25 325.918C130.528 313.622 131.764 301.326 132.685 288.999C132.685 288.688 132.235 288.698 132.193 288.999C130.79 301.285 129.711 313.601 128.663 325.918C128.663 326.292 129.208 326.281 129.239 325.918H129.25Z" fill="#95165B" fill-opacity="0.2"/>
<path d="M134.194 285.917C131.548 298.267 130.089 310.837 129.836 323.459C129.836 323.528 129.864 323.594 129.913 323.642C129.962 323.691 130.029 323.718 130.098 323.718C130.168 323.718 130.234 323.691 130.283 323.642C130.332 323.594 130.36 323.528 130.36 323.459C131.136 310.936 132.612 298.465 134.78 286.104C134.854 285.731 134.278 285.565 134.204 285.949L134.194 285.917Z" fill="#95165B" fill-opacity="0.2"/>
<path d="M136.519 285.585C134.079 299.251 131.743 312.989 129.889 326.748C129.889 327.111 130.381 327.277 130.454 326.904C133.01 313.248 135.126 299.479 137.127 285.741C137.179 285.368 136.614 285.191 136.54 285.585H136.519Z" fill="#95165B" fill-opacity="0.2"/>
<path d="M139.536 282.234C138.352 289.103 137.745 296.097 136.76 302.987C135.776 309.876 134.56 316.797 133.618 323.739C133.555 324.175 134.215 324.382 134.309 323.926C135.723 316.943 136.687 309.845 137.682 302.8C138.635 296.024 139.777 289.165 140.196 282.338C140.196 281.975 139.599 281.881 139.536 282.255V282.234Z" fill="#95165B" fill-opacity="0.2"/>
<path d="M141.893 283.272C141.264 289.138 140.566 294.997 139.798 300.849C139.023 306.67 137.902 312.491 137.347 318.344C137.347 318.644 137.797 318.696 137.871 318.416C139.106 312.763 140.03 307.048 140.636 301.295C141.421 295.308 142.019 289.3 142.511 283.282C142.511 282.909 141.966 282.919 141.924 283.282L141.893 283.272Z" fill="#95165B" fill-opacity="0.2"/>
<path d="M141.568 306.099C141.545 307.218 141.34 308.325 140.961 309.378C140.845 309.7 141.338 309.814 141.474 309.513C141.932 308.428 142.171 307.265 142.176 306.089C142.176 306.009 142.144 305.933 142.087 305.876C142.03 305.82 141.952 305.788 141.872 305.788C141.791 305.788 141.714 305.82 141.657 305.876C141.6 305.933 141.568 306.009 141.568 306.089V306.099Z" fill="#95165B" fill-opacity="0.2"/>
<path d="M88.3347 251.801C88.7578 253.27 88.9138 254.802 88.7956 256.325C88.7951 256.403 88.8235 256.479 88.8755 256.538C88.9276 256.597 88.9996 256.636 89.0781 256.646C89.1565 256.656 89.2361 256.637 89.3017 256.594C89.3674 256.55 89.4146 256.484 89.4345 256.408C89.9218 254.788 89.745 253.043 88.9422 251.552C88.7956 251.22 88.2195 251.458 88.3452 251.801H88.3347Z" fill="#95165B" fill-opacity="0.2"/>
<path d="M87.8948 249.03C87.7312 251.57 87.7487 254.119 87.9472 256.657C87.9472 256.735 87.9786 256.81 88.0346 256.866C88.0906 256.921 88.1666 256.952 88.2457 256.952C88.3249 256.952 88.4008 256.921 88.4568 256.866C88.5128 256.81 88.5443 256.735 88.5443 256.657C88.7427 254.119 88.7603 251.57 88.5966 249.03C88.5966 248.938 88.5597 248.849 88.4939 248.784C88.4281 248.719 88.3388 248.682 88.2457 248.682C88.1527 248.682 88.0634 248.719 87.9976 248.784C87.9318 248.849 87.8948 248.938 87.8948 249.03Z" fill="#95165B" fill-opacity="0.2"/>
<path d="M86.0512 248.096C86.2816 250.939 86.4597 253.803 86.8054 256.636C86.8054 256.968 87.3606 256.988 87.3396 256.636C87.2139 253.782 86.9311 250.939 86.6902 248.096C86.6902 247.691 86.0093 247.681 86.0407 248.096H86.0512Z" fill="#95165B" fill-opacity="0.2"/>
<path d="M84.4696 241.476C85.1776 246.808 85.5276 252.181 85.5171 257.559C85.5171 257.631 85.5458 257.7 85.5968 257.75C85.6479 257.801 85.7172 257.829 85.7894 257.829C85.8616 257.829 85.9309 257.801 85.982 257.75C86.0331 257.7 86.0618 257.631 86.0618 257.559C86.2635 252.129 85.9126 246.692 85.0143 241.331C84.9619 240.978 84.4277 241.134 84.4696 241.476Z" fill="#95165B" fill-opacity="0.2"/>
<path d="M83.621 238.332C83.4201 244.646 83.6545 250.966 84.3229 257.248C84.3229 257.601 84.9199 257.632 84.899 257.248C84.6895 250.939 84.2391 244.651 84.2181 238.332C84.2181 238.252 84.1861 238.176 84.1291 238.119C84.0722 238.063 83.9949 238.031 83.9143 238.031C83.8338 238.031 83.7565 238.063 83.6995 238.119C83.6426 238.176 83.6106 238.252 83.6106 238.332H83.621Z" fill="#95165B" fill-opacity="0.2"/>
<path d="M88.8899 265.186C88.461 268.477 88.6456 271.818 89.4346 275.043C89.5184 275.386 90.0945 275.324 90.0631 274.96C89.7489 271.692 89.5289 268.475 89.5184 265.186C89.5184 264.771 88.9318 264.802 88.8899 265.186Z" fill="#95165B" fill-opacity="0.2"/>
<path d="M86.6692 265.497C86.94 268.391 87.3596 271.269 87.9262 274.12C87.989 274.431 88.5128 274.358 88.4814 274.047C88.2242 271.154 87.8186 268.276 87.2663 265.424C87.2034 265.092 86.6273 265.165 86.6587 265.507L86.6692 265.497Z" fill="#95165B" fill-opacity="0.2"/>
<path d="M85.14 266.67C85.3863 269.062 85.8064 271.434 86.397 273.767C86.4808 274.089 87.036 274.037 87.0045 273.684C86.7577 271.32 86.3411 268.975 85.758 266.67C85.6742 266.338 85.0981 266.4 85.14 266.753V266.67Z" fill="#95165B" fill-opacity="0.2"/>
<path d="M82.8982 268.35C83.127 269.717 83.5099 271.053 84.04 272.335C84.0739 272.392 84.1259 272.437 84.188 272.461C84.2501 272.486 84.3187 272.49 84.3832 272.472C84.4477 272.455 84.5044 272.416 84.5447 272.363C84.5849 272.31 84.6063 272.246 84.6056 272.179C84.3917 270.808 84.0228 269.464 83.5058 268.174C83.4835 268.094 83.4302 268.026 83.3575 267.986C83.2848 267.945 83.1987 267.934 83.1182 267.956C83.0376 267.978 82.9692 268.031 82.9279 268.103C82.8867 268.175 82.876 268.26 82.8982 268.34V268.35Z" fill="#95165B" fill-opacity="0.2"/>
<path d="M82.6889 270.073C82.661 270.581 82.661 271.09 82.6889 271.599C82.7017 271.665 82.7375 271.725 82.7901 271.768C82.8426 271.811 82.9087 271.834 82.9769 271.834C83.0451 271.834 83.1112 271.811 83.1638 271.768C83.2164 271.725 83.2522 271.665 83.265 271.599C83.2929 271.09 83.2929 270.581 83.265 270.073C83.265 269.987 83.2302 269.903 83.1683 269.842C83.1065 269.781 83.0225 269.746 82.935 269.746C82.8475 269.746 82.7636 269.781 82.7017 269.842C82.6399 269.903 82.6051 269.987 82.6051 270.073H82.6889Z" fill="#95165B" fill-opacity="0.2"/>
<path d="M28.6069 220.506C29.493 221.377 30.2228 222.391 30.7647 223.505C30.9323 223.816 31.3827 223.598 31.3199 223.276C30.9944 221.933 30.1721 220.759 29.0154 219.987C28.7116 219.769 28.345 220.246 28.6174 220.506H28.6069Z" fill="#95165B" fill-opacity="0.2"/>
<path d="M30.0733 218.648C30.7856 219.873 31.456 221.128 32.2731 222.28C32.3188 222.328 32.3799 222.36 32.4461 222.369C32.5124 222.378 32.5798 222.365 32.6373 222.331C32.6948 222.297 32.7388 222.245 32.7621 222.183C32.7854 222.121 32.7866 222.052 32.7654 221.99C32.1474 220.713 31.3827 219.51 30.6704 218.296C30.6176 218.234 30.5448 218.194 30.4646 218.18C30.3844 218.167 30.3021 218.182 30.2321 218.223C30.162 218.264 30.1088 218.328 30.0817 218.404C30.0546 218.48 30.0553 218.563 30.0838 218.638L30.0733 218.648Z" fill="#95165B" fill-opacity="0.2"/>
<path d="M31.1313 216.179C31.733 218.665 32.7681 221.028 34.1899 223.162C34.2335 223.224 34.299 223.267 34.3734 223.284C34.4478 223.3 34.5257 223.288 34.5916 223.25C34.6575 223.212 34.7067 223.151 34.7293 223.079C34.7519 223.007 34.7463 222.929 34.7137 222.861C33.6662 220.578 32.6711 218.337 31.7597 216.013C31.7361 215.93 31.6804 215.86 31.6047 215.818C31.5291 215.777 31.4398 215.766 31.3565 215.79C31.2731 215.813 31.2026 215.868 31.1603 215.943C31.1181 216.018 31.1076 216.107 31.1313 216.189V216.179Z" fill="#95165B" fill-opacity="0.2"/>
<path d="M32.7655 217.383C33.4332 219.604 34.2954 221.764 35.3423 223.837C35.3836 223.895 35.444 223.938 35.5132 223.957C35.5825 223.977 35.6564 223.972 35.7227 223.944C35.789 223.916 35.8435 223.867 35.8772 223.804C35.911 223.741 35.9218 223.668 35.9079 223.598C35.2401 221.376 34.3779 219.217 33.3311 217.144C33.1844 216.822 32.6502 217.051 32.7655 217.383Z" fill="#95165B" fill-opacity="0.2"/>
<path d="M34.6403 217.673C35.3631 219.427 36.044 221.201 36.9029 222.861C36.9411 222.909 36.9942 222.944 37.0539 222.959C37.1136 222.974 37.1768 222.97 37.2338 222.946C37.2907 222.923 37.3384 222.881 37.3694 222.829C37.4005 222.776 37.4132 222.714 37.4057 222.654C36.7877 220.859 35.9916 219.126 35.2374 217.383C35.0908 217.05 34.4937 217.289 34.6403 217.632V217.673Z" fill="#95165B" fill-opacity="0.2"/>
<path d="M36.8401 217.964C37.3429 219.323 37.8876 220.672 38.4428 221.99C38.5685 222.26 39.0189 222.073 38.9246 221.782C38.4951 220.433 37.9819 219.116 37.4581 217.798C37.3115 217.424 36.6935 217.58 36.8401 217.964Z" fill="#95165B" fill-opacity="0.2"/>
<path d="M38.9561 218.939C39.1866 219.644 39.4066 220.35 39.6999 221.014C39.7223 221.079 39.7691 221.134 39.8307 221.166C39.8924 221.198 39.9641 221.206 40.0312 221.187C40.0983 221.169 40.1556 221.125 40.1914 221.066C40.2272 221.007 40.2387 220.936 40.2236 220.869C40.0455 220.153 39.8151 219.447 39.5846 218.794C39.4589 218.399 38.8304 218.576 38.9666 218.96L38.9561 218.939Z" fill="#95165B" fill-opacity="0.2"/>
<path d="M26.91 289.56C28.1198 288.266 29.0627 286.75 29.6858 285.098C29.801 284.766 29.3087 284.579 29.1202 284.859C28.2089 286.291 27.3499 287.754 26.3338 289.124C26.0929 289.445 26.6271 289.86 26.8995 289.56H26.91Z" fill="#95165B" fill-opacity="0.2"/>
<path d="M26.2814 288.221C27.3289 286.81 28.3764 285.409 29.3505 283.936C29.5286 283.666 29.0991 283.313 28.8896 283.583C27.7793 284.973 26.7947 286.457 25.7472 287.91C25.5167 288.242 26.0509 288.543 26.2814 288.221Z" fill="#95165B" fill-opacity="0.2"/>
<path d="M26.2815 293.71C26.7005 292.901 27.1405 292.102 27.5176 291.272C27.6537 290.981 27.2347 290.722 27.0671 291.012C26.6272 291.811 26.2396 292.631 25.8311 293.451C25.6845 293.741 26.1244 294.001 26.2815 293.71Z" fill="#95165B" fill-opacity="0.2"/>
<path d="M23.956 290.317C27.5803 296.346 27.8632 303.36 28.0831 310.177C28.1053 313.502 28.2976 316.823 28.6593 320.128C28.9526 322.307 29.4344 324.528 30.9952 326.178C31.0491 326.201 31.1086 326.208 31.1668 326.2C31.225 326.191 31.2796 326.167 31.3243 326.129C31.3691 326.091 31.4022 326.041 31.42 325.986C31.4377 325.93 31.4393 325.871 31.4246 325.814C27.7689 320.19 29.0259 312.605 28.7535 306.224C28.5126 300.527 27.5803 294.903 24.4588 290.006C24.4103 289.945 24.3412 289.904 24.2642 289.889C24.1873 289.875 24.1076 289.888 24.04 289.928C23.9724 289.967 23.9214 290.029 23.8963 290.102C23.8713 290.176 23.8739 290.256 23.9037 290.328L23.956 290.317Z" fill="#95165B" fill-opacity="0.2"/>
<path d="M45.7439 291.822C46.8769 297.988 47.5213 304.233 47.6713 310.499C47.6599 316.495 47.2646 322.483 46.4876 328.429C46.4352 328.958 47.3151 329.073 47.4199 328.554C49.7872 316.58 49.1168 303.526 46.4353 291.666C46.3305 291.22 45.6706 291.417 45.7544 291.853L45.7439 291.822Z" fill="#95165B" fill-opacity="0.2"/>
<path d="M38.0448 191.847C35.1957 200.5 33.6454 209.839 27.5699 216.947C27.35 217.206 27.6433 217.683 27.968 217.455C31.1105 215.162 32.7655 211.074 34.0644 207.525C35.991 202.482 37.5762 197.317 38.8095 192.064C38.8373 191.963 38.8231 191.854 38.7701 191.763C38.717 191.671 38.6295 191.604 38.5267 191.577C38.4239 191.549 38.3143 191.563 38.2219 191.616C38.1296 191.668 38.0621 191.755 38.0344 191.857L38.0448 191.847Z" fill="#95165B" fill-opacity="0.2"/>
<path d="M37.2277 336.377C44.0888 332.901 51.7669 333.088 59.225 333.586C66.9031 334.105 74.5498 334.624 82.2698 334.977C98.4325 335.63 114.606 335.402 130.748 334.499C131.083 334.499 131.083 333.96 130.748 333.981C113.998 334.832 97.2147 334.805 80.4681 333.898C72.6015 333.472 64.7558 332.59 56.8996 332.217C50.0804 331.885 43.0204 332.559 36.9973 335.89C36.6726 336.066 36.9973 336.554 37.2906 336.377H37.2277Z" fill="#95165B" fill-opacity="0.2"/>
<path d="M41.4387 335.755C44.864 336.097 48.3102 336.18 51.7565 336.315C55.1883 336.589 58.632 336.689 62.0742 336.616C62.4932 336.616 62.6608 335.9 62.179 335.838C58.8649 335.518 55.5366 335.366 52.2069 335.381C48.614 335.257 45.0316 335.07 41.4387 335.163C41.3581 335.163 41.2809 335.195 41.2239 335.251C41.1669 335.308 41.1349 335.384 41.1349 335.464C41.1349 335.544 41.1669 335.62 41.2239 335.677C41.2809 335.733 41.3581 335.765 41.4387 335.765V335.755Z" fill="#95165B" fill-opacity="0.2"/>
<path d="M64.3262 336.284C64.3262 336.398 64.3262 336.523 64.3262 336.637C64.3484 336.716 64.391 336.788 64.4497 336.846C64.5085 336.905 64.5814 336.947 64.6614 336.969C64.7463 336.997 64.8383 336.997 64.9233 336.969C65.0033 336.947 65.0762 336.905 65.1349 336.846C65.1937 336.788 65.2362 336.716 65.2585 336.637C65.2585 336.523 65.2585 336.398 65.2585 336.284C65.2585 336.146 65.2033 336.014 65.1051 335.917C65.0068 335.82 64.8736 335.765 64.7347 335.765C64.5958 335.765 64.4626 335.82 64.3644 335.917C64.2662 336.014 64.211 336.146 64.211 336.284H64.3262Z" fill="#95165B" fill-opacity="0.2"/>
<path d="M44.2565 189.273C47.4375 190.187 50.8287 190.082 53.9458 188.972C56.3236 188.235 58.9109 186.949 61.0058 188.972C62.3047 190.259 62.7342 193.693 62.9542 195.437C63.0903 196.474 62.6713 200.957 65.1539 200.22C66.0024 199.971 66.2014 199.006 66.5575 198.311C66.9137 197.616 67.4793 196.236 68.2964 195.758C72.8844 193.341 72.193 200.614 69.1134 200.23C68.9439 200.23 68.7814 200.297 68.6616 200.416C68.5418 200.535 68.4744 200.695 68.4744 200.863C68.4744 202.119 69.1867 202.939 69.899 203.914C70.758 205.149 71.5855 206.415 72.5492 207.577C72.9682 208.085 73.7747 207.432 73.45 206.882C72.8634 205.844 72.1721 204.931 71.5121 203.976C70.8522 203.022 69.7419 201.984 69.7419 200.863L69.1029 201.496C72.2454 201.87 73.8795 196.879 72.2454 194.689C71.8633 194.164 71.296 193.8 70.6558 193.67C70.0157 193.539 69.3493 193.651 68.7887 193.984C67.9506 194.5 67.2357 195.19 66.6937 196.007C66.0966 196.806 65.9395 198.083 64.9025 197.844C63.8655 197.605 64.1797 195.872 64.0331 194.824C63.8436 193.519 63.5315 192.233 63.1008 190.985C62.5771 189.481 61.98 187.499 60.304 186.907C58.4604 186.254 56.2083 187.219 54.48 187.789C51.2719 188.895 47.8301 189.163 44.4869 188.567C44.4008 188.544 44.3088 188.556 44.2312 188.599C44.1536 188.643 44.0968 188.716 44.0732 188.801C44.0496 188.886 44.0611 188.977 44.1053 189.054C44.1495 189.131 44.2227 189.187 44.3088 189.211L44.2565 189.273Z" fill="#95165B" fill-opacity="0.2"/>
<path d="M93.876 221.896C112.135 221.255 130.416 221.654 148.628 223.09C148.886 223.087 149.132 222.984 149.314 222.804C149.496 222.624 149.6 222.38 149.602 222.125C148.314 206.28 147.225 189.211 153.635 174.249C159.365 160.832 171.076 151.545 180.168 140.495C189.596 128.967 194.781 114.979 191.973 100.027C189.512 86.9636 181.038 75.8714 170.447 68.0477C158.119 58.9373 143.098 54.6416 127.982 52.9606C110.823 51.1954 93.5119 51.4916 76.4248 53.8426C60.4925 55.9178 45.1363 60.8569 31.8646 70.0088C19.5775 78.4758 8.89315 90.0246 3.45668 103.95C-1.64459 117.013 -1.70744 134.041 7.37429 145.579C9.55307 148.381 12.3708 148.381 15.7123 148.505L29.4554 148.982C38.6174 149.301 47.7795 149.609 56.9415 149.906C61.519 150.051 66.107 150.124 70.6846 150.269C70.9235 150.269 71.1526 150.175 71.3215 150.008C71.4905 149.84 71.5854 149.613 71.5854 149.377C70.1084 137.88 68.7362 123.436 77.6504 114.357C85.716 106.16 99.8886 105.713 109.347 111.721C111.966 113.382 114.459 115.727 115.37 118.756C116.282 121.786 115.287 124.982 113.579 127.618C110.259 132.806 105.116 136.655 101.24 141.397C93.7991 150.512 88.3361 161.049 85.1923 172.35C81.5553 185.265 81.0777 198.853 83.7991 211.987C84.0924 213.378 86.2293 212.786 85.8941 211.406C80.4053 185.258 88.6176 156.785 107.441 137.61C111.505 133.46 116.743 129.039 117.664 122.99C118.534 117.242 114.731 112.562 110.028 109.698C100.601 103.939 87.2663 104.095 78.415 110.943C66.6622 120.043 68.1182 136.344 69.658 149.335L70.5589 148.443C53.1496 147.751 35.7403 147.059 18.331 146.368C16.3932 146.295 14.4029 146.368 12.4756 146.108C10.0035 145.797 8.84078 144.033 7.63616 142.072C5.75477 138.98 4.34299 135.631 3.44621 132.131C1.65562 124.941 1.71685 117.42 3.62428 110.258C7.52094 95.8457 17.5978 83.6017 29.3297 74.5847C41.69 65.0697 56.2502 59.4146 71.6063 56.7895C87.8507 54.1697 104.346 53.4142 120.765 54.5378C136.09 55.482 151.645 58.6883 164.76 66.8337C175.894 73.6716 185.28 84.0479 188.978 96.655C191.154 104.161 191.262 112.108 189.292 119.67C187.318 126.614 183.88 133.064 179.204 138.596C171.065 148.713 160.685 157.149 154.285 168.573C147.067 181.45 146.324 196.589 146.952 210.96C147.12 214.664 147.392 218.368 147.633 222.073L148.607 221.108C130.414 219.351 112.118 218.865 93.855 219.655C92.4095 219.717 92.399 221.938 93.855 221.886L93.876 221.896Z" fill="#95165B" fill-opacity="0.2"/>
<path d="M149.32 223.795C151.058 219.894 154.128 217.019 157.008 213.948C159.623 211.245 161.733 208.104 163.241 204.672C166.456 197.138 167.033 188.879 169.159 181.045C171.551 172.202 175.838 163.974 181.729 156.92C186.966 150.611 193.335 145.236 198.489 138.814C203.249 133.113 206.384 126.257 207.57 118.953C208.497 112.111 207.878 105.151 205.758 98.5744C201.306 84.3071 191.324 72.6338 178.377 65.2044C170.336 60.6818 161.636 57.4196 152.588 55.5337C148.032 54.547 143.427 53.7988 138.792 53.2924C134.022 52.5988 129.191 52.4006 124.379 52.701C123.719 52.7633 123.426 53.832 124.211 53.9565C132.214 55.212 140.322 55.2743 148.303 56.7685C156.511 58.2221 164.495 60.7156 172.061 64.1875C186.076 70.7868 197.63 81.6715 203.119 96.2398C205.66 102.804 206.666 109.853 206.062 116.857C205.218 124.48 202.146 131.693 197.221 137.61C192.235 143.836 186.139 149.086 180.954 155.146C175.72 161.258 171.653 168.261 168.949 175.815C165.922 184.303 165.566 193.455 162.591 201.922C160.996 206.325 158.455 210.332 155.144 213.668C152.336 216.615 149.529 219.479 147.958 223.276C147.644 224.044 149.005 224.604 149.32 223.847V223.795Z" fill="#95165B" fill-opacity="0.2"/>
<path d="M72.1091 149.553C76.2111 145.668 80.8317 142.358 85.8417 139.716C89.6755 137.714 94.0749 136.282 94.7977 131.477C95.1643 129.049 94.6406 126.632 94.6929 124.214C94.7509 121.723 95.4119 119.282 96.6203 117.096C99.1448 112.551 105 108.639 109.819 112.458C109.952 112.59 110.13 112.669 110.318 112.681C110.506 112.692 110.692 112.636 110.842 112.521C110.991 112.407 111.092 112.242 111.128 112.058C111.163 111.875 111.13 111.685 111.034 111.524C109.075 107.373 102.56 109.044 99.6476 111.016C97.7651 112.376 96.1946 114.116 95.0391 116.121C93.8837 118.126 93.1696 120.35 92.9436 122.647C92.6084 125.542 93.4569 128.499 92.9436 131.363C92.2628 135.026 88.8899 136.074 85.9255 137.589C80.3622 140.373 75.2643 143.989 70.8102 148.308C69.9513 149.138 71.2606 150.383 72.1196 149.605L72.1091 149.553Z" fill="#95165B" fill-opacity="0.2"/>
<path d="M149.728 219.499C155.112 211.551 160.475 203.541 165.493 195.364C165.849 194.783 164.969 194.327 164.592 194.845C159.093 202.721 153.897 210.835 148.764 218.949C148.377 219.562 149.33 220.101 149.728 219.51V219.499Z" fill="#95165B" fill-opacity="0.2"/>
<path d="M151.142 207.151C155.039 201.87 158.988 196.62 162.748 191.245C163.157 190.664 162.225 190.207 161.806 190.705C157.804 195.893 153.981 201.258 150.116 206.57C149.665 207.183 150.692 207.764 151.163 207.162L151.142 207.151Z" fill="#95165B" fill-opacity="0.2"/>
<path d="M148.377 204.599C153.776 198.794 158.625 192.511 162.864 185.828C163.23 185.226 162.319 184.728 161.921 185.289C157.484 191.713 152.679 197.879 147.528 203.758C147.015 204.329 147.864 205.18 148.377 204.599Z" fill="#95165B" fill-opacity="0.2"/>
<path d="M145.81 198.622C150.168 194.264 154.683 189.999 158.82 185.423C158.927 185.317 158.987 185.174 158.987 185.024C158.987 184.874 158.927 184.73 158.82 184.624C158.713 184.519 158.568 184.459 158.417 184.459C158.266 184.459 158.121 184.519 158.014 184.624C153.468 188.775 149.257 193.361 144.941 197.761C144.386 198.332 145.255 199.193 145.821 198.632L145.81 198.622Z" fill="#95165B" fill-opacity="0.2"/>
<path d="M9.15512 132.888C7.14394 118.932 11.3444 104.655 19.2529 93.1059C27.1615 81.5571 39.0714 72.9033 51.9555 67.3313C59.5184 64.0628 67.3327 62.1431 75.3041 60.2132C75.964 60.0471 75.6707 59.1755 75.0317 59.1755C60.1524 61.3358 46.0431 67.1068 33.9597 75.9747C22.4897 84.4728 13.5022 96.2188 9.42747 109.915C7.14901 117.467 6.64735 125.436 7.96099 133.21C8.09716 133.988 9.2494 133.646 9.14465 132.888H9.15512Z" fill="#95165B" fill-opacity="0.2"/>
<path d="M91.1316 58.6048C91.1149 58.9329 91.1647 59.261 91.2782 59.5697C91.3282 59.6536 91.3994 59.7232 91.4849 59.7715C91.5703 59.8198 91.6669 59.8452 91.7653 59.8452C91.8637 59.8452 91.9603 59.8198 92.0457 59.7715C92.1311 59.7232 92.2024 59.6536 92.2524 59.5697C92.3658 59.261 92.4157 58.9329 92.399 58.6048C92.399 58.4396 92.3328 58.2813 92.2149 58.1645C92.0971 58.0478 91.9372 57.9822 91.7705 57.9822C91.6038 57.9822 91.444 58.0478 91.3261 58.1645C91.2083 58.2813 91.142 58.4396 91.142 58.6048H91.1316Z" fill="#95165B" fill-opacity="0.2"/>
<path d="M173.443 80.0112C179.096 85.8877 182.631 93.4494 183.499 101.521C184.421 109.646 182.452 117.085 178.764 124.349C178.697 124.498 178.688 124.667 178.739 124.823C178.789 124.979 178.897 125.111 179.04 125.193C179.183 125.276 179.351 125.303 179.513 125.27C179.675 125.236 179.819 125.145 179.917 125.013C184.966 118.331 186.327 109.013 185.269 100.899C184.26 92.6216 180.362 84.9543 174.25 79.2226C174.141 79.1152 173.994 79.0549 173.841 79.0549C173.688 79.0549 173.541 79.1152 173.433 79.2226C173.324 79.3299 173.264 79.4754 173.264 79.6272C173.264 79.779 173.324 79.9246 173.433 80.0319L173.443 80.0112Z" fill="#95165B" fill-opacity="0.2"/>
<path d="M177.13 108.722C177.143 112.066 175.972 115.308 173.82 117.884C173.716 118.006 173.662 118.161 173.668 118.32C173.674 118.48 173.741 118.63 173.855 118.743C173.968 118.856 174.121 118.922 174.281 118.928C174.442 118.934 174.599 118.88 174.721 118.777C176.13 117.5 177.201 115.901 177.84 114.119C178.479 112.337 178.667 110.427 178.387 108.556C178.283 107.84 177.151 108.037 177.141 108.722H177.13Z" fill="#95165B" fill-opacity="0.2"/>
<path d="M52.961 139.322C55.6425 134.487 58.5336 129.703 60.9323 124.722C61.0115 124.585 61.0323 124.422 60.99 124.269C60.9478 124.116 60.846 123.986 60.7071 123.908C60.5682 123.83 60.4036 123.809 60.2493 123.851C60.0951 123.893 59.964 123.993 59.8848 124.131C56.9519 128.831 54.4589 133.822 51.7982 138.658C51.3897 139.394 52.521 140.048 52.9295 139.311L52.961 139.322Z" fill="#95165B" fill-opacity="0.2"/>
<path d="M56.3444 140.65C58.8557 137.125 61.1773 133.471 63.2997 129.703C63.3499 129.569 63.3508 129.421 63.3022 129.286C63.2536 129.151 63.1587 129.037 63.034 128.964C62.9093 128.891 62.7627 128.864 62.6199 128.887C62.477 128.91 62.3469 128.982 62.2522 129.091C59.7276 132.616 57.3919 136.27 55.255 140.038C54.8255 140.743 55.9149 141.356 56.3653 140.681L56.3444 140.65Z" fill="#95165B" fill-opacity="0.2"/>
<path d="M60.545 142.746C61.757 141.186 62.8762 139.558 63.8969 137.869C64.1902 137.34 63.457 136.707 63.017 137.195C61.7259 138.777 60.5297 140.433 59.4346 142.155C58.9633 142.829 60.0736 143.462 60.545 142.798V142.746Z" fill="#95165B" fill-opacity="0.2"/>
</g>
<defs>
<clipPath id="clip0_271_33">
<rect width="208" height="337" fill="white"/>
</clipPath>
</defs>
</svg>
