<svg width="33" height="32" viewBox="0 0 33 32" fill="none" xmlns="http://www.w3.org/2000/svg">
<path d="M17.5 25H28.5C29.6046 25 30.5 24.1046 30.5 23V12.5C30.5 11.3954 29.6046 10.5 28.5 10.5H18.5C17.3954 10.5 16.5 11.3954 16.5 12.5V14.5" stroke="#941759" stroke-width="2" stroke-linecap="round" stroke-linejoin="round"/>
<rect x="2.5" y="15" width="15" height="15" rx="2" stroke="#941759" stroke-width="2" stroke-linecap="round" stroke-linejoin="round"/>
<path d="M6.5 22.5H13.5" stroke="#941759" stroke-width="2" stroke-linecap="round" stroke-linejoin="round"/>
<path d="M20.5 17.5H26.5" stroke="#941759" stroke-width="2" stroke-linecap="round" stroke-linejoin="round"/>
<path d="M9.5 19H13.5" stroke="#941759" stroke-width="2" stroke-linecap="round" stroke-linejoin="round"/>
<path d="M23.5 14H26.5" stroke="#941759" stroke-width="2" stroke-linecap="round" stroke-linejoin="round"/>
<path d="M6.5 26H13.5" stroke="#941759" stroke-width="2" stroke-linecap="round" stroke-linejoin="round"/>
<path d="M20.5 21H26.5" stroke="#941759" stroke-width="2" stroke-linecap="round" stroke-linejoin="round"/>
<path d="M23.5 0.999999L26.5 4.11111M23.5 0.999999L20.5 4.11111M23.5 0.999999L23.5 7" stroke="#941759" stroke-width="2" stroke-linecap="round" stroke-linejoin="round"/>
<path d="M9.5 12L6.5 8.88889M9.5 12L12.5 8.88889M9.5 12L9.5 6" stroke="#941759" stroke-width="2" stroke-linecap="round" stroke-linejoin="round"/>
</svg>
