<svg width="16" height="22" viewBox="0 0 16 22" fill="none" xmlns="http://www.w3.org/2000/svg">
<g clip-path="url(#clip0_323_1233)">
<path d="M15.4543 4.43808C15.1014 3.21943 14.394 2.14545 13.4302 1.36488C12.4663 0.584312 11.2937 0.135798 10.0747 0.0814612H9.94479C9.78897 0.0727737 9.63282 0.0727737 9.477 0.0814612C9.13682 0.0186682 8.7915 -0.00858241 8.44614 0.000113661H8.35085C7.12981 0.0814067 5.9609 0.546199 4.9977 1.33342C4.0345 2.12065 3.32206 3.19348 2.95399 4.41096C2.15895 7.16257 2.24103 10.109 3.18788 12.8078C3.84625 14.8777 5.61344 17.7248 7.03412 20.0387C7.42394 20.6624 7.77911 21.2409 8.06498 21.729L8.16893 21.8645C8.19896 21.904 8.23715 21.9359 8.28066 21.9578C8.32416 21.9797 8.37185 21.9911 8.42015 21.9911C8.48765 21.9853 8.5515 21.9567 8.60207 21.9097H9.99676C10.0381 21.9103 10.079 21.8998 10.1154 21.8792C10.1518 21.8586 10.1825 21.8287 10.2047 21.7922C10.5079 21.2861 10.8804 20.6805 11.2875 19.9845C12.7342 17.6616 14.536 14.7692 15.1771 12.7536C16.1265 10.0855 16.2237 7.16858 15.4543 4.43808ZM13.3406 15.7183C13.0203 15.6986 12.6992 15.6986 12.379 15.7183L12.6822 15.1398H13.6524L13.3406 15.7183ZM12.7602 16.7487H11.8333L12.1798 16.134C12.5696 16.134 12.8381 16.0798 13.15 16.0798L12.7602 16.7487ZM10.4645 20.5087H9.96211H9.52031L9.81485 20.0387L9.89281 19.9122L10.8111 19.8851L10.4645 20.5087ZM13.1586 1.80784H12.4223C12.2764 1.65524 12.1231 1.51044 11.9632 1.37398H12.0412H12.5782C12.7808 1.50494 12.9747 1.64988 13.1586 1.80784ZM13.947 2.63035H13.5225H13.1067C12.9854 2.44355 12.8555 2.26579 12.7169 2.09707H12.7948H13.5225C13.6702 2.26058 13.809 2.43258 13.9383 2.61227L13.947 2.63035ZM14.4927 3.45287H14.0769H13.5658C13.4907 3.2962 13.4099 3.14555 13.3232 3.00094H13.5571C13.7641 2.97421 13.9723 2.95912 14.1808 2.95574C14.2935 3.1094 14.3974 3.27209 14.4927 3.43479V3.45287ZM15.359 6.00176H14.3454C14.3454 5.82098 14.2848 5.64021 14.2501 5.46848H15.2637C15.2723 5.62213 15.307 5.80291 15.333 5.98368L15.359 6.00176ZM15.4976 8.96642H14.4667C14.4667 8.7495 14.4667 8.54161 14.4667 8.32468H15.4976C15.5062 8.52353 15.4889 8.73142 15.4716 8.94835L15.4976 8.96642ZM15.4976 7.97218H14.4667C14.4667 7.71909 14.4667 7.47505 14.4667 7.22197H15.4889C15.4976 7.45697 15.5062 7.71006 15.5062 7.9541L15.4976 7.97218ZM14.2848 10.3403H15.3157C15.3157 10.5482 15.2377 10.7651 15.1944 10.982H14.1722C14.2155 10.747 14.2588 10.5391 14.2935 10.3222L14.2848 10.3403ZM15.3676 9.94259H14.3368C14.3368 9.72567 14.3974 9.51778 14.4147 9.30085H15.4456C15.4283 9.51778 15.3936 9.72567 15.3676 9.94259ZM15.4543 6.8785H14.4321C14.4321 6.69773 14.4321 6.50792 14.3801 6.32715H15.3936C15.4196 6.51696 15.4369 6.69773 15.4543 6.8785ZM14.1375 5.12501C14.0856 4.9352 14.0336 4.74539 13.9816 4.55558H14.9865C15.0385 4.71827 15.0818 4.89001 15.1251 5.0527L14.1375 5.12501ZM14.8565 4.22115H14.7266C14.4494 4.22115 14.1808 4.22115 13.8603 4.22115C13.817 4.09461 13.765 3.96807 13.7131 3.84153H14.0856H14.666C14.7266 3.92287 14.7959 4.05845 14.8565 4.20307V4.22115ZM11.5387 1.05763C11.3686 0.933332 11.1922 0.818677 11.0103 0.714165C11.3443 0.78903 11.6695 0.901151 11.9805 1.04859L11.5387 1.05763ZM11.0623 19.5506H10.7937H10.1094L10.4819 18.9541H11.4174L11.0623 19.5506ZM11.634 18.6468H10.6898L11.0536 18.0502H11.9805L11.634 18.6468ZM12.1971 17.7429H11.2615L11.6167 17.1464H12.5349L12.1971 17.7429ZM13.8603 14.7873H12.8901L13.176 14.1907H14.1549L13.8603 14.7873ZM14.3194 13.8382H13.3319C13.4185 13.6304 13.5052 13.4315 13.5745 13.2417H14.1635H14.5793C14.4754 13.4134 14.3888 13.6213 14.2935 13.8292L14.3194 13.8382ZM14.7266 12.6542L14.6486 12.8892H14.0769H13.6351V12.7898C13.6871 12.6271 13.7304 12.4644 13.7737 12.3017H14.7872C14.8219 12.4011 14.7959 12.5096 14.7266 12.6542ZM14.9172 11.9672H13.9036C13.9643 11.7503 14.0076 11.5424 14.0596 11.3255H15.0818C15.0731 11.5063 15.0125 11.7503 14.9605 11.9311L14.9172 11.9672ZM7.57121 19.6591C6.16785 17.3995 4.42665 14.5884 3.79427 12.5999C2.89473 10.0384 2.81269 7.24207 3.56038 4.62789C3.88604 3.5427 4.51705 2.58483 5.37139 1.8788C6.22572 1.17277 7.26386 0.751224 8.35085 0.668971H8.48079C9.58272 0.723597 10.6412 1.13379 11.5102 1.84292C12.3791 2.55206 13.0156 3.52516 13.3319 4.62789C14.0796 7.24207 13.9975 10.0384 13.098 12.5999C12.4743 14.5704 10.6205 17.5441 9.2691 19.7133L8.40283 21.0601L7.57121 19.6591ZM9.90147 21.4216H8.97456L9.28642 20.9155H9.96211H10.2307L9.90147 21.4216Z" fill="white"/>
<path d="M12.0672 7.0953C12.0723 6.34692 11.8643 5.61381 11.4696 4.98894C11.0749 4.36407 10.5112 3.8756 9.84997 3.58548C9.18879 3.29536 8.45992 3.21666 7.75581 3.35936C7.0517 3.50206 6.40407 3.85974 5.89506 4.38703C5.38605 4.91432 5.0386 5.58746 4.89676 6.32107C4.75492 7.05469 4.8251 7.81574 5.09838 8.50768C5.37167 9.19963 5.83575 9.7913 6.43177 10.2077C7.02779 10.624 7.7289 10.8463 8.44617 10.8463C9.40204 10.8464 10.3191 10.452 10.9975 9.74934C11.6758 9.04665 12.0603 8.09262 12.0672 7.0953ZM6.00329 8.84879H7.20741C7.31187 9.05055 7.43059 9.24391 7.56258 9.42726H6.49706C6.30709 9.25709 6.13829 9.06276 5.99463 8.84879H6.00329ZM5.57016 7.87262H6.83491C6.89025 8.08529 6.95972 8.29369 7.04281 8.49629H5.79539C5.69893 8.2975 5.62341 8.08839 5.57016 7.87262ZM7.55391 4.25717H7.25938C7.39692 4.19475 7.53882 4.14338 7.68385 4.10352L7.55391 4.25717ZM6.68764 4.60064H7.3027C7.15894 4.80149 7.03419 5.01641 6.9302 5.24238L6.06393 5.2695C6.2418 5.00429 6.45806 4.7695 6.70497 4.57352L6.68764 4.60064ZM5.82137 5.64912H6.83491C6.76856 5.87009 6.72216 6.09704 6.69631 6.32702H5.56149C5.62009 6.08178 5.70737 5.845 5.82137 5.622V5.64912ZM5.4662 7.0953C5.45844 6.96587 5.45844 6.83607 5.4662 6.70664H6.64433C6.63026 6.89918 6.63026 7.09257 6.64433 7.28511C6.64433 7.36646 6.64433 7.44781 6.68764 7.52915H5.43155C5.43335 7.38387 5.44492 7.23889 5.4662 7.0953ZM7.79647 9.73458C7.93419 9.89505 8.08177 10.046 8.23827 10.1865C7.77636 10.1538 7.32829 10.0083 6.9302 9.76169L7.79647 9.73458ZM11.4001 7.08626C11.3978 7.81027 11.1533 8.51072 10.7089 9.06679C10.2645 9.62286 9.6481 9.99968 8.96593 10.1323C8.48336 9.80004 8.07498 9.3633 7.76855 8.85174C7.46213 8.34019 7.26483 7.7658 7.19008 7.16761C7.11368 6.56395 7.19581 5.94998 7.42771 5.39123C7.65962 4.83247 8.03259 4.34991 8.50681 3.99505C9.28358 4.0139 10.0226 4.34856 10.5663 4.92768C11.11 5.50681 11.4154 6.28461 11.4175 7.0953L11.4001 7.08626Z" fill="white"/>
<path d="M3.80297 16.9747L3.62971 16.6403L3.46512 16.2697L3.0753 15.3659C2.92803 15.0676 2.84141 14.7241 2.7028 14.3987C2.56624 14.0562 2.44767 13.7062 2.34763 13.3502L2.02711 12.2475L1.79322 11.1267C1.71545 10.7633 1.66047 10.3949 1.62863 10.024L1.56799 9.49979C1.53939 9.34775 1.52201 9.19364 1.51601 9.03882V8.13496V7.71918V7.33956V6.72493C1.51601 6.38147 1.51601 6.18262 1.51601 6.18262C1.51601 6.18262 1.4727 6.37243 1.4034 6.70686L1.28212 7.31244L1.21282 7.68303C1.21282 7.81861 1.21282 7.96323 1.21282 8.10784L1.16084 9.03882C1.15352 9.39795 1.16799 9.7572 1.20416 10.1144C1.2185 10.497 1.26195 10.8778 1.3341 11.2533L1.55933 12.4193L1.90583 13.5581C2.01698 13.9233 2.15304 14.2798 2.31298 14.6247C2.44306 14.9553 2.59055 15.2782 2.75478 15.5918L3.22256 16.4143C3.30053 16.5409 3.36117 16.6674 3.43047 16.7759L3.6557 17.0832L4.01087 17.5803L4.33139 18.0051C4.33139 18.0051 4.24476 17.8244 4.08883 17.5261L3.80297 16.9747Z" fill="white"/>
<path d="M1.35139 15.1579L1.14349 14.5704C1.06552 14.3625 1.01355 14.1275 0.935584 13.9016C0.85762 13.6756 0.788318 13.4315 0.736342 13.1785L0.563088 12.4283L0.433147 11.66C0.381171 11.4069 0.363846 11.1629 0.329195 10.9188C0.294544 10.6748 0.259894 10.4488 0.259894 10.2228V9.59917C0.259894 9.21051 0.259894 8.87608 0.259894 8.65012V8.28857L0.207917 8.65012L0.0693142 9.03878C0.0385951 9.21484 0.0212159 9.39315 0.017338 9.57206V10.2138C0.00593942 10.4517 0.00593942 10.69 0.017338 10.9279C0.0289815 11.2037 0.0579191 11.4785 0.103965 11.7504L0.225243 12.5367L0.415822 13.305C0.476331 13.5537 0.551552 13.7982 0.641052 14.0371C0.713872 14.2644 0.797719 14.4876 0.89227 14.706L1.16081 15.2845C1.23258 15.4478 1.31658 15.6049 1.41203 15.7545L1.61994 16.107L1.81052 16.4143L1.73255 16.0347C1.61127 15.8177 1.46401 15.5285 1.35139 15.1579Z" fill="white"/>
<path d="M12.379 9.87932C11.9704 10.7371 11.2937 11.424 10.4606 11.8266C9.62752 12.2292 8.68779 12.3234 7.79646 12.0938C7.58855 12.0486 7.44129 12.3197 7.69251 12.374C8.67504 12.6276 9.71103 12.5251 10.6303 12.0832C11.5497 11.6414 12.2977 10.8865 12.7515 9.94259C12.8468 9.77086 12.4657 9.71662 12.379 9.87932Z" fill="white"/>
<path d="M12.0325 11.8228C11.8104 12.1295 11.5321 12.3873 11.214 12.5813C10.8958 12.7752 10.5439 12.9014 10.1787 12.9526C9.92748 12.9526 10.0661 13.269 10.2826 13.2328C11.1084 13.1135 11.8557 12.6587 12.3617 11.9674C12.5003 11.7505 12.1278 11.6782 12.0325 11.8228Z" fill="white"/>
</g>
<defs>
<clipPath id="clip0_323_1233">
<rect width="16" height="22" fill="white"/>
</clipPath>
</defs>
</svg>
