<svg width="40" height="40" viewBox="0 0 40 40" fill="none" xmlns="http://www.w3.org/2000/svg">
<g clip-path="url(#clip0_1469_9)">
<path d="M38 0H2.00002C1 0 -1.57922e-05 1 2.99946e-09 2.00003V38C-1.66593e-06 39 1 40 2.00001 40L38 40C39 40 40 39 40 38V1.99999C40 1 39 0 38 0ZM31.435 15.395C31.7833 23.09 26.045 31.67 15.885 31.67C12.795 31.67 9.92001 30.765 7.49834 29.2117C10.4017 29.5533 13.2983 28.7483 15.5983 26.9467C13.2033 26.9017 11.1833 25.32 10.4883 23.1467C11.3467 23.31 12.19 23.2617 12.9583 23.0533C10.3267 22.525 8.51167 20.155 8.57001 17.62C9.30667 18.03 10.1517 18.2767 11.0467 18.305C8.61167 16.6767 7.92167 13.46 9.35334 11C12.0517 14.31 16.0833 16.4883 20.63 16.7167C19.8317 13.295 22.43 10 25.9617 10C27.5333 10 28.9567 10.6633 29.9533 11.7283C31.2 11.4833 32.3717 11.0283 33.43 10.4017C33.02 11.68 32.1533 12.7517 31.025 13.4283C32.1317 13.295 33.1867 13.0017 34.1667 12.5667C33.435 13.66 32.5067 14.6233 31.435 15.395Z" fill="#555A64"/>
</g>
<defs>
<clipPath id="clip0_1469_9">
<rect width="40" height="40" rx="4" fill="white"/>
</clipPath>
</defs>
</svg>
