<svg width="40" height="40" viewBox="0 0 40 40" fill="none" xmlns="http://www.w3.org/2000/svg">
<g clip-path="url(#clip0_1469_6)">
<path d="M16.6667 15.555L25.555 19.9917L16.6667 24.445V15.555ZM40 2L40 38C40 39 39 40 38 40H1.99998C1 40 0 39 0 38V2.00002C0 1 1 3.20077e-05 2.00001 0L38 1.65999e-05C39 5.20349e-05 40 1 40 2ZM33.3333 20C33.3 13.1283 32.795 10.5 28.4617 10.205C24.4567 9.93169 15.5383 9.93336 11.54 10.205C7.21 10.5 6.7 13.1167 6.66667 20C6.7 26.8717 7.205 29.5 11.5383 29.795C15.5367 30.0667 24.455 30.0683 28.46 29.795C32.79 29.5 33.3 26.8833 33.3333 20Z" fill="#555A64"/>
</g>
<defs>
<clipPath id="clip0_1469_6">
<rect width="40" height="40" fill="white"/>
</clipPath>
</defs>
</svg>
