<svg width="18" height="20" viewBox="0 0 18 20" fill="none" xmlns="http://www.w3.org/2000/svg">
<path fill-rule="evenodd" clip-rule="evenodd" d="M9.90685 0.251114L9.50682 0.228516L6.31488 4.46293L3.88536 7.72682C3.50344 7.42799 3.02252 7.24988 2.5 7.24988C1.25736 7.24988 0.25 8.25724 0.25 9.49988V16.9999C0.25 18.2425 1.25736 19.2499 2.5 19.2499C3.20589 19.2499 3.83585 18.9248 4.24837 18.4162C4.44527 18.5628 4.65567 18.6826 4.86416 18.7787C5.64712 19.1397 6.54843 19.2499 7.14172 19.2499H14.263C15.1402 19.2499 15.7719 18.7889 16.1745 18.2947C16.5676 17.812 16.7884 17.2489 16.8787 16.8587L16.8865 16.8249L16.8912 16.7905C17.1003 15.2509 17.5628 11.7523 17.7317 10.1293C17.8424 9.06706 17.4373 8.30399 16.816 7.84104C16.2463 7.4165 15.5608 7.29015 15.1007 7.29015H11.4215C11.7747 6.31743 12.2898 4.84448 12.5791 3.45546C12.8172 2.31216 12.6377 1.4002 11.9223 0.833968C11.3123 0.351227 10.4746 0.283191 9.90685 0.251114ZM4.75 16.4884C4.75 16.8824 4.97633 17.1787 5.49213 17.4165C6.01822 17.659 6.68777 17.7499 7.14172 17.7499H14.263C14.5586 17.7499 14.7996 17.6075 15.0114 17.3474C15.2226 17.0882 15.3554 16.7649 15.41 16.5506C15.622 14.9876 16.075 11.5564 16.2398 9.97397C16.2968 9.42703 16.1083 9.18436 15.9198 9.04386C15.6797 8.86495 15.3388 8.79015 15.1007 8.79015H9.33662L9.64076 7.81652C9.70647 7.60617 9.81363 7.31305 9.94312 6.95886L9.94312 6.95885C10.2953 5.9956 10.8126 4.58058 11.1106 3.14964C11.2914 2.28145 11.0741 2.07561 10.9914 2.01017C10.8472 1.89605 10.601 1.82385 10.2153 1.7806L7.5127 5.36585L4.75 9.07736V9.49988V16.4884ZM3.25 9.49988C3.25 9.08566 2.91421 8.74988 2.5 8.74988C2.08579 8.74988 1.75 9.08566 1.75 9.49988V16.9999C1.75 17.4141 2.08579 17.7499 2.5 17.7499C2.91421 17.7499 3.25 17.4141 3.25 16.9999V16.4884V9.49988Z" fill="#79808D"/>
</svg>
