<svg width="133" height="49" viewBox="0 0 133 49" fill="none" xmlns="http://www.w3.org/2000/svg">
<path d="M27.3834 20.2H29.2034V28.46H34.3274V30H27.3834V20.2ZM42.5559 26.304C42.5559 26.4253 42.5466 26.598 42.5279 26.822H36.6619C36.7645 27.3727 37.0305 27.8113 37.4599 28.138C37.8985 28.4553 38.4399 28.614 39.0839 28.614C39.9052 28.614 40.5819 28.3433 41.1139 27.802L42.0519 28.88C41.7159 29.2813 41.2912 29.5847 40.7779 29.79C40.2645 29.9953 39.6859 30.098 39.0419 30.098C38.2205 30.098 37.4972 29.9347 36.8719 29.608C36.2465 29.2813 35.7612 28.8287 35.4159 28.25C35.0799 27.662 34.9119 26.9993 34.9119 26.262C34.9119 25.534 35.0752 24.8807 35.4019 24.302C35.7379 23.714 36.1999 23.2567 36.7879 22.93C37.3759 22.6033 38.0385 22.44 38.7759 22.44C39.5039 22.44 40.1525 22.6033 40.7219 22.93C41.3005 23.2473 41.7486 23.7 42.0659 24.288C42.3926 24.8667 42.5559 25.5387 42.5559 26.304ZM38.7759 23.84C38.2159 23.84 37.7399 24.008 37.3479 24.344C36.9652 24.6707 36.7319 25.1093 36.6479 25.66H40.8899C40.8152 25.1187 40.5865 24.68 40.2039 24.344C39.8212 24.008 39.3452 23.84 38.7759 23.84ZM46.8878 22.44C47.9891 22.44 48.8291 22.706 49.4078 23.238C49.9958 23.7607 50.2898 24.554 50.2898 25.618V30H48.6378V29.09C48.4231 29.4167 48.1151 29.6687 47.7138 29.846C47.3218 30.014 46.8458 30.098 46.2858 30.098C45.7258 30.098 45.2358 30.0047 44.8158 29.818C44.3958 29.622 44.0691 29.356 43.8358 29.02C43.6118 28.6747 43.4998 28.2873 43.4998 27.858C43.4998 27.186 43.7471 26.6493 44.2418 26.248C44.7458 25.8373 45.5345 25.632 46.6078 25.632H48.5398V25.52C48.5398 24.9973 48.3811 24.596 48.0638 24.316C47.7558 24.036 47.2938 23.896 46.6778 23.896C46.2578 23.896 45.8425 23.9613 45.4318 24.092C45.0305 24.2227 44.6898 24.4047 44.4098 24.638L43.7238 23.364C44.1158 23.0653 44.5871 22.8367 45.1378 22.678C45.6885 22.5193 46.2718 22.44 46.8878 22.44ZM46.6498 28.824C47.0885 28.824 47.4758 28.726 47.8118 28.53C48.1571 28.3247 48.3998 28.0353 48.5398 27.662V26.794H46.7338C45.7258 26.794 45.2218 27.1253 45.2218 27.788C45.2218 28.1053 45.3478 28.3573 45.5998 28.544C45.8518 28.7307 46.2018 28.824 46.6498 28.824ZM54.2017 23.616C54.7057 22.832 55.5924 22.44 56.8617 22.44V24.106C56.7124 24.078 56.577 24.064 56.4557 24.064C55.7744 24.064 55.2424 24.2647 54.8597 24.666C54.477 25.058 54.2857 25.6273 54.2857 26.374V30H52.5357V22.524H54.2017V23.616ZM62.5882 22.44C63.5309 22.44 64.2869 22.7153 64.8562 23.266C65.4256 23.8167 65.7102 24.6333 65.7102 25.716V30H63.9602V25.94C63.9602 25.2867 63.8062 24.7967 63.4982 24.47C63.1902 24.134 62.7516 23.966 62.1822 23.966C61.5382 23.966 61.0296 24.162 60.6562 24.554C60.2829 24.9367 60.0962 25.492 60.0962 26.22V30H58.3462V22.524H60.0122V23.49C60.3016 23.1447 60.6656 22.8833 61.1042 22.706C61.5429 22.5287 62.0376 22.44 62.5882 22.44ZM81.2354 22.44C82.178 22.44 82.9247 22.7153 83.4754 23.266C84.026 23.8073 84.3014 24.624 84.3014 25.716V30H82.5514V25.94C82.5514 25.2867 82.4067 24.7967 82.1174 24.47C81.828 24.134 81.4127 23.966 80.8714 23.966C80.2834 23.966 79.812 24.162 79.4574 24.554C79.1027 24.9367 78.9254 25.4873 78.9254 26.206V30H77.1754V25.94C77.1754 25.2867 77.0307 24.7967 76.7414 24.47C76.452 24.134 76.0367 23.966 75.4954 23.966C74.898 23.966 74.422 24.1573 74.0674 24.54C73.722 24.9227 73.5494 25.478 73.5494 26.206V30H71.7994V22.524H73.4654V23.476C73.7454 23.14 74.0954 22.8833 74.5154 22.706C74.9354 22.5287 75.402 22.44 75.9154 22.44C76.4754 22.44 76.97 22.5473 77.3994 22.762C77.838 22.9673 78.1834 23.2753 78.4354 23.686C78.7434 23.294 79.14 22.9907 79.6254 22.776C80.1107 22.552 80.6474 22.44 81.2354 22.44ZM89.966 30.098C89.21 30.098 88.5287 29.9347 87.922 29.608C87.3153 29.2813 86.8393 28.8287 86.494 28.25C86.158 27.662 85.99 26.9993 85.99 26.262C85.99 25.5247 86.158 24.8667 86.494 24.288C86.8393 23.7093 87.3153 23.2567 87.922 22.93C88.5287 22.6033 89.21 22.44 89.966 22.44C90.7313 22.44 91.4173 22.6033 92.024 22.93C92.6307 23.2567 93.102 23.7093 93.438 24.288C93.7833 24.8667 93.956 25.5247 93.956 26.262C93.956 26.9993 93.7833 27.662 93.438 28.25C93.102 28.8287 92.6307 29.2813 92.024 29.608C91.4173 29.9347 90.7313 30.098 89.966 30.098ZM89.966 28.6C90.61 28.6 91.142 28.3853 91.562 27.956C91.982 27.5267 92.192 26.962 92.192 26.262C92.192 25.562 91.982 24.9973 91.562 24.568C91.142 24.1387 90.61 23.924 89.966 23.924C89.322 23.924 88.79 24.1387 88.37 24.568C87.9593 24.9973 87.754 25.562 87.754 26.262C87.754 26.962 87.9593 27.5267 88.37 27.956C88.79 28.3853 89.322 28.6 89.966 28.6ZM97.2954 23.616C97.7994 22.832 98.6861 22.44 99.9554 22.44V24.106C99.8061 24.078 99.6708 24.064 99.5494 24.064C98.8681 24.064 98.3361 24.2647 97.9534 24.666C97.5708 25.058 97.3794 25.6273 97.3794 26.374V30H95.6294V22.524H97.2954V23.616ZM108.4 26.304C108.4 26.4253 108.39 26.598 108.372 26.822H102.506C102.608 27.3727 102.874 27.8113 103.304 28.138C103.742 28.4553 104.284 28.614 104.928 28.614C105.749 28.614 106.426 28.3433 106.958 27.802L107.896 28.88C107.56 29.2813 107.135 29.5847 106.622 29.79C106.108 29.9953 105.53 30.098 104.886 30.098C104.064 30.098 103.341 29.9347 102.716 29.608C102.09 29.2813 101.605 28.8287 101.26 28.25C100.924 27.662 100.756 26.9993 100.756 26.262C100.756 25.534 100.919 24.8807 101.246 24.302C101.582 23.714 102.044 23.2567 102.632 22.93C103.22 22.6033 103.882 22.44 104.62 22.44C105.348 22.44 105.996 22.6033 106.566 22.93C107.144 23.2473 107.592 23.7 107.91 24.288C108.236 24.8667 108.4 25.5387 108.4 26.304ZM104.62 23.84C104.06 23.84 103.584 24.008 103.192 24.344C102.809 24.6707 102.576 25.1093 102.492 25.66H106.734C106.659 25.1187 106.43 24.68 106.048 24.344C105.665 24.008 105.189 23.84 104.62 23.84Z" fill="white"/>
<path d="M4 1H129V-1H4V1ZM132 4V45H134V4H132ZM129 48H4V50H129V48ZM1 45V4H-1V45H1ZM4 48C2.34315 48 1 46.6569 1 45H-1C-1 47.7614 1.23858 50 4 50V48ZM132 45C132 46.6569 130.657 48 129 48V50C131.761 50 134 47.7614 134 45H132ZM129 1C130.657 1 132 2.34315 132 4H134C134 1.23858 131.761 -1 129 -1V1ZM4 -1C1.23858 -1 -1 1.23858 -1 4H1C1 2.34315 2.34315 1 4 1V-1Z" fill="white"/>
</svg>
