<svg width="69" height="77" viewBox="0 0 69 77" fill="none" xmlns="http://www.w3.org/2000/svg">
<path fill-rule="evenodd" clip-rule="evenodd" d="M53.2999 4.64843C53.1994 4.14529 53.5009 3.64215 54.0035 3.44089L65.5631 0.0195247C66.0657 -0.0811037 66.5683 0.220782 66.7693 0.723924L68.9807 8.47231C69.0813 8.97545 68.7797 9.47859 68.2771 9.67985L56.7175 13.1012C56.2149 13.2018 55.7123 12.9 55.5113 12.3968L53.2999 4.64843ZM54.4056 4.5478C54.6066 4.34655 54.9082 4.24592 55.1092 4.34655L61.4419 7.46602L65.0605 1.42832C65.2616 1.22707 65.5631 1.12644 65.6636 1.32769C65.9652 1.52895 65.9652 1.83084 65.8647 2.03209L61.9445 8.37168C61.8439 8.57294 61.5424 8.67356 61.3414 8.57294L54.6066 5.2522C54.4056 5.05094 54.3051 4.74906 54.4056 4.5478ZM48.0729 9.1767C47.9723 8.97544 47.9723 8.77419 48.1734 8.67356L50.3848 7.36539C50.5858 7.26476 50.7869 7.36539 50.8874 7.56665C50.9879 7.7679 50.9879 7.96916 50.7869 8.06979L48.5754 9.37796C48.3744 9.37796 48.1734 9.37796 48.0729 9.1767ZM5.45312 74.6858C5.45312 74.7361 5.47825 74.7864 5.50338 74.8367C5.52851 74.8871 5.55364 74.9374 5.55364 74.9877C5.71392 75.3888 5.9381 75.5981 6.17522 75.8194L6.17539 75.8196L6.1755 75.8197C6.2357 75.8759 6.29675 75.9329 6.35779 75.994C6.75986 76.2959 7.16193 76.4971 7.66452 76.6984L7.96608 76.799C8.77023 76.8996 9.57437 77.0003 10.3785 77.0003C11.2832 77.0003 12.1879 77.0003 12.992 76.799C14.6003 76.5977 15.1029 76.0946 15.0024 75.1889C14.8013 74.4845 14.3993 73.7801 13.8967 73.277C13.2936 72.5726 12.992 71.7676 12.8915 70.8619C12.8915 69.8556 13.193 68.95 13.6956 68.0443C14.3992 67.0381 15.0023 66.0319 15.6054 65.0256L15.6055 65.0255C16.6107 63.4154 16.6107 60.0947 15.706 56.2708C15.706 56.1702 18.1184 58.8871 17.5153 64.0192C18.0749 63.7791 18.2531 63.7299 18.6565 63.6186L18.6568 63.6186L18.6571 63.6185C18.7608 63.5899 18.8794 63.5572 19.0231 63.516C19.1639 63.4847 19.3024 63.4534 19.4391 63.4224C20.1806 63.2546 20.8728 63.0979 21.6366 63.0129V63.3148C21.335 66.1324 21.2345 68.95 21.4355 71.7676C21.335 72.8745 21.5361 74.082 22.0387 75.0883C22.5412 76.0946 23.4459 76.5977 25.0542 76.6984L25.8583 76.799C25.9897 76.8063 26.1279 76.8147 26.2715 76.8233L26.2721 76.8234C28.1074 76.9345 30.8276 77.0991 31.3869 75.7927C31.4874 75.5915 31.4874 75.3902 31.4874 75.0883C31.4874 74.8871 31.4874 74.6858 31.3869 74.3839C31.1858 73.8808 30.8843 73.4783 30.5827 73.1764L30.5826 73.1763C30.3816 72.8744 30.1806 72.5726 29.9796 72.1701C29.9624 72.101 29.9451 72.035 29.9284 71.9708C29.8475 71.661 29.7786 71.3966 29.7786 71.0632C29.678 68.3462 29.7786 65.7299 30.0801 63.0129C30.2812 59.0884 32.0905 56.7739 34.1009 54.2582L34.2215 54.1073C35.799 52.1345 37.5485 49.9466 38.7247 46.6105C38.7247 46.5602 38.7498 46.5099 38.775 46.4595C38.8001 46.4092 38.8252 46.3589 38.8252 46.3086L39.2273 45.9061C41.9413 43.6923 45.0574 40.4722 45.3589 37.6546C45.3589 36.9502 45.6605 36.3464 46.0625 35.8432C46.6656 35.0382 47.3693 34.4344 48.1734 33.9313L48.676 33.6294C48.7381 33.6294 48.7619 33.591 48.7947 33.5379C48.8149 33.505 48.8387 33.4666 48.8771 33.4282V33.2269C48.8771 33.1263 48.7765 33.0257 48.7765 33.0257C48.676 32.925 48.676 32.925 48.5755 32.925H48.475C47.6708 32.925 46.5651 33.2269 45.8615 33.5288C45.7463 33.5672 45.6605 33.591 45.5872 33.6113L45.5871 33.6113C45.5147 33.6313 45.4544 33.648 45.3902 33.6721C46.5585 33.1329 47.7896 31.9005 48.2739 31.4156C49.6812 29.9062 50.1838 27.5917 50.1838 25.3779C50.0833 22.9628 49.2791 20.5477 47.9724 18.5352C47.6708 18.032 47.3693 17.5289 47.0677 16.9251C46.7662 16.3213 46.4646 15.8182 46.1631 15.3151C45.962 14.8119 45.8615 14.51 45.962 14.3088C46.0625 14.1075 46.3641 13.9063 46.8667 13.9063H47.0677C47.1682 13.9063 47.2688 13.8056 47.2688 13.8056C47.2688 13.8056 47.3693 13.6044 47.3693 13.5037V13.3025C47.3693 12.6987 47.2688 12.1956 47.0677 11.5918C46.8667 11.0887 46.5651 10.5855 46.1631 10.183L45.962 9.98175H45.6605C45.0574 9.98175 44.4542 10.183 43.8511 10.3843C43.047 10.6862 42.3434 11.1893 41.9413 11.8937C41.5392 12.6987 41.3382 13.5037 41.4387 14.4094C41.5187 14.8899 41.6623 15.3067 41.819 15.7612C41.8592 15.8778 41.9002 15.9968 41.9413 16.1201C42.0418 16.3213 42.1423 16.5226 42.1423 16.7239C43.1475 18.6358 44.3537 21.554 44.4542 23.7678C44.6553 25.6798 43.7506 27.0886 40.534 27.4911L39.7299 27.5917C39.1551 27.666 38.5735 27.7231 37.9989 27.7795L37.9983 27.7796H37.9983L37.9982 27.7796L37.9982 27.7796L37.9982 27.7796C35.458 28.0291 33.0556 28.265 31.99 29.9062C31.9397 29.9565 31.9146 30.0068 31.8895 30.0571C31.8643 30.1074 31.8392 30.1577 31.7889 30.2081C32.7941 30.5099 34.0003 31.4156 34.704 32.7238C33.7993 31.5162 32.2915 30.8118 31.5879 30.6106C29.678 30.4093 28.3713 31.1137 27.2656 31.9187C26.763 32.3213 26.2604 32.8244 25.9589 33.4282C25.2552 34.5351 24.9537 35.8432 24.9537 37.1514V37.4533V37.6546V38.0571C24.9537 38.2583 25.0542 38.5602 25.0542 38.5602C25.5568 40.8747 28.5723 46.5099 35.0055 46.8117C32.392 47.3149 25.8583 46.208 23.3454 39.6671C20.9329 40.6734 18.8221 41.3778 16.3091 42.0822C9.27282 44.1954 2.63861 46.208 2.0355 53.1513C2.0355 53.1941 2.0355 53.2187 2.02778 53.2406C2.01734 53.2701 1.99277 53.2947 1.93498 53.3526C1.13083 54.6608 0.527721 56.0695 0.226166 57.579C-0.0753888 59.2897 -0.0753888 61.0003 0.226166 62.711C0.226166 62.8117 0.226167 62.8117 0.326685 62.8117L0.427204 62.9123L0.527721 63.0129H0.728758H0.929796C1.03031 63.0129 1.13083 62.9123 1.13083 62.8117C1.23135 62.6104 1.23135 62.5098 1.23135 62.3085C1.03031 60.7991 1.23135 59.4909 1.5329 57.9815V57.8809C1.61483 57.3887 1.76354 57.0303 1.9246 56.6422L1.92468 56.642L1.92502 56.6412L1.92541 56.6402C1.96169 56.5528 1.99859 56.4638 2.0355 56.3714C2.0355 56.3211 2.06063 56.296 2.08576 56.2708C2.11089 56.2457 2.13601 56.2205 2.13601 56.1702C2.43757 58.0821 3.1412 59.8934 4.2469 61.5035C4.64897 62.2079 5.05105 62.9123 5.3526 63.6167C5.65416 64.3211 5.95571 65.7299 5.55364 67.2393C4.95053 69.2519 4.85001 70.8619 4.85001 71.4657C4.8786 71.5802 4.89905 71.8004 4.92525 72.0825C4.99118 72.7924 5.09346 73.8937 5.45312 74.6858ZM45.2584 33.73C45.3022 33.7118 45.3462 33.6924 45.3902 33.6721C45.3493 33.6875 45.3067 33.7058 45.2584 33.73ZM4.34737 67.6418C3.4427 70.0569 4.04582 73.1763 4.44789 74.4845C3.74426 74.3839 3.04063 74.2832 2.43752 74.082C1.2313 73.6795 0.427154 72.9751 0.929746 71.8682C1.2313 70.6606 2.83959 67.5412 4.84996 64.2204C4.95048 64.9248 4.95048 66.1324 4.34737 67.6418ZM36.1111 53.6543C35.8095 54.0568 35.508 54.4593 35.1059 54.8618C34.6767 55.2915 34.1007 56.0149 33.4408 56.8438C33.3281 56.9854 33.2129 57.1301 33.0955 57.2769C31.1918 59.7846 30.8861 62.6922 30.685 64.6044L30.6831 64.6228C31.9898 66.4341 32.794 68.0441 32.995 68.9498C33.016 69.0127 33.037 69.0714 33.057 69.1274L33.057 69.1275C33.1331 69.3401 33.1961 69.5159 33.1961 69.7548V70.5598C33.1458 70.7108 33.1207 70.8366 33.0955 70.9623C33.0704 71.0881 33.0453 71.2139 32.995 71.3649C32.8945 71.7674 32.794 72.2705 32.8945 72.673C32.995 73.1762 33.2966 73.5787 33.5981 73.8806C34.2012 74.585 35.0054 75.0881 35.8095 75.2894C36.8147 75.6919 37.9204 75.7925 39.0261 75.7925C39.7298 75.7925 40.4334 75.6919 41.0365 75.2894C41.338 75.0881 41.5391 74.8869 41.6396 74.585C41.7401 74.2831 41.7401 73.9812 41.7401 73.6793V73.5787C41.5391 72.8743 41.4386 72.0693 41.4386 71.3649C41.4386 70.7611 41.4386 70.0567 41.5391 69.4529C41.7401 68.346 41.6396 67.0378 41.338 65.9309C40.936 64.6228 40.3329 63.4152 39.5287 62.4089C39.1661 61.7736 38.7217 61.2202 38.343 60.7486C38.3018 60.6973 38.2614 60.647 38.222 60.5976L37.9204 60.2957L37.8128 60.1541C35.9769 57.7373 35.125 56.6158 36.1111 53.6543ZM50.5857 9.67998C50.3846 9.78061 50.2841 9.98187 50.3846 10.1831C50.3846 10.3844 50.5857 10.485 50.8872 10.3844L52.4955 9.78061C52.6966 9.67998 52.7971 9.47872 52.6966 9.27747C52.596 9.07621 52.395 8.97558 52.194 9.07621L50.5857 9.67998ZM49.279 12.4974C49.279 12.2961 49.3796 12.0948 49.5806 12.0948L52.1941 11.6923C52.3951 11.6923 52.5961 11.793 52.5961 11.9942C52.5961 12.1955 52.4956 12.3967 52.2946 12.3967L49.6811 12.7992C49.5806 12.7992 49.3796 12.6986 49.279 12.4974Z" fill="#333945"/>
</svg>
