<svg width="33" height="32" viewBox="0 0 33 32" fill="none" xmlns="http://www.w3.org/2000/svg">
<path d="M5.5 18C5.5 16.3431 6.84315 15 8.5 15H24.5C26.1569 15 27.5 16.3431 27.5 18V26C27.5 27.6569 26.1569 29 24.5 29H8.5C6.84315 29 5.5 27.6569 5.5 26V18Z" stroke="#941759" stroke-width="2" stroke-linecap="round" stroke-linejoin="round"/>
<path d="M9.5 19L17 22.5L24 19" stroke="#941759" stroke-width="2" stroke-linecap="round" stroke-linejoin="round"/>
<path d="M14.5 15V9C14.5 7.89543 15.3954 7 16.5 7H25.5C26.6046 7 27.5 7.89543 27.5 9V14C27.5 14.8284 26.8284 15.5 26 15.5V15.5" stroke="#941759" stroke-width="2"/>
<path d="M19.5 7V4C19.5 2.89543 18.6046 2 17.5 2H8.5C7.39543 2 6.5 2.89543 6.5 4V8C6.5 9.10457 7.39543 10 8.5 10H13.5" stroke="#941759" stroke-width="2"/>
<path d="M18.5 11L23.5 11" stroke="#941759" stroke-width="2" stroke-linecap="round"/>
<path d="M10.5 6L15.5 6" stroke="#941759" stroke-width="2" stroke-linecap="round" stroke-linejoin="round"/>
</svg>
