<svg width="127" height="94" viewBox="0 0 127 94" fill="none" xmlns="http://www.w3.org/2000/svg">
<path d="M32.4961 52.4115C34.1475 57.5874 36.0689 62.6767 38.2525 67.6595C40.0684 71.7542 41.8843 76.4363 44.8897 79.8544C46.4786 81.6347 47.6135 81.7682 49.8199 81.0294C52.997 79.8847 56.1069 78.5682 59.1355 77.0861C67.5726 73.249 75.798 68.9794 83.7774 64.2948C85.2392 63.4047 88.0085 62.2208 88.8347 60.6096C89.8879 58.5801 88.1901 55.1086 87.4637 53.2393C84.6497 45.9139 81.3997 38.7568 77.7304 31.8047C77.3309 31.0303 76.1415 31.7068 76.541 32.4901C79.2649 37.831 81.8616 43.2608 84.2132 48.7708C85.5025 51.7973 87.0823 55.073 87.5999 58.3487C87.954 60.6007 86.1199 61.2594 84.3403 62.3721C77.6547 66.3968 70.7567 70.0723 63.6753 73.3831C60.2159 75.0744 56.7294 76.7301 53.1884 78.2344C51.6358 78.902 48.6486 80.7268 46.9326 79.9524C45.4163 79.2581 44.2087 76.6499 43.4823 75.3058C42.1658 73.0004 41.0308 70.5881 39.9504 68.1847C37.5952 62.9273 35.54 57.5455 33.7944 52.0643C33.5311 51.2365 32.1964 51.5925 32.4597 52.4204L32.4961 52.4115Z" fill="#333945"/>
<path d="M32.6312 53.3929C34.5551 55.8448 40.8191 55.8175 43.459 56.2353C49.6425 57.207 55.9154 57.9789 61.92 59.8133C62.0931 59.8582 62.2767 59.8332 62.432 59.7434C62.5872 59.6536 62.7021 59.5061 62.7522 59.332C63.5754 56.6076 65.2846 54.0013 66.6896 51.5403C68.6762 48.0531 70.7433 44.6113 72.7657 41.1423C73.4905 39.8891 78.8597 32.6059 76.3451 31.5616C75.3697 31.1529 73.3831 32.1246 72.4972 32.4243C69.9558 33.2779 67.4681 34.3041 64.9983 35.3394C58.436 38.088 51.984 41.0757 45.6424 44.3025C42.582 45.8554 39.5216 47.4537 36.6043 49.2791C35.2173 50.1872 33.4276 51.0953 32.5327 52.5574C32.0674 53.3111 33.2397 54.0013 33.705 53.2566C35.5484 50.3052 40.8639 48.3619 43.7453 46.8271C49.4098 43.8394 55.1996 41.106 61.0519 38.5269C65.4368 36.5926 70.0005 34.3314 74.6896 33.178C75.1302 32.9977 75.6017 32.9082 76.0767 32.9147C75.7098 32.8239 75.9245 32.4243 75.5755 33.0418C75.2265 33.6594 75.0923 34.1043 74.8417 34.6038C73.571 37.1375 72.0945 39.5803 70.6627 42.0232C67.5486 47.3538 63.1907 52.9842 61.4009 58.9596L62.2958 58.4783C56.8461 56.8165 51.1637 56.0355 45.5619 55.1728C43.0563 54.7914 40.5596 54.4281 38.1346 53.9377C36.9175 53.6925 34.4656 53.5109 33.6603 52.4302C33.0607 51.7219 32.1032 52.7027 32.6312 53.3929Z" fill="#333945"/>
<path d="M67.9806 71.5478C67.0981 73.4355 66.5055 75.4412 66.222 77.4996C66.1796 77.6709 66.2055 77.8515 66.2944 78.0047C66.3833 78.1578 66.5283 78.2718 66.7 78.3233C77.3063 80.9692 87.6996 84.3795 97.7953 88.5264C100.501 89.6423 103.161 90.8114 105.813 92.016C107.174 92.6359 108.771 93.5748 110.322 93.6102C113.027 93.6722 114.001 91.768 114.912 89.5449C118.88 79.8998 123.155 70.361 126.952 60.645C127.267 59.839 125.942 59.4848 125.626 60.2907C122.1 69.3336 118.15 78.1904 114.443 87.0916C114.155 87.7913 113.875 88.4998 113.541 89.1906C113.346 89.841 113.064 90.4634 112.703 91.0417C111.07 92.5651 108.708 91.8565 107.03 91.1214C102.927 89.3501 98.8595 87.4813 94.684 85.8073C85.67 82.2679 76.4306 79.3094 67.0246 76.9505L67.5026 77.7742C67.7506 75.8278 68.2948 73.9289 69.1169 72.1412C69.4776 71.3618 68.2962 70.671 67.9355 71.4592L67.9806 71.5478Z" fill="#333945"/>
<path d="M85.6742 62.7472C87.8534 66.0638 89.8138 69.5344 91.7377 73.005C91.8158 73.1355 91.9347 73.237 92.0762 73.2942C92.2178 73.3515 92.3742 73.3613 92.5218 73.3221C98.248 71.2803 103.974 69.2504 109.7 67.2327C113.803 65.7889 117.91 64.3511 122.019 62.9194C123.049 62.566 127.253 62.0132 126.988 60.4274C126.842 59.5212 124.818 58.9775 124.198 58.7057C121.909 57.6908 119.566 56.8027 117.232 55.9056C110.503 53.3321 103.719 50.9036 96.935 48.4841C92.3699 46.8591 87.8108 45.2522 83.2579 43.6633C82.4099 43.3734 82.0543 44.7054 82.8932 44.9954C93.5339 48.6744 104.147 52.426 114.688 56.3859C117.423 57.4099 120.104 58.4248 122.766 59.5575C123.464 59.951 124.189 60.2933 124.937 60.5815C125.174 60.6358 125.383 60.9077 125.62 60.953C125.857 60.9983 125.684 61.0074 125.757 61.0527C125.915 60.3277 125.785 60.08 125.365 60.3096L124.59 60.5724C122.976 60.7536 121.125 61.7595 119.593 62.2941L113.211 64.5142L100.692 68.9363C97.9562 69.915 95.1296 71.1564 92.2939 71.9176C92.075 71.972 92.9504 72.6425 92.6404 71.9176C92.2529 71.1114 91.8144 70.3306 91.3274 69.5797C89.8867 67.0424 88.4187 64.5233 86.8139 62.0857C86.3307 61.3426 85.1271 62.0313 85.6195 62.7834L85.6742 62.7472Z" fill="#333945"/>
<path d="M35.2676 53.3894L33.8422 56.217C33.4925 56.9101 34.638 57.5245 34.9878 56.8235L36.4131 53.9959C36.7629 53.3028 35.6174 52.6884 35.2676 53.3894Z" fill="#333945"/>
<path d="M37.9098 53.3044C36.2841 54.9605 35.3107 57.0202 35.1307 59.1855C35.0505 60.0517 36.5755 60.0517 36.6557 59.1855C36.8099 57.3625 37.6281 55.6283 38.9934 54.2312C39.6154 53.5815 38.5419 52.6461 37.9199 53.3044H37.9098Z" fill="#333945"/>
<path d="M39.4431 54.8411L36.5352 62.7898C36.2279 63.629 37.2602 64.355 37.5676 63.5159L40.4754 55.5294C40.7828 54.6903 39.7504 53.9642 39.4431 54.8034V54.8411Z" fill="#333945"/>
<path d="M43.2313 54.7755C41.2178 58.3212 39.4318 61.985 37.8837 65.7458C37.5406 66.5904 38.9323 66.9523 39.285 66.117C40.7929 62.4735 42.5311 58.9245 44.4896 55.4902C44.9376 54.692 43.6889 53.9866 43.2408 54.7755H43.2313Z" fill="#333945"/>
<path d="M110.457 88.0608C112.416 86.0412 113.903 83.5847 114.804 80.8794C115.064 80.0964 113.868 79.7681 113.607 80.5426C112.77 83.0377 111.392 85.3013 109.578 87.1599C109.48 87.2827 109.43 87.4388 109.437 87.5979C109.444 87.7569 109.508 87.9075 109.617 88.0201C109.726 88.1327 109.872 88.1992 110.026 88.2068C110.179 88.2143 110.33 88.1622 110.449 88.0608H110.457Z" fill="#333945"/>
<path d="M115.325 75.0579L114.9 76.2977C114.616 77.1243 115.424 77.8643 115.707 77.0378L116.132 75.798C116.416 74.9714 115.608 74.2314 115.325 75.0579Z" fill="#333945"/>
<path d="M81.0901 51.2488C81.5554 53.2928 81.6025 55.5023 81.2253 57.5876C81.1927 57.7693 81.2091 57.9632 81.2707 58.1267C81.3324 58.2901 81.4344 58.4097 81.5542 58.4592C81.6741 58.5086 81.802 58.4838 81.9098 58.3903C82.0176 58.2968 82.0964 58.1422 82.129 57.9604C82.5518 55.6283 82.5047 53.1578 81.9938 50.8666C81.8032 50.009 80.8995 50.3726 81.0901 51.2395V51.2488Z" fill="#333945"/>
<path d="M79.713 46.922C79.7068 47.3025 79.8209 47.6788 80.0461 48.0203C80.2712 48.3618 80.601 48.6589 81.0088 48.8875C81.8094 49.3592 82.9472 48.518 82.136 48.0463C81.8924 47.9205 81.6932 47.7525 81.5556 47.5567C81.418 47.3609 81.346 47.1431 81.3459 46.922C81.3459 46.7635 81.2615 46.6115 81.1114 46.4995C80.9612 46.3874 80.7576 46.3245 80.5453 46.3245C80.3329 46.3245 80.1293 46.3874 79.9791 46.4995C79.829 46.6115 79.7446 46.7635 79.7446 46.922H79.713Z" fill="#333945"/>
<path d="M6.52274 25.5856C11.9441 18.7149 18.7171 13.0606 26.4118 8.9815C34.1065 4.9024 42.5548 2.48766 51.2203 1.89057C59.8098 1.205 68.4423 2.46778 76.4889 5.58696C81.5479 7.62133 86.5442 10.6456 88.9572 15.7952C90.2937 18.6287 90.805 22.1526 89.4954 25.0588C88.6791 26.8934 87.2529 28.51 85.118 28.51C84.3107 28.51 82.1669 27.9378 81.8798 26.957C81.4134 25.3585 82.732 23.0335 84.1044 22.316C88.7688 19.8548 95.2272 21.3534 99.5777 23.7873C101.974 25.1011 104.083 26.8917 105.779 29.0518C107.475 31.2118 108.722 33.6966 109.445 36.3569C109.492 36.5339 109.607 36.6846 109.765 36.7757C109.922 36.8668 110.109 36.8909 110.283 36.8428C110.458 36.7946 110.607 36.678 110.697 36.5188C110.787 36.3595 110.811 36.1706 110.763 35.9936C108.072 25.849 97.6312 18.3926 87.1811 19.9911C83.8712 20.4996 78.2111 23.3696 80.7406 27.6654C82.8755 31.2982 87.7283 30.281 89.8721 27.3202C93.1193 22.8519 91.5674 16.4945 88.5535 12.3712C84.9207 7.46693 79.0632 4.82407 73.448 3.08032C62.0975 -0.384326 50.0075 -0.507176 38.5905 2.72612C25.5496 6.24579 13.9711 13.9158 5.56295 24.6047C5.02475 25.295 5.98454 26.2758 6.52274 25.5765V25.5856Z" fill="#333945"/>
<path d="M9.98693 3.14433C8.80591 3.98163 7.13707 4.43378 5.76777 5.55577C4.18451 6.86196 2.56702 8.57007 1.24051 9.88464C1.12925 10.9899 -0.111675 11.3918 0.00813873 12.3966C1.41167 13.0413 1.4887 11.4588 1.95939 10.7889C2.13056 10.5377 2.52423 10.3954 2.81521 10.0856C3.10618 9.77579 3.1233 9.42412 3.3287 9.1813C3.83363 8.59519 4.78358 8.03419 5.48535 7.37272C6.13104 6.69812 6.84502 6.08936 7.61632 5.55577C8.72888 4.91104 10.1239 4.71846 10.8085 3.54623C10.6716 3.28667 10.2693 2.96012 9.98693 3.14433Z" fill="#333945"/>
<path d="M13.5162 7.28445C11.9325 8.26596 10.4322 9.3848 9.03111 10.6289C6.77292 12.2529 4.86405 14.3438 3.4248 16.7698C2.93144 16.9277 2.52779 17.2807 2.77895 17.8846C4.4743 18.3584 4.94972 16.2216 5.80188 15.1997C7.55104 13.1094 9.66799 11.6973 11.7311 9.95075C12.054 9.67204 14.8706 8.0927 14.8617 7.7118C14.7809 7.0522 13.9916 7.0522 13.5162 7.28445Z" fill="#333945"/>
</svg>
