<svg width="32" height="22" viewBox="0 0 32 22" fill="none" xmlns="http://www.w3.org/2000/svg">
<g clip-path="url(#clip0_323_1216)">
<path d="M4.0698 9.69458C3.17344 9.97432 2.27709 10.3082 1.42554 10.6691C1.39217 10.6827 1.36196 10.7031 1.33683 10.7291C1.31169 10.755 1.29219 10.786 1.27955 10.8199C1.26691 10.8538 1.26141 10.89 1.2634 10.9262C1.26538 10.9624 1.27481 10.9978 1.29109 11.0301C1.44278 11.3609 1.64547 11.6654 1.89165 11.9325C1.9404 11.9815 2.00649 12.0091 2.0754 12.0091C2.14432 12.0091 2.21041 11.9815 2.25916 11.9325L4.32078 10.1277C4.36955 10.0892 4.40304 10.0344 4.41521 9.97319C4.42737 9.912 4.41741 9.84844 4.38712 9.79398C4.35683 9.73953 4.3082 9.69777 4.25002 9.67623C4.19183 9.65469 4.12792 9.6548 4.0698 9.67653V9.69458ZM2.10678 11.364C2.02829 11.2636 1.95643 11.158 1.89165 11.0481L2.94039 10.6421L2.10678 11.364Z" fill="white"/>
<path d="M7.49513 11.9869C7.44292 11.9556 7.38171 11.943 7.32148 11.9512C7.26126 11.9594 7.20556 11.9879 7.16348 12.032C6.52707 12.7268 5.91754 13.4578 5.37076 14.1977C5.34837 14.2257 5.33193 14.258 5.32248 14.2926C5.31302 14.3272 5.31074 14.3634 5.31578 14.399C5.32083 14.4345 5.33309 14.4687 5.3518 14.4992C5.37051 14.5298 5.39527 14.5562 5.42454 14.5767C5.71752 14.7855 6.04113 14.9469 6.38365 15.055H6.45536C6.51085 15.0558 6.56515 15.0387 6.61031 15.0063C6.65547 14.9738 6.68912 14.9276 6.70634 14.8745L7.6027 12.2847C7.61958 12.23 7.6182 12.1713 7.59877 12.1175C7.57934 12.0637 7.54294 12.0178 7.49513 11.9869ZM6.27608 14.4413C6.15894 14.3918 6.04516 14.3345 5.93547 14.2699C6.16255 13.9751 6.39859 13.6743 6.64359 13.3675L6.27608 14.4413Z" fill="white"/>
<path d="M10.7592 13.8735C10.7592 13.8041 10.7318 13.7375 10.6831 13.6885C10.6343 13.6394 10.5682 13.6118 10.4993 13.6118C10.4303 13.6118 10.3642 13.6394 10.3155 13.6885C10.2667 13.7375 10.2393 13.8041 10.2393 13.8735C10.0959 14.7759 9.98835 15.7505 9.92561 16.6889C9.92314 16.7248 9.92804 16.7608 9.94 16.7946C9.95196 16.8285 9.97071 16.8595 9.9951 16.8858C10.0195 16.912 10.049 16.9329 10.0818 16.9472C10.1145 16.9614 10.1499 16.9688 10.1856 16.9687H10.2662C10.5971 16.9682 10.9262 16.9196 11.2433 16.8243C11.308 16.8053 11.3629 16.7618 11.3963 16.7029C11.4298 16.6439 11.4392 16.5742 11.4225 16.5085L10.7592 13.8735ZM10.4813 16.4543C10.4813 16.0753 10.5441 15.7053 10.5889 15.3263L10.8578 16.4002L10.4813 16.4543Z" fill="white"/>
<path d="M31.4803 20.8508C31.4693 20.9557 31.4313 21.0559 31.3699 21.1414C31.3086 21.2269 31.2261 21.2948 31.1306 21.3383C30.9588 21.4277 30.7682 21.4744 30.5747 21.4744C30.3813 21.4744 30.1907 21.4277 30.0188 21.3383C29.4998 20.9367 29.0998 20.3998 28.8622 19.7857L28.6918 19.524C28.1539 18.4859 27.5442 17.9263 26.8179 17.818C26.2196 17.7914 25.626 17.9353 25.1053 18.2332C24.6385 18.5285 24.079 18.638 23.5363 18.5401C22.8279 18.2873 22.6396 17.3125 22.6396 16.4911C22.6396 16.3376 22.6396 16.1842 22.6396 16.0307C22.8179 15.2386 22.7393 14.4097 22.4155 13.6658C21.7699 12.6097 20.4429 12.4563 19.2683 12.5104C19.4407 11.9889 19.5344 11.4442 19.5463 10.8947C19.5093 9.3085 18.9405 7.78155 17.9324 6.56199C16.8837 5.28498 15.6177 4.20604 14.1935 3.37565C12.5825 2.36801 10.8839 1.50997 9.11858 0.812142C7.99251 0.293432 6.77041 0.0196885 5.5321 0.00878906C4.10597 0.110099 2.76189 0.717875 1.73939 1.72381C0.999848 2.49287 0.439389 3.41783 0.0985694 4.43174C-0.0111762 4.70557 -0.0199767 5.00988 0.0737593 5.28967C0.167495 5.56946 0.35758 5.80624 0.609644 5.95721L2.1877 6.92304L3.82852 7.91595C4.02536 8.0406 4.25078 8.11209 4.48305 8.12356C4.67048 8.12424 4.85595 8.08522 5.02742 8.00902C5.19889 7.93282 5.35251 7.82115 5.4783 7.68126C5.81068 7.31718 6.06817 6.89044 6.23591 6.42567C6.40365 5.9609 6.47832 5.4673 6.45562 4.97333C9.44775 5.61988 12.1615 7.19904 14.2114 9.48655C13.5623 9.86814 13.0458 10.4418 12.732 11.1294C12.5739 11.4752 12.5517 11.8685 12.6698 12.2301C12.7879 12.5918 13.0375 12.8951 13.3686 13.0791L14.7942 13.8915L16.2826 14.7399C16.5128 14.8695 16.772 14.9379 17.0358 14.9385C17.2599 14.9381 17.4814 14.8895 17.6855 14.7961C17.8896 14.7027 18.0715 14.5667 18.2193 14.3969C18.5523 14.0041 18.8244 13.5629 19.0263 13.0881C20.1022 13.0069 21.3754 13.0881 21.9223 13.9907C22.211 14.6324 22.2926 15.349 22.1555 16.0397C22.1555 16.1932 22.1555 16.3557 22.1555 16.5091C22.1017 17.5201 22.3886 18.7387 23.3749 19.0907C24.0452 19.2494 24.7507 19.1359 25.3385 18.7748C25.7793 18.5186 26.2821 18.3905 26.791 18.4047C27.3379 18.4859 27.8221 18.9553 28.2794 19.8309L28.4049 20.0746C28.6729 20.7957 29.1432 21.4229 29.7588 21.8799C30.0118 22.0287 30.2997 22.1066 30.5927 22.1055C30.867 22.1072 31.1377 22.0422 31.3817 21.916C31.5542 21.8321 31.7025 21.705 31.8124 21.547C31.9223 21.389 31.9901 21.2052 32.0093 21.0133L31.4803 20.8508ZM4.48305 7.58197C4.33465 7.58173 4.18907 7.54119 4.06164 7.46463L2.46565 6.47172L0.896563 5.49687C0.745634 5.40935 0.632026 5.26892 0.577444 5.10241C0.522862 4.9359 0.531133 4.75498 0.600678 4.59422L0.780002 4.16998C1.58696 4.63033 2.34909 5.07262 3.08432 5.56005C3.81955 6.04748 4.57271 6.50783 5.37967 6.96817C5.30014 7.08782 5.2133 7.20238 5.11965 7.31118C5.04008 7.40096 4.9417 7.47182 4.8316 7.51866C4.72151 7.56549 4.60246 7.58711 4.48305 7.58197ZM14.7494 9.79345C14.7872 9.77691 14.8206 9.75156 14.8467 9.71948C14.8729 9.68741 14.8911 9.64952 14.8999 9.60896C14.9086 9.56841 14.9077 9.52633 14.8971 9.48621C14.8865 9.4461 14.8666 9.40909 14.839 9.37823C12.6094 6.79022 9.57586 5.03741 6.23146 4.40467H6.18663C6.14745 4.40381 6.10858 4.41188 6.07293 4.42828C6.03728 4.44468 6.00578 4.46898 5.98077 4.49936C5.95576 4.52974 5.9379 4.56542 5.92853 4.60373C5.91915 4.64204 5.91849 4.68199 5.92661 4.72059C6.02407 5.33681 5.92685 5.96828 5.64866 6.52588C4.85066 6.06553 4.08854 5.62324 3.35331 5.13581C2.61808 4.64838 1.79318 4.16998 0.986225 3.7006C1.25528 3.10595 1.63236 2.56715 2.09804 2.11195C3.02659 1.1905 4.24986 0.63073 5.55003 0.532323C6.72956 0.544332 7.89341 0.805729 8.96616 1.29957C10.7098 1.98658 12.3875 2.83257 13.9783 3.82697C15.3437 4.62599 16.5579 5.66195 17.5648 6.88694C18.4877 8.01543 19.0057 9.4242 19.0352 10.8857C19.0245 11.4531 18.9184 12.0147 18.7214 12.5465H18.569V12.8263C18.5062 12.9708 18.4345 13.1062 18.3628 13.2416C16.7488 12.3389 15.1618 11.6348 13.4941 10.8947C13.8109 10.4142 14.2551 10.0328 14.7763 9.79345H14.7494ZM16.5426 14.2525L15.0632 13.4131L13.6555 12.6368C13.4503 12.5219 13.2935 12.336 13.2144 12.1135C13.1352 11.891 13.139 11.6471 13.2251 11.4272H13.2789C14.9287 12.1584 16.4978 12.8444 18.0758 13.738C18.0041 13.8373 17.9234 13.9456 17.8427 14.0359C17.6834 14.2105 17.4708 14.3266 17.2386 14.3658C17.0063 14.4051 16.7677 14.3652 16.5605 14.2525H16.5426Z" fill="white"/>
</g>
<defs>
<clipPath id="clip0_323_1216">
<rect width="32" height="22" fill="white"/>
</clipPath>
</defs>
</svg>
