<svg width="130" height="49" viewBox="0 0 130 49" fill="none" xmlns="http://www.w3.org/2000/svg">
<path d="M0 4C0 1.79086 1.79086 0 4 0H126C128.209 0 130 1.79086 130 4V45C130 47.2091 128.209 49 126 49H4C1.79086 49 0 47.2091 0 45V4Z" fill="white" fill-opacity="0.2"/>
<path d="M31.597 20.2C32.4464 20.2 33.1837 20.34 33.809 20.62C34.4437 20.9 34.929 21.3013 35.265 21.824C35.601 22.3467 35.769 22.9673 35.769 23.686C35.769 24.3953 35.601 25.016 35.265 25.548C34.929 26.0707 34.4437 26.472 33.809 26.752C33.1837 27.032 32.4464 27.172 31.597 27.172H29.385V30H27.565V20.2H31.597ZM31.513 25.632C32.3064 25.632 32.9084 25.464 33.319 25.128C33.7297 24.792 33.935 24.3113 33.935 23.686C33.935 23.0607 33.7297 22.58 33.319 22.244C32.9084 21.908 32.3064 21.74 31.513 21.74H29.385V25.632H31.513ZM37.3501 22.524H39.1001V30H37.3501V22.524ZM38.2321 21.292C37.9148 21.292 37.6488 21.194 37.4341 20.998C37.2195 20.7927 37.1121 20.5407 37.1121 20.242C37.1121 19.9433 37.2195 19.696 37.4341 19.5C37.6488 19.2947 37.9148 19.192 38.2321 19.192C38.5495 19.192 38.8155 19.29 39.0301 19.486C39.2448 19.6727 39.3521 19.9107 39.3521 20.2C39.3521 20.508 39.2448 20.7693 39.0301 20.984C38.8248 21.1893 38.5588 21.292 38.2321 21.292ZM44.827 30.098C44.0524 30.098 43.357 29.9347 42.741 29.608C42.125 29.2813 41.6444 28.8287 41.299 28.25C40.9537 27.662 40.781 26.9993 40.781 26.262C40.781 25.5247 40.9537 24.8667 41.299 24.288C41.6444 23.7093 42.1204 23.2567 42.727 22.93C43.343 22.6033 44.043 22.44 44.827 22.44C45.5644 22.44 46.2084 22.5893 46.759 22.888C47.319 23.1867 47.739 23.616 48.019 24.176L46.675 24.96C46.4604 24.6147 46.1897 24.358 45.863 24.19C45.5457 24.0127 45.1957 23.924 44.813 23.924C44.1597 23.924 43.6184 24.1387 43.189 24.568C42.7597 24.988 42.545 25.5527 42.545 26.262C42.545 26.9713 42.755 27.5407 43.175 27.97C43.6044 28.39 44.1504 28.6 44.813 28.6C45.1957 28.6 45.5457 28.516 45.863 28.348C46.1897 28.1707 46.4604 27.9093 46.675 27.564L48.019 28.348C47.7297 28.908 47.305 29.342 46.745 29.65C46.1944 29.9487 45.555 30.098 44.827 30.098ZM52.5154 26.794L51.2134 28.026V30H49.4634V19.612H51.2134V25.884L54.8394 22.524H56.9394L53.8174 25.66L57.2334 30H55.1054L52.5154 26.794ZM65.089 22.44C66.1903 22.44 67.0303 22.706 67.609 23.238C68.197 23.7607 68.491 24.554 68.491 25.618V30H66.839V29.09C66.6243 29.4167 66.3163 29.6687 65.915 29.846C65.523 30.014 65.047 30.098 64.487 30.098C63.927 30.098 63.437 30.0047 63.017 29.818C62.597 29.622 62.2703 29.356 62.037 29.02C61.813 28.6747 61.701 28.2873 61.701 27.858C61.701 27.186 61.9483 26.6493 62.443 26.248C62.947 25.8373 63.7356 25.632 64.809 25.632H66.741V25.52C66.741 24.9973 66.5823 24.596 66.265 24.316C65.957 24.036 65.495 23.896 64.879 23.896C64.459 23.896 64.0436 23.9613 63.633 24.092C63.2316 24.2227 62.891 24.4047 62.611 24.638L61.925 23.364C62.317 23.0653 62.7883 22.8367 63.339 22.678C63.8896 22.5193 64.473 22.44 65.089 22.44ZM64.851 28.824C65.2896 28.824 65.677 28.726 66.013 28.53C66.3583 28.3247 66.601 28.0353 66.741 27.662V26.794H64.935C63.927 26.794 63.423 27.1253 63.423 27.788C63.423 28.1053 63.549 28.3573 63.801 28.544C64.053 28.7307 64.403 28.824 64.851 28.824ZM78.806 20.2C79.6553 20.2 80.3927 20.34 81.018 20.62C81.6527 20.9 82.138 21.3013 82.474 21.824C82.81 22.3467 82.978 22.9673 82.978 23.686C82.978 24.3953 82.81 25.016 82.474 25.548C82.138 26.0707 81.6527 26.472 81.018 26.752C80.3927 27.032 79.6553 27.172 78.806 27.172H76.594V30H74.774V20.2H78.806ZM78.722 25.632C79.5153 25.632 80.1173 25.464 80.528 25.128C80.9387 24.792 81.144 24.3113 81.144 23.686C81.144 23.0607 80.9387 22.58 80.528 22.244C80.1173 21.908 79.5153 21.74 78.722 21.74H76.594V25.632H78.722ZM84.7642 19.612H86.5142V30H84.7642V19.612ZM91.6671 22.44C92.7684 22.44 93.6084 22.706 94.1871 23.238C94.7751 23.7607 95.0691 24.554 95.0691 25.618V30H93.4171V29.09C93.2024 29.4167 92.8944 29.6687 92.4931 29.846C92.1011 30.014 91.6251 30.098 91.0651 30.098C90.5051 30.098 90.0151 30.0047 89.5951 29.818C89.1751 29.622 88.8484 29.356 88.6151 29.02C88.3911 28.6747 88.2791 28.2873 88.2791 27.858C88.2791 27.186 88.5264 26.6493 89.0211 26.248C89.5251 25.8373 90.3138 25.632 91.3871 25.632H93.3191V25.52C93.3191 24.9973 93.1604 24.596 92.8431 24.316C92.5351 24.036 92.0731 23.896 91.4571 23.896C91.0371 23.896 90.6218 23.9613 90.2111 24.092C89.8098 24.2227 89.4691 24.4047 89.1891 24.638L88.5031 23.364C88.8951 23.0653 89.3664 22.8367 89.9171 22.678C90.4678 22.5193 91.0511 22.44 91.6671 22.44ZM91.4291 28.824C91.8678 28.824 92.2551 28.726 92.5911 28.53C92.9364 28.3247 93.1791 28.0353 93.3191 27.662V26.794H91.5131C90.5051 26.794 90.0011 27.1253 90.0011 27.788C90.0011 28.1053 90.1271 28.3573 90.3791 28.544C90.6311 28.7307 90.9811 28.824 91.4291 28.824ZM101.557 22.44C102.5 22.44 103.256 22.7153 103.825 23.266C104.394 23.8167 104.679 24.6333 104.679 25.716V30H102.929V25.94C102.929 25.2867 102.775 24.7967 102.467 24.47C102.159 24.134 101.72 23.966 101.151 23.966C100.507 23.966 99.9983 24.162 99.625 24.554C99.2517 24.9367 99.065 25.492 99.065 26.22V30H97.315V22.524H98.981V23.49C99.2703 23.1447 99.6343 22.8833 100.073 22.706C100.512 22.5287 101.006 22.44 101.557 22.44Z" fill="#941759"/>
</svg>
