<svg width="129" height="49" viewBox="0 0 129 49" fill="none" xmlns="http://www.w3.org/2000/svg">
<path d="M0 4C0 1.79086 1.79086 0 4 0H125C127.209 0 129 1.79086 129 4V45C129 47.2091 127.209 49 125 49H4C1.79086 49 0 47.2091 0 45V4Z" fill="white" fill-opacity="0.1"/>
<path fill-rule="evenodd" clip-rule="evenodd" d="M32.5 30.981V29.5414C32.5 27.7005 34.1193 26.5 35.5 26.5H40.5C41.8807 26.5 43.5 27.7005 43.5 29.5414V30.981C45.3354 29.4218 46.5 27.0969 46.5 24.5C46.5 19.8056 42.6944 16 38 16C33.3056 16 29.5 19.8056 29.5 24.5C29.5 27.0969 30.6646 29.4218 32.5 30.981ZM48 24.5C48 30.0228 43.5228 34.5 38 34.5C32.4772 34.5 28 30.0228 28 24.5C28 18.9772 32.4772 14.5 38 14.5C43.5228 14.5 48 18.9772 48 24.5ZM41.5 22C41.5 23.933 39.933 25.5 38 25.5C36.067 25.5 34.5 23.933 34.5 22C34.5 20.067 36.067 18.5 38 18.5C39.933 18.5 41.5 20.067 41.5 22Z" fill="white"/>
<path d="M61.3258 20.2H63.1458V28.46H68.2698V30H61.3258V20.2ZM72.8303 30.098C72.0743 30.098 71.3929 29.9347 70.7863 29.608C70.1796 29.2813 69.7036 28.8287 69.3583 28.25C69.0223 27.662 68.8543 26.9993 68.8543 26.262C68.8543 25.5247 69.0223 24.8667 69.3583 24.288C69.7036 23.7093 70.1796 23.2567 70.7863 22.93C71.3929 22.6033 72.0743 22.44 72.8303 22.44C73.5956 22.44 74.2816 22.6033 74.8883 22.93C75.4949 23.2567 75.9663 23.7093 76.3023 24.288C76.6476 24.8667 76.8203 25.5247 76.8203 26.262C76.8203 26.9993 76.6476 27.662 76.3023 28.25C75.9663 28.8287 75.4949 29.2813 74.8883 29.608C74.2816 29.9347 73.5956 30.098 72.8303 30.098ZM72.8303 28.6C73.4743 28.6 74.0063 28.3853 74.4263 27.956C74.8463 27.5267 75.0563 26.962 75.0563 26.262C75.0563 25.562 74.8463 24.9973 74.4263 24.568C74.0063 24.1387 73.4743 23.924 72.8303 23.924C72.1863 23.924 71.6543 24.1387 71.2343 24.568C70.8236 24.9973 70.6183 25.562 70.6183 26.262C70.6183 26.962 70.8236 27.5267 71.2343 27.956C71.6543 28.3853 72.1863 28.6 72.8303 28.6ZM85.9137 22.524V28.866C85.9137 31.498 84.5697 32.814 81.8817 32.814C81.163 32.814 80.4817 32.7207 79.8377 32.534C79.1937 32.3567 78.6617 32.0953 78.2417 31.75L79.0257 30.434C79.3524 30.7047 79.763 30.9193 80.2577 31.078C80.7617 31.246 81.2704 31.33 81.7837 31.33C82.605 31.33 83.207 31.1433 83.5897 30.77C83.9724 30.3967 84.1637 29.8273 84.1637 29.062V28.67C83.865 28.9967 83.501 29.244 83.0717 29.412C82.6424 29.58 82.171 29.664 81.6577 29.664C80.9484 29.664 80.3044 29.5147 79.7257 29.216C79.1564 28.908 78.7037 28.4787 78.3677 27.928C78.041 27.3773 77.8777 26.7473 77.8777 26.038C77.8777 25.3287 78.041 24.7033 78.3677 24.162C78.7037 23.6113 79.1564 23.1867 79.7257 22.888C80.3044 22.5893 80.9484 22.44 81.6577 22.44C82.199 22.44 82.689 22.5287 83.1277 22.706C83.5757 22.8833 83.949 23.154 84.2477 23.518V22.524H85.9137ZM81.9237 28.18C82.5864 28.18 83.1277 27.984 83.5477 27.592C83.977 27.1907 84.1917 26.6727 84.1917 26.038C84.1917 25.4127 83.977 24.904 83.5477 24.512C83.1277 24.12 82.5864 23.924 81.9237 23.924C81.2517 23.924 80.701 24.12 80.2717 24.512C79.8517 24.904 79.6417 25.4127 79.6417 26.038C79.6417 26.6727 79.8517 27.1907 80.2717 27.592C80.701 27.984 81.2517 28.18 81.9237 28.18ZM92.2515 20.2H94.0715V30H92.2515V20.2ZM100.796 22.44C101.739 22.44 102.495 22.7153 103.064 23.266C103.634 23.8167 103.918 24.6333 103.918 25.716V30H102.168V25.94C102.168 25.2867 102.014 24.7967 101.706 24.47C101.398 24.134 100.96 23.966 100.39 23.966C99.7463 23.966 99.2376 24.162 98.8643 24.554C98.4909 24.9367 98.3043 25.492 98.3043 26.22V30H96.5543V22.524H98.2203V23.49C98.5096 23.1447 98.8736 22.8833 99.3123 22.706C99.7509 22.5287 100.246 22.44 100.796 22.44Z" fill="white"/>
</svg>
