<svg width="74" height="32" viewBox="0 0 74 32" fill="none" xmlns="http://www.w3.org/2000/svg">
<path d="M0 2C0 0.895431 0.895431 0 2 0H72C73.1046 0 74 0.895431 74 2V30C74 31.1046 73.1046 32 72 32H2C0.895429 32 0 31.1046 0 30V2Z" fill="#941759"/>
<path d="M19.3262 17.8027C19.3262 17.4277 19.1934 17.1387 18.9277 16.9355C18.666 16.7324 18.1914 16.5273 17.5039 16.3203C16.8164 16.1133 16.2695 15.8828 15.8633 15.6289C15.0859 15.1406 14.6973 14.5039 14.6973 13.7188C14.6973 13.0312 14.9766 12.4648 15.5352 12.0195C16.0977 11.5742 16.8262 11.3516 17.7207 11.3516C18.3145 11.3516 18.8438 11.4609 19.3086 11.6797C19.7734 11.8984 20.1387 12.2109 20.4043 12.6172C20.6699 13.0195 20.8027 13.4668 20.8027 13.959H19.3262C19.3262 13.5137 19.1855 13.166 18.9043 12.916C18.627 12.6621 18.2285 12.5352 17.709 12.5352C17.2246 12.5352 16.8477 12.6387 16.5781 12.8457C16.3125 13.0527 16.1797 13.3418 16.1797 13.7129C16.1797 14.0254 16.3242 14.2871 16.6133 14.498C16.9023 14.7051 17.3789 14.9082 18.043 15.1074C18.707 15.3027 19.2402 15.5273 19.6426 15.7812C20.0449 16.0312 20.3398 16.3203 20.5273 16.6484C20.7148 16.9727 20.8086 17.3535 20.8086 17.791C20.8086 18.502 20.5352 19.0684 19.9883 19.4902C19.4453 19.9082 18.707 20.1172 17.7734 20.1172C17.1562 20.1172 16.5879 20.0039 16.0684 19.7773C15.5527 19.5469 15.1504 19.2305 14.8613 18.8281C14.5762 18.4258 14.4336 17.957 14.4336 17.4219H15.916C15.916 17.9062 16.0762 18.2812 16.3965 18.5469C16.7168 18.8125 17.1758 18.9453 17.7734 18.9453C18.2891 18.9453 18.6758 18.8418 18.9336 18.6348C19.1953 18.4238 19.3262 18.1465 19.3262 17.8027ZM23.6738 20H22.1973V11.4688H23.6738V20ZM32.0352 18.8926C31.7266 19.2949 31.2988 19.5996 30.752 19.8066C30.2051 20.0137 29.584 20.1172 28.8887 20.1172C28.1738 20.1172 27.541 19.9551 26.9902 19.6309C26.4395 19.3066 26.0137 18.8438 25.7129 18.2422C25.416 17.6367 25.2617 16.9316 25.25 16.127V15.459C25.25 14.1699 25.5586 13.1641 26.1758 12.4414C26.793 11.7148 27.6543 11.3516 28.7598 11.3516C29.709 11.3516 30.4629 11.5859 31.0215 12.0547C31.5801 12.5234 31.916 13.1992 32.0293 14.082H30.5762C30.4121 13.0547 29.8164 12.541 28.7891 12.541C28.125 12.541 27.6191 12.7812 27.2715 13.2617C26.9277 13.7383 26.75 14.4395 26.7383 15.3652V16.0215C26.7383 16.9434 26.9316 17.6602 27.3184 18.1719C27.709 18.6797 28.25 18.9336 28.9414 18.9336C29.6992 18.9336 30.2383 18.7617 30.5586 18.418V16.748H28.8008V15.623H32.0352V18.8926ZM40.4316 20H38.9492L35.1465 13.9473V20H33.6641V11.4688H35.1465L38.9609 17.5449V11.4688H40.4316V20ZM51.4121 11.4688V17.1699C51.4121 18.0762 51.1211 18.7949 50.5391 19.3262C49.9609 19.8535 49.1895 20.1172 48.2246 20.1172C47.248 20.1172 46.4727 19.8574 45.8984 19.3379C45.3242 18.8145 45.0371 18.0898 45.0371 17.1641V11.4688H46.5137V17.1758C46.5137 17.7461 46.6582 18.1816 46.9473 18.4824C47.2363 18.7832 47.6621 18.9336 48.2246 18.9336C49.3652 18.9336 49.9355 18.332 49.9355 17.1289V11.4688H51.4121ZM54.4824 16.8301V20H53V11.4688H56.2637C57.2168 11.4688 57.9727 11.7168 58.5312 12.2129C59.0938 12.709 59.375 13.3652 59.375 14.1816C59.375 15.0176 59.0996 15.668 58.5488 16.1328C58.002 16.5977 57.2344 16.8301 56.2461 16.8301H54.4824ZM54.4824 15.6406H56.2637C56.791 15.6406 57.1934 15.5176 57.4707 15.2715C57.748 15.0215 57.8867 14.6621 57.8867 14.1934C57.8867 13.7324 57.7461 13.3652 57.4648 13.0918C57.1836 12.8145 56.7969 12.6719 56.3047 12.6641H54.4824V15.6406Z" fill="white"/>
</svg>
