<svg width="142" height="49" viewBox="0 0 142 49" fill="none" xmlns="http://www.w3.org/2000/svg">
<path d="M0 4C0 1.79086 1.79086 0 4 0H138C140.209 0 142 1.79086 142 4V45C142 47.2091 140.209 49 138 49H4C1.79086 49 0 47.2091 0 45V4Z" fill="white"/>
<path d="M30.6147 30.14C29.8587 30.14 29.1261 30.0327 28.4167 29.818C27.7167 29.6033 27.1614 29.3187 26.7507 28.964L27.3807 27.55C27.7821 27.8673 28.2721 28.1287 28.8507 28.334C29.4387 28.53 30.0267 28.628 30.6147 28.628C31.3427 28.628 31.8841 28.5113 32.2387 28.278C32.6027 28.0447 32.7847 27.7367 32.7847 27.354C32.7847 27.074 32.6821 26.8453 32.4767 26.668C32.2807 26.4813 32.0287 26.3367 31.7207 26.234C31.4127 26.1313 30.9927 26.0147 30.4607 25.884C29.7141 25.7067 29.1074 25.5293 28.6407 25.352C28.1834 25.1747 27.7867 24.8993 27.4507 24.526C27.1241 24.1433 26.9607 23.63 26.9607 22.986C26.9607 22.4447 27.1054 21.9547 27.3947 21.516C27.6934 21.068 28.1367 20.7133 28.7247 20.452C29.3221 20.1907 30.0501 20.06 30.9087 20.06C31.5061 20.06 32.0941 20.1347 32.6727 20.284C33.2514 20.4333 33.7507 20.648 34.1707 20.928L33.5967 22.342C33.1674 22.09 32.7194 21.8987 32.2527 21.768C31.7861 21.6373 31.3334 21.572 30.8947 21.572C30.1761 21.572 29.6394 21.6933 29.2847 21.936C28.9394 22.1787 28.7667 22.5007 28.7667 22.902C28.7667 23.182 28.8647 23.4107 29.0607 23.588C29.2661 23.7653 29.5227 23.9053 29.8307 24.008C30.1387 24.1107 30.5587 24.2273 31.0907 24.358C31.8187 24.526 32.4161 24.7033 32.8827 24.89C33.3494 25.0673 33.7461 25.3427 34.0727 25.716C34.4087 26.0893 34.5767 26.5933 34.5767 27.228C34.5767 27.7693 34.4274 28.2593 34.1287 28.698C33.8394 29.1367 33.3961 29.4867 32.7987 29.748C32.2014 30.0093 31.4734 30.14 30.6147 30.14ZM38.2327 21.74H34.9847V20.2H43.3007V21.74H40.0527V30H38.2327V21.74ZM50.5304 27.732H45.6304L44.6644 30H42.7884L47.1984 20.2H48.9904L53.4144 30H51.5104L50.5304 27.732ZM49.9284 26.304L48.0804 22.02L46.2464 26.304H49.9284ZM61.0727 30L59.0707 27.13C58.9867 27.1393 58.8607 27.144 58.6927 27.144H56.4807V30H54.6607V20.2H58.6927C59.5421 20.2 60.2794 20.34 60.9047 20.62C61.5394 20.9 62.0247 21.3013 62.3607 21.824C62.6967 22.3467 62.8647 22.9673 62.8647 23.686C62.8647 24.4233 62.6827 25.058 62.3187 25.59C61.9641 26.122 61.4507 26.5187 60.7787 26.78L63.0327 30H61.0727ZM61.0307 23.686C61.0307 23.0607 60.8254 22.58 60.4147 22.244C60.0041 21.908 59.4021 21.74 58.6087 21.74H56.4807V25.646H58.6087C59.4021 25.646 60.0041 25.478 60.4147 25.142C60.8254 24.7967 61.0307 24.3113 61.0307 23.686ZM66.7522 21.74H63.5042V20.2H71.8202V21.74H68.5722V30H66.7522V21.74ZM79.0433 21.74H75.7953V20.2H84.1113V21.74H80.8633V30H79.0433V21.74ZM91.8891 30L89.8871 27.13C89.8031 27.1393 89.6771 27.144 89.5091 27.144H87.2971V30H85.4771V20.2H89.5091C90.3585 20.2 91.0958 20.34 91.7211 20.62C92.3558 20.9 92.8411 21.3013 93.1771 21.824C93.5131 22.3467 93.6811 22.9673 93.6811 23.686C93.6811 24.4233 93.4991 25.058 93.1351 25.59C92.7805 26.122 92.2671 26.5187 91.5951 26.78L93.8491 30H91.8891ZM91.8471 23.686C91.8471 23.0607 91.6418 22.58 91.2311 22.244C90.8205 21.908 90.2185 21.74 89.4251 21.74H87.2971V25.646H89.4251C90.2185 25.646 90.8205 25.478 91.2311 25.142C91.6418 24.7967 91.8471 24.3113 91.8471 23.686ZM95.7174 20.2H97.5374V30H95.7174V20.2ZM106.544 27.732H101.644L100.678 30H98.8021L103.212 20.2H105.004L109.428 30H107.524L106.544 27.732ZM105.942 26.304L104.094 22.02L102.26 26.304H105.942ZM110.674 20.2H112.494V28.46H117.618V30H110.674V20.2Z" fill="#941759"/>
</svg>
