<svg width="553" height="349" viewBox="0 0 553 349" fill="none" xmlns="http://www.w3.org/2000/svg">
<path fill-rule="evenodd" clip-rule="evenodd" d="M59.8962 71.6516C96.8096 41.5083 156.356 39.892 208.202 27.0371C253.703 15.7551 296.954 -5.16043 344.161 1.16862C392.094 7.59489 428.324 34.8439 462.184 61.0885C497.265 88.2794 529.982 117.566 541.763 154.329C554.708 194.725 562.338 241.409 530.924 275.595C499.974 309.275 436.864 311.383 385.24 324.664C338.981 336.565 294.715 349.966 245.804 348.945C187.794 347.734 125.639 346.063 80.9114 318.312C33.2304 288.729 4.37028 242.972 0.428297 196.704C-3.43054 151.412 18.9776 105.066 59.8962 71.6516Z" fill="#F2FBDD"/>
</svg>
