<svg width="102" height="26" viewBox="0 0 102 26" fill="none" xmlns="http://www.w3.org/2000/svg">
<path d="M26.8225 9.05139H37.1397V10.9542H33.0774V21.6805H30.8508V10.9542H26.8055L26.8225 9.05139ZM36.6977 12.537H38.6014V14.3051H38.6354C38.7034 14.0525 38.8224 13.8168 38.9923 13.581C39.1623 13.3453 39.3663 13.1264 39.6212 12.9411C39.8592 12.7391 40.1311 12.5875 40.4371 12.4697C40.726 12.3518 41.032 12.2844 41.3379 12.2844C41.5759 12.2844 41.7458 12.3013 41.8308 12.3013C41.9158 12.3181 42.0178 12.3349 42.1028 12.3349V14.2714C41.9668 14.2377 41.8138 14.2209 41.6609 14.204C41.5079 14.1872 41.3719 14.1704 41.2189 14.1704C40.879 14.1704 40.5561 14.2377 40.2501 14.3724C39.9442 14.5071 39.6892 14.7092 39.4512 14.9618C39.2303 15.2312 39.0433 15.5512 38.9073 15.9384C38.7714 16.3257 38.7034 16.7804 38.7034 17.2855V21.6299H36.6637L36.6977 12.537ZM51.4511 21.6805H49.4455V20.4007H49.4115C49.1565 20.8722 48.7826 21.2258 48.2897 21.5121C47.7968 21.7983 47.2868 21.933 46.7769 21.933C45.5702 21.933 44.6863 21.6468 44.1424 21.0406C43.5985 20.4512 43.3266 19.5419 43.3266 18.3464V12.537H45.3662V18.1443C45.3662 18.9526 45.5192 19.5251 45.8421 19.845C46.1481 20.1818 46.59 20.3502 47.1509 20.3502C47.5758 20.3502 47.9327 20.2828 48.2217 20.1481C48.5106 20.0134 48.7486 19.845 48.9186 19.6261C49.1055 19.4072 49.2245 19.1378 49.3095 18.8347C49.3945 18.5316 49.4285 18.1948 49.4285 17.8412V12.537H51.4681V21.6805H51.4511ZM54.9185 18.7505C54.9865 19.3399 55.2074 19.744 55.5984 19.9966C55.9893 20.2323 56.4652 20.3502 57.0091 20.3502C57.1961 20.3502 57.417 20.3334 57.655 20.2997C57.893 20.266 58.1309 20.2155 58.3349 20.1313C58.5558 20.0471 58.7258 19.9292 58.8618 19.7608C58.9978 19.5924 59.0657 19.3904 59.0487 19.1378C59.0317 18.8852 58.9468 18.6663 58.7598 18.4979C58.5728 18.3295 58.3519 18.2117 58.0799 18.0938C57.808 17.9928 57.485 17.9086 57.1281 17.8412C56.7711 17.7739 56.4142 17.6897 56.0403 17.6055C55.6663 17.5213 55.2924 17.4203 54.9355 17.3024C54.5785 17.1845 54.2726 17.033 53.9836 16.8141C53.7117 16.612 53.4737 16.3594 53.3208 16.0395C53.1508 15.7195 53.0658 15.3491 53.0658 14.8776C53.0658 14.3724 53.1848 13.9683 53.4397 13.6315C53.6777 13.2948 54.0006 13.0253 54.3746 12.8233C54.7485 12.6212 55.1734 12.4697 55.6324 12.3855C56.0913 12.3013 56.5332 12.2676 56.9411 12.2676C57.417 12.2676 57.8759 12.3181 58.3009 12.4191C58.7258 12.5202 59.1337 12.6717 59.4737 12.9075C59.8306 13.1264 60.1195 13.4295 60.3405 13.7831C60.5785 14.1367 60.7144 14.5745 60.7824 15.0797H58.6578C58.5558 14.5913 58.3349 14.2714 57.9949 14.103C57.638 13.9346 57.2471 13.8504 56.7881 13.8504C56.6522 13.8504 56.4652 13.8673 56.2782 13.8841C56.0743 13.9178 55.9043 13.9515 55.7173 14.0188C55.5474 14.0862 55.3944 14.1872 55.2754 14.3051C55.1564 14.423 55.0884 14.5913 55.0884 14.7934C55.0884 15.046 55.1734 15.2312 55.3434 15.3828C55.5134 15.5343 55.7343 15.6522 56.0233 15.7701C56.2952 15.8711 56.6182 15.9553 56.9751 16.0226C57.3321 16.09 57.706 16.1742 58.0799 16.2584C58.4538 16.3426 58.8108 16.4436 59.1677 16.5615C59.5247 16.6793 59.8476 16.8309 60.1196 17.0498C60.3915 17.2519 60.6295 17.5044 60.7994 17.8075C60.9694 18.1106 61.0544 18.4979 61.0544 18.9357C61.0544 19.4746 60.9354 19.9292 60.6804 20.3165C60.4255 20.687 60.1026 21.0069 59.7116 21.2427C59.3207 21.4784 58.8618 21.6468 58.3859 21.7647C57.8929 21.8657 57.417 21.933 56.9411 21.933C56.3632 21.933 55.8193 21.8657 55.3264 21.731C54.8335 21.5963 54.3916 21.3942 54.0346 21.1416C53.6777 20.8722 53.3888 20.5523 53.1848 20.1481C52.9808 19.7608 52.8618 19.2894 52.8448 18.7337H54.9015V18.7505H54.9185ZM61.6323 12.537H63.179V9.77546H65.2186V12.5202H67.0543V14.0188H65.2186V18.9021C65.2186 19.121 65.2356 19.2894 65.2526 19.4577C65.2696 19.6093 65.3206 19.744 65.3716 19.845C65.4396 19.9461 65.5416 20.0303 65.6606 20.0808C65.7965 20.1313 65.9665 20.165 66.2045 20.165C66.3404 20.165 66.4934 20.165 66.6294 20.1481C66.7654 20.1313 66.9183 20.1145 67.0543 20.0808V21.6468C66.8333 21.6805 66.6124 21.6973 66.3914 21.7141C66.1705 21.7478 65.9665 21.7478 65.7285 21.7478C65.1846 21.7478 64.7597 21.6973 64.4368 21.5963C64.1138 21.4952 63.8589 21.3437 63.6719 21.1585C63.4849 20.9564 63.366 20.7206 63.298 20.4344C63.23 20.1481 63.196 19.7945 63.179 19.4241V14.0357H61.6323V12.5033V12.537ZM68.4821 12.537H70.4027V13.7831H70.4367C70.7257 13.2442 71.1166 12.8738 71.6265 12.638C72.1364 12.4023 72.6803 12.2844 73.2922 12.2844C74.0231 12.2844 74.6519 12.4023 75.1959 12.6717C75.7398 12.9243 76.1817 13.2611 76.5386 13.7157C76.8955 14.1535 77.1675 14.6755 77.3375 15.2649C77.5074 15.8542 77.6094 16.4941 77.6094 17.1508C77.6094 17.7739 77.5244 18.3632 77.3715 18.9357C77.2015 19.5083 76.9635 20.0303 76.6406 20.4681C76.3176 20.9059 75.9097 21.2595 75.3998 21.5289C74.8899 21.7983 74.312 21.933 73.6321 21.933C73.3432 21.933 73.0372 21.8994 72.7483 21.8488C72.4593 21.7983 72.1704 21.7141 71.8984 21.5963C71.6265 21.4784 71.3715 21.3268 71.1506 21.1416C70.9126 20.9564 70.7257 20.7375 70.5727 20.5017H70.5387V25.065H68.4991V12.537H68.4821ZM75.6038 17.1172C75.6038 16.713 75.5528 16.3089 75.4338 15.9216C75.3318 15.5343 75.1619 15.1975 74.9409 14.8944C74.7199 14.5913 74.448 14.3556 74.142 14.1704C73.8191 13.9851 73.4452 13.901 73.0372 13.901C72.1874 13.901 71.5415 14.1872 71.0996 14.7766C70.6747 15.3659 70.4537 16.1573 70.4537 17.134C70.4537 17.6055 70.5047 18.0264 70.6237 18.4137C70.7426 18.801 70.8956 19.1378 71.1336 19.4241C71.3545 19.7103 71.6265 19.9292 71.9494 20.0976C72.2724 20.266 72.6293 20.3502 73.0542 20.3502C73.5302 20.3502 73.9041 20.2492 74.227 20.0639C74.55 19.8787 74.8049 19.6261 75.0259 19.3399C75.2298 19.0368 75.3828 18.7 75.4678 18.3127C75.5528 17.9086 75.6038 17.5213 75.6038 17.1172ZM79.1901 9.05139H81.2298V10.9542H79.1901V9.05139ZM79.1901 12.537H81.2298V21.6805H79.1901V12.537ZM83.0484 9.05139H85.0881V21.6805H83.0484V9.05139ZM91.309 21.933C90.5781 21.933 89.9152 21.8152 89.3373 21.5626C88.7594 21.31 88.2835 20.9901 87.8756 20.5691C87.4847 20.1481 87.1787 19.6261 86.9747 19.0368C86.7708 18.4474 86.6518 17.7907 86.6518 17.1003C86.6518 16.4099 86.7538 15.7701 86.9747 15.1807C87.1787 14.5913 87.4847 14.0862 87.8756 13.6484C88.2665 13.2274 88.7594 12.8906 89.3373 12.6549C89.9152 12.4191 90.5781 12.2844 91.309 12.2844C92.0398 12.2844 92.7027 12.4023 93.2806 12.6549C93.8585 12.8906 94.3344 13.2274 94.7424 13.6484C95.1333 14.0693 95.4392 14.5913 95.6432 15.1807C95.8472 15.7701 95.9661 16.4099 95.9661 17.1003C95.9661 17.8075 95.8642 18.4474 95.6432 19.0368C95.4222 19.6261 95.1333 20.1313 94.7424 20.5691C94.3514 20.9901 93.8585 21.3268 93.2806 21.5626C92.7027 21.7983 92.0568 21.933 91.309 21.933ZM91.309 20.3334C91.7509 20.3334 92.1588 20.2323 92.4818 20.0471C92.8217 19.8619 93.0767 19.6093 93.2976 19.3062C93.5186 19.0031 93.6715 18.6495 93.7735 18.279C93.8755 17.8917 93.9265 17.5044 93.9265 17.1003C93.9265 16.713 93.8755 16.3257 93.7735 15.9384C93.6715 15.5512 93.5186 15.2144 93.2976 14.9113C93.0767 14.6082 92.8047 14.3724 92.4818 14.1872C92.1418 14.002 91.7509 13.901 91.309 13.901C90.867 13.901 90.4591 14.002 90.1362 14.1872C89.7962 14.3724 89.5413 14.625 89.3203 14.9113C89.0994 15.2144 88.9464 15.5512 88.8444 15.9384C88.7424 16.3257 88.6914 16.713 88.6914 17.1003C88.6914 17.5044 88.7424 17.8917 88.8444 18.279C88.9464 18.6663 89.0994 19.0031 89.3203 19.3062C89.5413 19.6093 89.8132 19.8619 90.1362 20.0471C90.4761 20.2492 90.867 20.3334 91.309 20.3334ZM96.578 12.537H98.1247V9.77546H100.164V12.5202H102V14.0188H100.164V18.9021C100.164 19.121 100.181 19.2894 100.198 19.4577C100.215 19.6093 100.266 19.744 100.317 19.845C100.385 19.9461 100.487 20.0303 100.606 20.0808C100.742 20.1313 100.912 20.165 101.15 20.165C101.286 20.165 101.439 20.165 101.575 20.1481C101.711 20.1313 101.864 20.1145 102 20.0808V21.6468C101.779 21.6805 101.558 21.6973 101.337 21.7141C101.116 21.7478 100.912 21.7478 100.674 21.7478C100.13 21.7478 99.7055 21.6973 99.3825 21.5963C99.0596 21.4952 98.8046 21.3437 98.6177 21.1585C98.4307 20.9564 98.3117 20.7206 98.2437 20.4344C98.1757 20.1481 98.1417 19.7945 98.1247 19.4241V14.0357H96.578V12.5033V12.537Z" fill="black"/>
<path d="M24.3686 8.91307H15.0587L12.1928 0L9.30993 8.91307L0 8.89599L7.52934 14.4112L4.64648 23.3242L12.1758 17.8091L19.7052 23.3242L16.8393 14.4112L24.3686 8.91307Z" fill="#00B67A"/>
<path d="M17.4062 16.3373L16.7702 14.273L12.1843 17.7542L17.4062 16.3373Z" fill="#005128"/>
</svg>
